<svg width="40" height="40" viewBox="0 0 40 40" fill="none" xmlns="http://www.w3.org/2000/svg">
<path d="M20.0002 36.6666C19.6113 36.6666 19.2779 36.5555 19.0002 36.3333C18.7224 36.111 18.5141 35.8194 18.3752 35.4583C17.8474 33.9027 17.1807 32.4444 16.3752 31.0833C15.5974 29.7221 14.5002 28.1249 13.0835 26.2916C11.6668 24.4583 10.5141 22.7083 9.62516 21.0416C8.76405 19.3749 8.3335 17.361 8.3335 14.9999C8.3335 11.7499 9.4585 8.99992 11.7085 6.74992C13.9863 4.47214 16.7502 3.33325 20.0002 3.33325C23.2502 3.33325 26.0002 4.47214 28.2502 6.74992C30.5279 8.99992 31.6668 11.7499 31.6668 14.9999C31.6668 17.5277 31.1807 19.6388 30.2085 21.3333C29.2641 22.9999 28.1668 24.6527 26.9168 26.2916C25.4168 28.2916 24.2779 29.9583 23.5002 31.2916C22.7502 32.5971 22.1252 33.986 21.6252 35.4583C21.4863 35.8471 21.2641 36.1527 20.9585 36.3749C20.6807 36.5694 20.3613 36.6666 20.0002 36.6666ZM20.0002 19.1666C21.1668 19.1666 22.1529 18.7638 22.9585 17.9583C23.7641 17.1527 24.1668 16.1666 24.1668 14.9999C24.1668 13.8333 23.7641 12.8471 22.9585 12.0416C22.1529 11.236 21.1668 10.8333 20.0002 10.8333C18.8335 10.8333 17.8474 11.236 17.0418 12.0416C16.2363 12.8471 15.8335 13.8333 15.8335 14.9999C15.8335 16.1666 16.2363 17.1527 17.0418 17.9583C17.8474 18.7638 18.8335 19.1666 20.0002 19.1666Z" fill="#ED2024" stroke="white"/>
<circle cx="20" cy="15" r="4" fill="white"/>
</svg>
