<svg width="30" height="40" viewBox="0 0 30 40" fill="none" xmlns="http://www.w3.org/2000/svg">
    <path d="M12.4308 2.90088L4.77126 8.44182L4.22803 20.1756L13.1913 36.7441L13.8432 37.5589L19.9817 33.5444L22.2524 30.2796L22.4805 24.8473L26.9893 16.21L26.1202 9.31098L21.1225 3.98734L12.4308 2.90088Z" fill="white"/>
    <mask id="mask0_26_1948" style="mask-type:luminance" maskUnits="userSpaceOnUse" x="13" y="10" width="5" height="8">
    <path d="M13.3066 10.8848H17.5409V17.8599H13.3066V10.8848Z" fill="white"/>
    </mask>
    <g mask="url(#mask0_26_1948)">
    <path d="M17.5429 13.7574L14.2545 17.8599L15.2092 14.9496L13.3086 14.9409L16.5404 10.8848L15.5988 13.7545V13.7574H17.5429Z" fill="#ED2024"/>
    </g>
    <path fill-rule="evenodd" clip-rule="evenodd" d="M13.7459 6.49995C17.1043 6.49995 19.8268 9.22551 19.8268 12.5838C19.8268 13.6459 19.5573 14.6422 19.0812 15.51C19.2941 14.8865 19.41 14.2161 19.41 13.5206C19.41 10.1403 16.6688 7.3991 13.2885 7.3991C11.1332 7.3991 9.23786 8.51439 8.14764 10.1998C9.07489 8.02563 11.2303 6.49995 13.7459 6.49995ZM13.179 6.32771C15.3719 5.4442 17.9753 5.89211 19.7516 7.67159C22.1263 10.0463 22.1263 13.8966 19.7516 16.2743C19.0028 17.0231 18.1068 17.5369 17.1545 17.8126C17.7466 17.5243 18.3011 17.1328 18.7929 16.641C21.1833 14.2506 21.1833 10.3753 18.7929 7.98492C17.2704 6.45924 15.1401 5.9079 13.179 6.32771ZM14.194 18.0883C14.2033 18.0945 14.2127 18.0977 14.2221 18.1009C14.2347 18.1039 14.2441 18.1071 14.2534 18.1103C14.2628 18.1133 14.2722 18.1165 14.2816 18.1195C14.2911 18.1227 14.3005 18.1259 14.3129 18.129C14.3223 18.1322 14.3318 18.1353 14.3412 18.1384C14.3506 18.1416 14.36 18.1446 14.3725 18.1478C14.3819 18.151 14.3913 18.151 14.4007 18.154C14.4101 18.1572 14.4195 18.1603 14.432 18.1634C14.4414 18.1666 14.4508 18.1697 14.4603 18.1729C14.4697 18.176 14.4791 18.1791 14.4915 18.1823C14.501 18.1855 14.5104 18.1885 14.5198 18.1885C14.5292 18.1917 14.5385 18.1947 14.5511 18.1979C14.5605 18.2011 14.5699 18.2041 14.5793 18.2073C14.5887 18.2073 14.6012 18.2105 14.6106 18.2136C14.62 18.2168 14.6294 18.2198 14.6419 18.223C14.6513 18.223 14.6607 18.2262 14.6702 18.2292C14.6796 18.2324 14.692 18.2354 14.7014 18.2354C14.7109 18.2386 14.7203 18.2418 14.7327 18.2449C14.7422 18.2449 14.7516 18.248 14.761 18.2512C14.7734 18.2543 14.7829 18.2543 14.7923 18.2575C14.8017 18.2606 14.8143 18.2637 14.8236 18.2637C14.833 18.2669 14.8424 18.2699 14.855 18.2731C14.8644 18.2731 14.8737 18.2763 14.8831 18.2793C14.8957 18.2793 14.9051 18.2825 14.9145 18.2857C14.924 18.2857 14.9364 18.2887 14.9458 18.2919C14.9552 18.2919 14.9677 18.295 14.9771 18.2982C14.9865 18.2982 14.9959 18.3013 15.0084 18.3044C15.0178 18.3044 15.0272 18.3076 15.0398 18.3076C15.0493 18.3108 15.0585 18.3138 15.0679 18.3138C15.0805 18.317 15.09 18.317 15.0994 18.32C15.1118 18.32 15.1213 18.3232 15.1307 18.3264C15.1431 18.3264 15.1525 18.3295 15.162 18.3295C15.1746 18.3326 15.1838 18.3326 15.1932 18.3358C15.2027 18.3358 15.2153 18.3389 15.2247 18.3389C15.2341 18.3421 15.2466 18.3421 15.256 18.3452C15.2654 18.3452 15.2778 18.3483 15.2873 18.3483C15.2967 18.3515 15.3093 18.3515 15.3186 18.3545C15.3312 18.3545 15.3406 18.3577 15.35 18.3577C15.3624 18.3577 15.3719 18.3609 15.3813 18.3609C15.3939 18.3639 15.4032 18.3639 15.4126 18.3671C15.4252 18.3671 15.4346 18.3671 15.4439 18.3703C15.4565 18.3703 15.4659 18.3733 15.4783 18.3733C15.4878 18.3733 15.4972 18.3765 15.5098 18.3765C15.519 18.3765 15.5285 18.3796 15.5411 18.3796C15.5505 18.3796 15.5629 18.3828 15.5723 18.3828C15.5818 18.3828 15.5944 18.3859 15.6036 18.3859C15.6162 18.3859 15.6257 18.389 15.6351 18.389C15.6475 18.389 15.6569 18.389 15.6664 18.3922H15.7008C15.7103 18.3952 15.7227 18.3952 15.7321 18.3952C15.7415 18.3952 15.754 18.3984 15.7634 18.3984H15.7949C15.8073 18.4016 15.8167 18.4016 15.8292 18.4016C15.8386 18.4016 15.8512 18.4016 15.8606 18.4046H15.9264C15.9358 18.4046 15.9452 18.4078 15.9577 18.4078H16.0549C16.0642 18.4078 16.0768 18.411 16.0862 18.411H16.1519C19.5323 18.411 22.2735 15.6698 22.2735 12.2895V12.186C22.2735 12.1547 22.2703 12.1203 22.2703 12.0858C22.2703 12.0545 22.2673 12.02 22.2673 11.9855C22.2641 11.9543 22.2641 11.9198 22.261 11.8883C22.2578 11.8539 22.2578 11.8226 22.2546 11.7881C22.2516 11.7538 22.2484 11.7223 22.2452 11.6879C22.2422 11.6566 22.239 11.6253 22.236 11.5908C22.2296 11.5595 22.2265 11.525 22.2234 11.4937C22.2171 11.4623 22.2139 11.4278 22.2077 11.3965C22.2045 11.3621 22.1983 11.3308 22.1951 11.2995C22.1889 11.2681 22.1827 11.2336 22.1764 11.2023C22.1732 11.171 22.167 11.1397 22.1608 11.1083C22.1544 11.0739 22.1482 11.0425 22.1419 11.0112C22.1325 10.9799 22.1263 10.9486 22.1199 10.9172C22.1137 10.8859 22.1043 10.8546 22.0981 10.8232C22.0886 10.7919 22.0824 10.7606 22.073 10.7293C22.0668 10.6979 22.0573 10.6666 22.0479 10.6353C22.0385 10.604 22.0291 10.5726 22.0229 10.5445C22.0135 10.513 22.004 10.4817 21.9946 10.4505C21.9852 10.4222 21.9727 10.3909 21.9633 10.3596C21.9539 10.3314 21.9445 10.3001 21.932 10.2688C21.9226 10.2406 21.9132 10.2093 21.9008 10.181C21.8913 10.1497 21.8787 10.1215 21.8663 10.0902C21.8569 10.0619 21.8443 10.0306 21.8318 10.0024C21.8192 9.97111 21.8098 9.94286 21.7973 9.91476C21.7847 9.88347 21.7723 9.85522 21.7597 9.82697C21.7472 9.79887 21.7316 9.76744 21.719 9.73933C21.7065 9.71109 21.6939 9.68284 21.6782 9.65473C21.6658 9.62649 21.6532 9.59838 21.6375 9.57014C21.6249 9.54189 21.6093 9.51379 21.5968 9.48554C21.5812 9.45729 21.5654 9.42919 21.5498 9.40094C21.5373 9.37269 21.5217 9.34459 21.506 9.31953C21.4902 9.29128 21.4746 9.26317 21.4589 9.23493C21.4433 9.20987 21.4276 9.18162 21.412 9.15352C21.3963 9.12845 21.3807 9.10021 21.3619 9.07515C21.3462 9.0469 21.3304 9.02184 21.3117 8.99373C21.2961 8.96867 21.2805 8.94361 21.2616 8.91536C21.2428 8.8903 21.2271 8.86524 21.2083 8.83699C21.1927 8.81193 21.1738 8.78687 21.155 8.76181C21.1363 8.73371 21.1207 8.70865 21.1018 8.68359C21.083 8.65852 21.0642 8.63346 21.0455 8.6084C21.0267 8.5832 21.0078 8.55828 20.989 8.53322C20.9703 8.5112 20.9483 8.48614 20.9295 8.46108C20.9108 8.43602 20.8919 8.41096 20.8699 8.38908C20.8512 8.36402 20.8292 8.33896 20.8105 8.31694C20.7885 8.29188 20.7697 8.27001 20.7478 8.24495C20.729 8.22307 20.7071 8.19787 20.6851 8.17599C20.6664 8.15412 20.6444 8.12906 20.6225 8.10704C20.6006 8.08517 20.5786 8.06329 20.5598 8.03823C20.5379 8.01621 20.516 7.99434 20.494 7.97232C20.4721 7.95044 20.4501 7.92857 20.4252 7.90655L20.3593 7.84078C20.3374 7.81891 20.3123 7.80008 20.2903 7.7782C20.2685 7.75618 20.2434 7.73431 20.2215 7.71548C20.1965 7.69361 20.1744 7.67477 20.1494 7.6529C20.1275 7.63407 20.1024 7.61205 20.0806 7.59336C20.0555 7.57134 20.0305 7.55251 20.0054 7.53382C19.9834 7.5118 19.9583 7.49312 19.9332 7.47429C19.9082 7.45545 19.8831 7.43662 19.8581 7.41793L19.7829 7.36144C19.7578 7.34275 19.7328 7.32392 19.7077 7.30509C19.6826 7.28626 19.6576 7.27061 19.6325 7.25178C19.6043 7.23309 19.5792 7.2173 19.5541 7.19861C19.5291 7.17978 19.501 7.16414 19.4759 7.14531C19.5104 7.16095 19.5417 7.1766 19.5762 7.19224C19.6106 7.20484 19.645 7.22049 19.6764 7.23613C19.7109 7.25178 19.7422 7.26742 19.7767 7.28626C19.8079 7.3019 19.8424 7.31755 19.8737 7.33638C19.9082 7.35202 19.9395 7.36781 19.9709 7.3865C20.0054 7.40533 20.0367 7.42098 20.068 7.43981C20.0993 7.45864 20.1337 7.47429 20.1652 7.49312C20.1965 7.5118 20.2278 7.53064 20.259 7.54947C20.2903 7.5683 20.3218 7.59017 20.3499 7.60901C20.3813 7.62769 20.4126 7.64971 20.4439 7.66854C20.4721 7.68723 20.5034 7.70925 20.5347 7.73112C20.563 7.74996 20.5943 7.77183 20.6225 7.79385C20.6538 7.81254 20.682 7.83455 20.7133 7.85643C20.7416 7.87845 20.7697 7.90032 20.7979 7.9222C20.8292 7.94422 20.8575 7.96928 20.8857 7.99115C20.9138 8.01317 20.9421 8.03504 20.9703 8.0601C20.9984 8.08198 21.0267 8.10704 21.0548 8.12906C21.0798 8.15412 21.1081 8.17918 21.1363 8.20105C21.1614 8.22611 21.1895 8.25118 21.2177 8.27624C21.2428 8.3013 21.271 8.32636 21.2961 8.35142C21.3212 8.37648 21.3493 8.40154 21.3743 8.4266C21.3994 8.45166 21.4244 8.47672 21.4495 8.50497C21.4778 8.53003 21.5028 8.55509 21.5247 8.5832C21.5498 8.6084 21.5748 8.63651 21.5999 8.66157C21.6249 8.68981 21.65 8.71806 21.672 8.74617C21.6971 8.77123 21.719 8.79948 21.744 8.82758C21.766 8.85583 21.7911 8.88407 21.813 8.91218C21.838 8.94042 21.8599 8.96867 21.8819 8.99678C21.9038 9.02502 21.9258 9.05631 21.9477 9.08456C21.9696 9.11266 21.9916 9.14091 22.0135 9.1722C22.0353 9.20045 22.0573 9.23174 22.0762 9.25999C22.0981 9.29128 22.1199 9.31953 22.1388 9.35082C22.1608 9.38211 22.1795 9.41354 22.1983 9.44164C22.2202 9.47293 22.239 9.50437 22.2578 9.53566C22.2767 9.56695 22.2954 9.59838 22.3142 9.62967C22.333 9.66096 22.3518 9.69225 22.3705 9.72369C22.3894 9.75498 22.4082 9.78627 22.4238 9.82075C22.4427 9.85204 22.4583 9.88347 22.4772 9.9178C22.4928 9.94924 22.5116 9.98053 22.5273 10.015C22.5429 10.0463 22.5586 10.0808 22.5742 10.1121C22.593 10.1465 22.6087 10.181 22.6213 10.2123C22.6369 10.2468 22.6526 10.2813 22.6682 10.3157C22.6839 10.347 22.6965 10.3815 22.7121 10.416C22.7246 10.4505 22.7402 10.4849 22.7528 10.5194C22.7653 10.5539 22.7811 10.5882 22.7935 10.6227C22.8061 10.6572 22.8186 10.6917 22.8312 10.7293C22.8437 10.7638 22.8531 10.7981 22.8655 10.8326C22.8781 10.8703 22.8907 10.9047 22.9 10.9392C22.9126 10.9767 22.922 11.0112 22.9314 11.0489C22.9439 11.0832 22.9533 11.1177 22.9627 11.1554C22.9721 11.1929 22.9816 11.2273 22.991 11.265C23.0002 11.2995 23.0097 11.337 23.0159 11.3747C23.0253 11.4122 23.0347 11.4467 23.0411 11.4843C23.0504 11.5218 23.0567 11.5595 23.063 11.597C23.0724 11.6315 23.0786 11.6692 23.0848 11.7067C23.0912 11.7444 23.0975 11.7819 23.1037 11.8195C23.1099 11.8571 23.1131 11.8947 23.1193 11.9322C23.1225 11.9729 23.1287 12.0106 23.1319 12.0481C23.1382 12.0858 23.1413 12.1233 23.1444 12.161C23.1476 12.2017 23.1506 12.2393 23.1538 12.2769C23.157 12.3145 23.16 12.3552 23.1632 12.3928C23.1632 12.4335 23.1664 12.4711 23.1694 12.5086C23.1694 12.5495 23.1694 12.587 23.1726 12.6277V12.7436C23.1726 12.7969 23.1726 12.8502 23.1694 12.9003C23.1694 12.9535 23.1664 13.0068 23.1632 13.0569C23.1632 13.1103 23.16 13.1604 23.1538 13.2135C23.1506 13.2637 23.1476 13.3138 23.1413 13.3671C23.135 13.4172 23.1287 13.4673 23.1225 13.5175C23.1163 13.5708 23.1099 13.6209 23.1037 13.671C23.0943 13.7211 23.0848 13.7713 23.0786 13.8214C23.0692 13.8715 23.0598 13.9216 23.0473 13.9717C23.0379 14.0187 23.0285 14.0688 23.0159 14.1189C23.0066 14.166 22.994 14.2161 22.9816 14.2631C22.969 14.3132 22.9565 14.3603 22.9407 14.4104C22.9283 14.4573 22.9126 14.5043 22.9 14.5544C22.8844 14.6015 22.8687 14.6484 22.8531 14.6955C22.8374 14.7424 22.8218 14.7893 22.8029 14.8364C22.7873 14.8834 22.7685 14.9272 22.7496 14.9742C22.731 15.0213 22.7121 15.0652 22.6933 15.1121C22.6745 15.159 22.6558 15.2029 22.6337 15.2468C22.6149 15.2937 22.593 15.3376 22.5712 15.3815C22.5523 15.4254 22.5303 15.4692 22.5053 15.5131C22.4834 15.557 22.4615 15.6008 22.4395 15.6447C22.4144 15.6885 22.3894 15.7292 22.3675 15.7731C22.3424 15.8138 22.3174 15.8577 22.2923 15.8984C22.2673 15.9391 22.239 15.983 22.2139 16.0237C22.1889 16.0644 22.1608 16.1053 22.1325 16.146C22.1075 16.1867 22.0792 16.2274 22.0511 16.265C22.0229 16.3057 21.9916 16.3464 21.9633 16.384C21.9351 16.4216 21.9038 16.4623 21.8755 16.5C21.8443 16.5375 21.813 16.5752 21.7847 16.6127C21.7534 16.6504 21.7221 16.6879 21.6877 16.7255C21.6564 16.7631 21.6249 16.7975 21.5905 16.8352C21.5592 16.8695 21.5247 16.9072 21.4934 16.9417C21.4589 16.9762 21.4244 17.0106 21.39 17.045C21.3556 17.0794 21.3212 17.1139 21.2867 17.1484C21.2522 17.1829 21.2145 17.2142 21.1801 17.2486C21.1425 17.2799 21.1081 17.3114 21.0706 17.3427C21.0329 17.3771 20.9952 17.4084 20.9577 17.4397C20.92 17.468 20.8825 17.4993 20.8449 17.5307C20.8073 17.5588 20.7666 17.5901 20.729 17.6183C20.6883 17.6496 20.6507 17.6779 20.6099 17.7061C20.5724 17.7342 20.5317 17.7625 20.491 17.7875C20.4501 17.8158 20.4094 17.8439 20.3687 17.8689C20.328 17.8972 20.2841 17.9222 20.2434 17.9473C20.2027 17.9724 20.1588 17.9974 20.1181 18.0225C20.0742 18.0476 20.0305 18.0694 19.9896 18.0945C19.9459 18.1165 19.902 18.1384 19.8581 18.1634L19.7265 18.2292C19.6826 18.248 19.6387 18.2699 19.5918 18.2887C19.5479 18.3108 19.501 18.3295 19.4571 18.3483C19.41 18.3703 19.3663 18.389 19.3192 18.4046C19.2722 18.4235 19.2284 18.4423 19.1814 18.4579C19.1343 18.4768 19.0874 18.4924 19.0405 18.5081C18.9934 18.5237 18.9465 18.5394 18.8994 18.555C18.8493 18.5676 18.8023 18.5832 18.7554 18.5959C18.7053 18.6115 18.6582 18.624 18.6081 18.6366C18.5611 18.649 18.511 18.6616 18.4639 18.671C18.4138 18.6835 18.3637 18.6929 18.3136 18.7054C18.2666 18.7148 18.2165 18.7242 18.1664 18.7336C18.1163 18.743 18.0661 18.7493 18.016 18.7587C17.9659 18.7649 17.9158 18.7713 17.8625 18.7775C17.8123 18.7837 17.7622 18.79 17.7121 18.7963C17.6588 18.8026 17.6087 18.8058 17.5555 18.8088C17.5054 18.815 17.4553 18.8182 17.4019 18.8182C17.3486 18.8214 17.2985 18.8244 17.2454 18.8244C17.1952 18.8276 17.1419 18.8276 17.0886 18.8276H16.9884C16.9727 18.8276 16.9571 18.8276 16.9414 18.8244H16.8913C16.8757 18.8244 16.8568 18.8244 16.8412 18.8214H16.7911C16.7754 18.8214 16.7598 18.8182 16.744 18.8182C16.7283 18.8182 16.7095 18.815 16.6939 18.815C16.6782 18.815 16.6626 18.812 16.6469 18.812C16.6281 18.812 16.6125 18.8088 16.5968 18.8088C16.5812 18.8058 16.5655 18.8058 16.5499 18.8026C16.531 18.8026 16.5154 18.8026 16.4998 18.7994C16.484 18.7994 16.4683 18.7963 16.4527 18.7932C16.4338 18.7932 16.4182 18.79 16.4025 18.79C16.3869 18.7869 16.3713 18.7869 16.3556 18.7837C16.34 18.7807 16.3242 18.7807 16.3055 18.7775C16.2898 18.7743 16.2742 18.7743 16.2584 18.7713C16.2428 18.7681 16.2271 18.7681 16.2115 18.7649C16.1958 18.7619 16.1802 18.7587 16.1645 18.7587C16.1488 18.7556 16.1331 18.7524 16.1144 18.7493C16.0986 18.7462 16.083 18.7462 16.0673 18.743L16.0204 18.7336C16.0048 18.7306 15.989 18.7274 15.9733 18.7242C15.9577 18.7242 15.942 18.7212 15.9264 18.718L15.8795 18.7086C15.8637 18.7054 15.848 18.7023 15.8324 18.6991C15.8167 18.6961 15.8011 18.6897 15.7854 18.6867C15.7698 18.6835 15.754 18.6805 15.7384 18.6773C15.7227 18.6741 15.7103 18.671 15.6946 18.6678C15.6788 18.6616 15.6632 18.6584 15.6475 18.6552C15.6319 18.6522 15.6162 18.649 15.6006 18.6428C15.585 18.6396 15.5693 18.6366 15.5535 18.6334C15.5411 18.6271 15.5254 18.624 15.5098 18.6209C15.494 18.6177 15.4783 18.6115 15.4627 18.6083C15.447 18.6053 15.4314 18.5989 15.4188 18.5959C15.4032 18.5895 15.3875 18.5864 15.3719 18.5832C15.3562 18.577 15.3406 18.5738 15.328 18.5676C15.3123 18.5644 15.2967 18.5582 15.281 18.555C15.2654 18.5488 15.2528 18.5457 15.2371 18.5394C15.2215 18.5363 15.2059 18.5299 15.1932 18.5269C15.1776 18.5207 15.162 18.5175 15.1463 18.5113C15.1337 18.5049 15.1181 18.5018 15.1024 18.4956C15.0868 18.4892 15.0743 18.4862 15.0585 18.4798C15.0429 18.4736 15.0304 18.4704 15.0148 18.4642C14.9991 18.4579 14.9833 18.4548 14.9709 18.4485C14.9552 18.4423 14.9396 18.4361 14.927 18.4329C14.9113 18.4267 14.8957 18.4204 14.8831 18.4141C14.8675 18.4078 14.8518 18.4046 14.8394 18.3984C14.8236 18.3922 14.8111 18.3859 14.7955 18.3796C14.7798 18.3733 14.7672 18.3671 14.7516 18.3639C14.7391 18.3577 14.7233 18.3515 14.7077 18.3452C14.6952 18.3389 14.6796 18.3326 14.667 18.3264C14.6513 18.32 14.6387 18.3138 14.6231 18.3076C14.6106 18.3013 14.595 18.295 14.5824 18.2887C14.5667 18.2825 14.5511 18.2763 14.5385 18.2699C14.5228 18.2606 14.5104 18.2543 14.4947 18.248C14.4821 18.2418 14.4697 18.2354 14.454 18.2292C14.4414 18.223 14.4258 18.2168 14.4132 18.2073C14.3975 18.2011 14.3851 18.1947 14.3694 18.1885C14.3568 18.1823 14.3444 18.1729 14.3286 18.1666C14.3161 18.1603 14.3005 18.154 14.2879 18.1446C14.2754 18.1384 14.2598 18.1322 14.2472 18.1227C14.2315 18.1165 14.2191 18.1103 14.2065 18.1009C14.1908 18.0945 14.1782 18.0883 14.1657 18.0788C14.1752 18.082 14.1846 18.0851 14.194 18.0883ZM13.0348 17.7938C15.4252 20.1841 19.3005 20.1841 21.6908 17.7938C23.2133 16.2681 23.7679 14.1409 23.3481 12.1798C24.2284 14.3727 23.7803 16.973 22.004 18.7524C19.6293 21.1272 15.776 21.1272 13.4013 18.7524C12.6495 18.0006 12.1389 17.1045 11.86 16.1554C12.1513 16.7474 12.5429 17.302 13.0348 17.7938ZM11.5937 13.1634C11.3806 13.7869 11.2648 14.4573 11.2648 15.1528C11.2648 18.5331 14.006 21.2743 17.3863 21.2743C19.5417 21.2743 21.4371 20.159 22.5273 18.4736C21.5999 20.6478 19.4414 22.1735 16.9288 22.1735C13.5705 22.1735 10.845 19.4479 10.845 16.0895C10.845 15.0275 11.1174 14.0313 11.5937 13.1634ZM10.9233 12.3991C11.672 11.6503 12.5679 11.1365 13.5204 10.8608C12.9282 11.1522 12.3738 11.5407 11.8819 12.0325C9.48847 14.4228 9.48847 18.2982 11.8819 20.6917C13.4045 22.2142 15.5316 22.7655 17.496 22.3457C15.3029 23.2292 12.6996 22.7812 10.9233 21.0018C8.54861 18.6271 8.54861 14.7769 10.9233 12.3991ZM13.5862 9.84581C14.6451 9.84581 15.6413 10.1183 16.5092 10.5946C15.8857 10.3785 15.2183 10.2624 14.5228 10.2624C11.1425 10.2624 8.40129 13.0036 8.40129 16.384C8.40129 18.5394 9.51353 20.4347 11.199 21.5281C9.02477 20.5977 7.50228 18.4423 7.50228 15.9297C7.50228 12.5682 10.2247 9.84581 13.5862 9.84581ZM8.67073 9.92099C11.0454 7.54628 14.8987 7.54628 17.2735 9.92099C18.0222 10.6728 18.5361 11.5689 18.8117 12.5181C18.5235 11.926 18.1319 11.3715 17.6401 10.8797C15.2497 8.48933 11.3744 8.48933 8.98407 10.8797C7.45839 12.4054 6.9069 14.5325 7.32671 16.4936C6.44639 14.3007 6.89444 11.7005 8.67073 9.92099Z" fill="#ED2024"/>
    <path d="M17.1916 25.7672L21.1815 30.3279C21.4793 30.6686 22.0194 30.6324 22.2687 30.2547C25.5292 25.3126 28.7148 19.2363 28.7148 14.3575C28.7148 6.97972 22.7335 0.999999 15.3575 0.999999C7.98132 0.999999 2 6.97972 2 14.3575C2 21.8021 9.41892 32.0379 13.1994 36.77L18.055 30.5328C18.2565 30.274 18.246 29.9086 18.0299 29.6616L13.8844 24.9225C13.464 24.442 12.915 24.0968 12.3067 23.9027C8.15978 22.5784 5.18666 18.6274 5.34499 14.0056C5.52244 8.82482 9.70545 4.58835 14.8837 4.34991C20.632 4.08525 25.3759 8.66576 25.3759 14.3575C25.3759 19.075 22.1154 23.0312 17.7241 24.0939C16.9741 24.2754 16.6836 25.1863 17.1916 25.7672ZM18.6741 31.261L13.8034 37.5177C14.2224 38.0319 14.5739 38.4509 14.8361 38.7588C15.1096 39.0799 15.6041 39.0807 15.8777 38.7595C16.6511 37.8511 18.2043 35.9754 19.9715 33.5578C20.1608 33.2988 20.1462 32.9427 19.935 32.7014L18.6741 31.261Z" fill="#ED2024"/>
    </svg>    