<svg width="30" height="40" viewBox="0 0 30 40" fill="none" xmlns="http://www.w3.org/2000/svg">
<path d="M12.4313 2.90137L4.77174 8.4423L4.22852 20.1761L13.1918 36.7445L13.8437 37.5594L19.9822 33.5449L22.2529 30.2801L22.481 24.8478L26.9898 16.2105L26.1207 9.31147L21.1229 3.98783L12.4313 2.90137Z" fill="white"/>
<mask id="mask0_4067_1255" style="mask-type:luminance" maskUnits="userSpaceOnUse" x="13" y="10" width="5" height="8">
<path d="M13.3066 10.8843H17.5409V17.8594H13.3066V10.8843Z" fill="white"/>
</mask>
<g mask="url(#mask0_4067_1255)">
<path d="M17.5429 13.7569L14.2545 17.8594L15.2092 14.9491L13.3086 14.9404L16.5404 10.8843L15.5988 13.754V13.7569H17.5429Z" fill="#ED2024"/>
</g>
<path fill-rule="evenodd" clip-rule="evenodd" d="M13.7455 6.49971C17.1038 6.49971 19.8263 9.22527 19.8263 12.5836C19.8263 13.6457 19.5568 14.6419 19.0807 15.5098C19.2936 14.8863 19.4095 14.2159 19.4095 13.5204C19.4095 10.1401 16.6683 7.39886 13.288 7.39886C11.1327 7.39886 9.23737 8.51414 8.14715 10.1996C9.07441 8.02538 11.2298 6.49971 13.7455 6.49971ZM13.1785 6.32747C15.3714 5.44396 17.9748 5.89187 19.7511 7.67134C22.1258 10.0461 22.1258 13.8963 19.7511 16.2741C19.0023 17.0229 18.1064 17.5367 17.154 17.8123C17.7461 17.5241 18.3006 17.1325 18.7924 16.6407C21.1828 14.2504 21.1828 10.375 18.7924 7.98468C17.2699 6.459 15.1396 5.90766 13.1785 6.32747ZM14.1935 18.088C14.2028 18.0942 14.2122 18.0974 14.2216 18.1006C14.2342 18.1037 14.2436 18.1068 14.2529 18.11C14.2623 18.1131 14.2717 18.1163 14.2811 18.1193C14.2906 18.1225 14.3 18.1257 14.3124 18.1287C14.3219 18.1319 14.3313 18.1351 14.3407 18.1381C14.3501 18.1413 14.3595 18.1444 14.372 18.1476C14.3814 18.1507 14.3908 18.1507 14.4002 18.1538C14.4096 18.157 14.4191 18.16 14.4315 18.1632C14.4409 18.1664 14.4503 18.1694 14.4598 18.1726C14.4692 18.1758 14.4786 18.1788 14.4911 18.182C14.5005 18.1852 14.5099 18.1883 14.5193 18.1883C14.5287 18.1914 14.538 18.1945 14.5506 18.1977C14.56 18.2009 14.5694 18.2039 14.5788 18.2071C14.5883 18.2071 14.6007 18.2103 14.6101 18.2133C14.6195 18.2165 14.629 18.2195 14.6414 18.2227C14.6508 18.2227 14.6603 18.2259 14.6697 18.229C14.6791 18.2322 14.6915 18.2352 14.701 18.2352C14.7104 18.2384 14.7198 18.2416 14.7322 18.2446C14.7417 18.2446 14.7511 18.2478 14.7605 18.251C14.773 18.254 14.7824 18.254 14.7918 18.2572C14.8012 18.2604 14.8138 18.2634 14.8231 18.2634C14.8325 18.2666 14.8419 18.2697 14.8545 18.2729C14.8639 18.2729 14.8732 18.276 14.8826 18.2791C14.8952 18.2791 14.9046 18.2823 14.914 18.2855C14.9235 18.2855 14.9359 18.2885 14.9453 18.2917C14.9548 18.2917 14.9672 18.2947 14.9766 18.2979C14.986 18.2979 14.9955 18.3011 15.0079 18.3041C15.0173 18.3041 15.0267 18.3073 15.0394 18.3073C15.0488 18.3105 15.058 18.3136 15.0675 18.3136C15.0801 18.3168 15.0895 18.3168 15.0989 18.3198C15.1113 18.3198 15.1208 18.323 15.1302 18.3262C15.1426 18.3262 15.1521 18.3292 15.1615 18.3292C15.1741 18.3324 15.1833 18.3324 15.1928 18.3356C15.2022 18.3356 15.2148 18.3386 15.2242 18.3386C15.2336 18.3418 15.2461 18.3418 15.2555 18.345C15.2649 18.345 15.2774 18.348 15.2868 18.348C15.2962 18.3512 15.3088 18.3512 15.3181 18.3543C15.3307 18.3543 15.3401 18.3575 15.3495 18.3575C15.362 18.3575 15.3714 18.3606 15.3808 18.3606C15.3934 18.3637 15.4027 18.3637 15.4121 18.3669C15.4247 18.3669 15.4341 18.3669 15.4434 18.3701C15.456 18.3701 15.4654 18.3731 15.4778 18.3731C15.4873 18.3731 15.4967 18.3763 15.5093 18.3763C15.5186 18.3763 15.528 18.3793 15.5406 18.3793C15.55 18.3793 15.5624 18.3825 15.5719 18.3825C15.5813 18.3825 15.5939 18.3857 15.6032 18.3857C15.6158 18.3857 15.6252 18.3887 15.6346 18.3887C15.647 18.3887 15.6565 18.3887 15.6659 18.3919H15.7004C15.7098 18.395 15.7222 18.395 15.7316 18.395C15.7411 18.395 15.7535 18.3982 15.7629 18.3982H15.7944C15.8068 18.4013 15.8162 18.4013 15.8287 18.4013C15.8381 18.4013 15.8507 18.4013 15.8601 18.4044H15.9259C15.9353 18.4044 15.9447 18.4076 15.9572 18.4076H16.0544C16.0637 18.4076 16.0763 18.4108 16.0857 18.4108H16.1515C19.5318 18.4108 22.273 15.6696 22.273 12.2892V12.1858C22.273 12.1545 22.2698 12.12 22.2698 12.0855C22.2698 12.0543 22.2668 12.0198 22.2668 11.9853C22.2636 11.954 22.2636 11.9195 22.2605 11.8881C22.2573 11.8536 22.2573 11.8223 22.2542 11.7879C22.2511 11.7535 22.2479 11.7221 22.2447 11.6876C22.2417 11.6563 22.2385 11.625 22.2355 11.5906C22.2291 11.5593 22.2261 11.5248 22.2229 11.4935C22.2166 11.4621 22.2135 11.4276 22.2072 11.3963C22.204 11.3618 22.1978 11.3305 22.1946 11.2992C22.1884 11.2678 22.1822 11.2333 22.1759 11.202C22.1727 11.1708 22.1665 11.1395 22.1603 11.108C22.1539 11.0737 22.1477 11.0423 22.1415 11.011C22.132 10.9797 22.1258 10.9484 22.1194 10.917C22.1132 10.8857 22.1038 10.8544 22.0976 10.8229C22.0881 10.7917 22.0819 10.7604 22.0725 10.7291C22.0663 10.6976 22.0569 10.6663 22.0474 10.6351C22.038 10.6038 22.0286 10.5723 22.0224 10.5442C22.013 10.5128 22.0036 10.4815 21.9941 10.4502C21.9847 10.422 21.9723 10.3907 21.9628 10.3594C21.9534 10.3311 21.944 10.2998 21.9316 10.2686C21.9221 10.2403 21.9127 10.209 21.9003 10.1808C21.8908 10.1495 21.8782 10.1212 21.8658 10.0899C21.8564 10.0617 21.8438 10.0304 21.8313 10.0022C21.8187 9.97087 21.8093 9.94262 21.7968 9.91452C21.7842 9.88323 21.7718 9.85498 21.7592 9.82673C21.7467 9.79863 21.7311 9.76719 21.7185 9.73909C21.706 9.71084 21.6934 9.68259 21.6778 9.65449C21.6653 9.62624 21.6527 9.59814 21.6371 9.56989C21.6244 9.54164 21.6088 9.51354 21.5963 9.48529C21.5807 9.45705 21.5649 9.42894 21.5493 9.40069C21.5368 9.37245 21.5212 9.34434 21.5055 9.31928C21.4897 9.29103 21.4741 9.26293 21.4584 9.23468C21.4428 9.20962 21.4271 9.18137 21.4115 9.15327C21.3959 9.12821 21.3802 9.09996 21.3614 9.0749C21.3457 9.04665 21.3299 9.02159 21.3113 8.99349C21.2956 8.96843 21.28 8.94337 21.2611 8.91512C21.2423 8.89006 21.2267 8.865 21.2078 8.83675C21.1922 8.81169 21.1734 8.78663 21.1545 8.76157C21.1358 8.73346 21.1202 8.7084 21.1014 8.68334C21.0825 8.65828 21.0637 8.63322 21.045 8.60816C21.0262 8.58295 21.0073 8.55804 20.9885 8.53298C20.9698 8.51096 20.9478 8.4859 20.929 8.46084C20.9103 8.43577 20.8915 8.41071 20.8694 8.38884C20.8507 8.36378 20.8287 8.33872 20.81 8.3167C20.788 8.29164 20.7692 8.26976 20.7473 8.2447C20.7285 8.22283 20.7066 8.19762 20.6846 8.17575C20.6659 8.15387 20.6439 8.12881 20.622 8.1068C20.6001 8.08492 20.5781 8.06305 20.5593 8.03799C20.5374 8.01597 20.5155 7.99409 20.4935 7.97207C20.4716 7.9502 20.4496 7.92833 20.4247 7.90631L20.3588 7.84054C20.3369 7.81867 20.3119 7.79983 20.2898 7.77796C20.268 7.75594 20.2429 7.73407 20.221 7.71523C20.196 7.69336 20.174 7.67453 20.1489 7.65265C20.127 7.63382 20.102 7.6118 20.0801 7.59312C20.055 7.5711 20.03 7.55227 20.0049 7.53358C19.9829 7.51156 19.9578 7.49287 19.9328 7.47404C19.9077 7.45521 19.8826 7.43638 19.8576 7.41769L19.7824 7.36119C19.7573 7.34251 19.7323 7.32368 19.7072 7.30484C19.6822 7.28601 19.6571 7.27037 19.632 7.25154C19.6038 7.23285 19.5787 7.21706 19.5537 7.19837C19.5286 7.17954 19.5005 7.16389 19.4754 7.14506C19.5099 7.16071 19.5412 7.17635 19.5757 7.192C19.6102 7.2046 19.6445 7.22024 19.6759 7.23589C19.7104 7.25153 19.7417 7.26718 19.7762 7.28601C19.8075 7.30166 19.8419 7.3173 19.8732 7.33613C19.9077 7.35178 19.939 7.36757 19.9704 7.38626C20.0049 7.40509 20.0362 7.42073 20.0675 7.43956C20.0988 7.4584 20.1332 7.47404 20.1647 7.49287C20.196 7.51156 20.2273 7.53039 20.2586 7.54922C20.2898 7.56806 20.3213 7.58993 20.3494 7.60876C20.3808 7.62745 20.4121 7.64947 20.4434 7.6683C20.4716 7.68699 20.5029 7.70901 20.5342 7.73088C20.5625 7.74971 20.5938 7.77159 20.622 7.7936C20.6533 7.81229 20.6815 7.83431 20.7128 7.85618C20.7411 7.8782 20.7692 7.90008 20.7974 7.92195C20.8287 7.94397 20.857 7.96903 20.8852 7.99091C20.9133 8.01292 20.9416 8.0348 20.9698 8.05986C20.9979 8.08173 21.0262 8.1068 21.0543 8.12881C21.0793 8.15388 21.1076 8.17894 21.1358 8.20081C21.1609 8.22587 21.189 8.25093 21.2172 8.27599C21.2423 8.30105 21.2706 8.32611 21.2956 8.35118C21.3207 8.37624 21.3488 8.4013 21.3738 8.42636C21.3989 8.45142 21.424 8.47648 21.449 8.50473C21.4773 8.52979 21.5023 8.55485 21.5242 8.58295C21.5493 8.60816 21.5743 8.63626 21.5994 8.66132C21.6244 8.68957 21.6495 8.71782 21.6715 8.74592C21.6966 8.77098 21.7185 8.79923 21.7435 8.82733C21.7655 8.85558 21.7906 8.88383 21.8125 8.91193C21.8375 8.94018 21.8594 8.96843 21.8814 8.99653C21.9033 9.02478 21.9253 9.05607 21.9472 9.08432C21.9691 9.11242 21.9911 9.14067 22.013 9.17196C22.0348 9.20021 22.0569 9.2315 22.0757 9.25974C22.0976 9.29103 22.1194 9.31928 22.1383 9.35057C22.1603 9.38186 22.179 9.4133 22.1978 9.4414C22.2197 9.47269 22.2385 9.50412 22.2573 9.53541C22.2762 9.5667 22.2949 9.59814 22.3137 9.62943C22.3325 9.66072 22.3514 9.69201 22.37 9.72344C22.3889 9.75473 22.4077 9.78602 22.4234 9.8205C22.4422 9.85179 22.4578 9.88323 22.4767 9.91756C22.4923 9.94899 22.5111 9.98028 22.5268 10.0148C22.5424 10.0461 22.5581 10.0805 22.5737 10.1118C22.5926 10.1463 22.6082 10.1808 22.6208 10.2121C22.6364 10.2465 22.6521 10.281 22.6677 10.3155C22.6834 10.3468 22.696 10.3813 22.7116 10.4157C22.7241 10.4502 22.7397 10.4847 22.7523 10.5192C22.7648 10.5536 22.7806 10.588 22.793 10.6225C22.8056 10.6569 22.8181 10.6914 22.8307 10.7291C22.8432 10.7635 22.8526 10.7979 22.865 10.8324C22.8776 10.87 22.8902 10.9045 22.8995 10.939C22.9121 10.9765 22.9215 11.011 22.931 11.0486C22.9434 11.083 22.9528 11.1174 22.9622 11.1551C22.9717 11.1926 22.9811 11.2271 22.9905 11.2648C22.9998 11.2992 23.0092 11.3368 23.0154 11.3744C23.0248 11.4119 23.0342 11.4464 23.0406 11.4841C23.0499 11.5216 23.0563 11.5593 23.0625 11.5968C23.0719 11.6313 23.0781 11.6689 23.0844 11.7064C23.0907 11.7441 23.097 11.7816 23.1032 11.8193C23.1094 11.8568 23.1126 11.8945 23.1188 11.932C23.122 11.9727 23.1283 12.0104 23.1314 12.0479C23.1377 12.0855 23.1409 12.1231 23.1439 12.1607C23.1471 12.2014 23.1501 12.2391 23.1533 12.2766C23.1565 12.3143 23.1595 12.355 23.1627 12.3925C23.1627 12.4332 23.1659 12.4709 23.169 12.5084C23.169 12.5492 23.169 12.5868 23.1721 12.6275V12.7434C23.1721 12.7967 23.1721 12.85 23.169 12.9001C23.169 12.9533 23.1659 13.0066 23.1627 13.0567C23.1627 13.11 23.1595 13.1601 23.1533 13.2133C23.1501 13.2634 23.1471 13.3135 23.1409 13.3668C23.1345 13.417 23.1283 13.4671 23.122 13.5172C23.1158 13.5705 23.1094 13.6206 23.1032 13.6708C23.0938 13.7209 23.0844 13.771 23.0781 13.8211C23.0687 13.8713 23.0593 13.9214 23.0468 13.9715C23.0374 14.0184 23.028 14.0686 23.0154 14.1187C23.0061 14.1658 22.9935 14.2159 22.9811 14.2628C22.9685 14.3129 22.956 14.36 22.9402 14.4101C22.9278 14.4571 22.9121 14.504 22.8995 14.5541C22.8839 14.6012 22.8682 14.6481 22.8526 14.6952C22.8369 14.7422 22.8213 14.7891 22.8025 14.8362C22.7868 14.8831 22.768 14.927 22.7492 14.9739C22.7305 15.021 22.7116 15.0649 22.6928 15.1118C22.674 15.1588 22.6553 15.2027 22.6333 15.2466C22.6144 15.2935 22.5926 15.3374 22.5707 15.3813C22.5518 15.4252 22.5298 15.4689 22.5048 15.5128C22.4829 15.5567 22.461 15.6006 22.439 15.6445C22.4139 15.6882 22.3889 15.729 22.367 15.7728C22.3419 15.8135 22.3169 15.8574 22.2918 15.8981C22.2668 15.9389 22.2385 15.9827 22.2135 16.0235C22.1884 16.0642 22.1603 16.105 22.132 16.1457C22.107 16.1864 22.0787 16.2271 22.0506 16.2648C22.0224 16.3055 21.9911 16.3462 21.9628 16.3837C21.9346 16.4214 21.9033 16.4621 21.8751 16.4998C21.8438 16.5373 21.8125 16.5749 21.7842 16.6125C21.7529 16.6501 21.7217 16.6876 21.6872 16.7253C21.6559 16.7628 21.6244 16.7973 21.59 16.835C21.5587 16.8693 21.5242 16.907 21.4929 16.9414C21.4584 16.9759 21.424 17.0104 21.3895 17.0447C21.3552 17.0792 21.3207 17.1137 21.2862 17.1482C21.2517 17.1826 21.2141 17.2139 21.1796 17.2484C21.1421 17.2797 21.1076 17.3111 21.0701 17.3424C21.0324 17.3769 20.9947 17.4082 20.9572 17.4395C20.9196 17.4677 20.882 17.499 20.8444 17.5304C20.8069 17.5585 20.7661 17.5898 20.7285 17.6181C20.6878 17.6494 20.6503 17.6776 20.6094 17.7059C20.5719 17.734 20.5312 17.7622 20.4905 17.7873C20.4496 17.8155 20.4089 17.8436 20.3682 17.8687C20.3275 17.8969 20.2836 17.922 20.2429 17.9471C20.2022 17.9721 20.1583 17.9972 20.1176 18.0222C20.0737 18.0473 20.03 18.0692 19.9891 18.0942C19.9454 18.1163 19.9015 18.1381 19.8576 18.1632L19.726 18.229C19.6822 18.2478 19.6383 18.2697 19.5913 18.2885C19.5474 18.3105 19.5005 18.3292 19.4566 18.348C19.4095 18.3701 19.3658 18.3887 19.3187 18.4044C19.2718 18.4232 19.2279 18.4421 19.1809 18.4577C19.1339 18.4765 19.0869 18.4922 19.04 18.5078C18.9929 18.5235 18.946 18.5391 18.8989 18.5548C18.8488 18.5674 18.8018 18.583 18.7549 18.5956C18.7048 18.6113 18.6577 18.6237 18.6076 18.6363C18.5606 18.6488 18.5105 18.6614 18.4634 18.6708C18.4133 18.6832 18.3632 18.6927 18.3131 18.7051C18.2661 18.7145 18.216 18.724 18.1659 18.7334C18.1158 18.7428 18.0656 18.749 18.0155 18.7584C17.9654 18.7647 17.9153 18.771 17.862 18.7773C17.8118 18.7835 17.7617 18.7897 17.7116 18.7961C17.6583 18.8023 17.6082 18.8055 17.555 18.8086C17.5049 18.8148 17.4548 18.818 17.4015 18.818C17.3481 18.8212 17.298 18.8242 17.2449 18.8242C17.1947 18.8274 17.1414 18.8274 17.0881 18.8274H16.9879C16.9722 18.8274 16.9566 18.8274 16.9409 18.8242H16.8908C16.8752 18.8242 16.8563 18.8242 16.8407 18.8212H16.7906C16.7749 18.8212 16.7593 18.818 16.7435 18.818C16.7279 18.818 16.709 18.8148 16.6934 18.8148C16.6777 18.8148 16.6621 18.8117 16.6464 18.8117C16.6276 18.8117 16.612 18.8086 16.5963 18.8086C16.5807 18.8055 16.565 18.8055 16.5494 18.8023C16.5306 18.8023 16.5149 18.8023 16.4993 18.7991C16.4835 18.7991 16.4678 18.7961 16.4522 18.7929C16.4334 18.7929 16.4177 18.7897 16.4021 18.7897C16.3864 18.7867 16.3708 18.7867 16.3551 18.7835C16.3395 18.7804 16.3237 18.7805 16.305 18.7773C16.2894 18.7741 16.2737 18.7741 16.2579 18.771C16.2423 18.7678 16.2266 18.7678 16.211 18.7647C16.1953 18.7616 16.1797 18.7584 16.1641 18.7584C16.1483 18.7554 16.1326 18.7522 16.1139 18.749C16.0981 18.746 16.0825 18.746 16.0669 18.7428L16.0199 18.7334C16.0043 18.7303 15.9885 18.7271 15.9728 18.724C15.9572 18.724 15.9415 18.7209 15.9259 18.7177L15.879 18.7083C15.8632 18.7051 15.8475 18.7021 15.8319 18.6989C15.8162 18.6959 15.8006 18.6895 15.785 18.6864C15.7693 18.6832 15.7535 18.6802 15.7379 18.677C15.7222 18.6738 15.7098 18.6708 15.6941 18.6676C15.6783 18.6614 15.6627 18.6582 15.647 18.655C15.6314 18.652 15.6158 18.6488 15.6001 18.6425C15.5845 18.6394 15.5688 18.6363 15.553 18.6331C15.5406 18.6269 15.5249 18.6237 15.5093 18.6207C15.4935 18.6175 15.4778 18.6113 15.4622 18.6081C15.4466 18.605 15.4309 18.5986 15.4183 18.5956C15.4027 18.5892 15.387 18.5862 15.3714 18.583C15.3557 18.5768 15.3401 18.5736 15.3275 18.5674C15.3118 18.5642 15.2962 18.5579 15.2805 18.5548C15.2649 18.5485 15.2523 18.5455 15.2367 18.5391C15.221 18.5361 15.2054 18.5297 15.1928 18.5267C15.1771 18.5204 15.1615 18.5172 15.1458 18.511C15.1332 18.5046 15.1176 18.5016 15.1019 18.4954C15.0863 18.489 15.0738 18.4859 15.058 18.4796C15.0424 18.4733 15.0299 18.4702 15.0143 18.4639C14.9986 18.4577 14.9829 18.4545 14.9704 18.4483C14.9548 18.4421 14.9391 18.4358 14.9265 18.4326C14.9109 18.4264 14.8952 18.4202 14.8826 18.4138C14.867 18.4076 14.8513 18.4044 14.8389 18.3982C14.8231 18.3919 14.8106 18.3857 14.795 18.3793C14.7793 18.3731 14.7667 18.3669 14.7511 18.3637C14.7386 18.3575 14.7228 18.3512 14.7072 18.345C14.6947 18.3386 14.6791 18.3324 14.6665 18.3262C14.6508 18.3198 14.6382 18.3136 14.6226 18.3073C14.6101 18.3011 14.5945 18.2947 14.5819 18.2885C14.5662 18.2823 14.5506 18.276 14.538 18.2697C14.5223 18.2604 14.5099 18.254 14.4942 18.2478C14.4816 18.2416 14.4692 18.2352 14.4535 18.229C14.4409 18.2227 14.4253 18.2165 14.4127 18.2071C14.397 18.2009 14.3846 18.1945 14.3689 18.1883C14.3563 18.182 14.3439 18.1726 14.3281 18.1664C14.3156 18.16 14.3 18.1538 14.2874 18.1444C14.2749 18.1381 14.2593 18.1319 14.2467 18.1225C14.231 18.1163 14.2186 18.11 14.206 18.1006C14.1903 18.0942 14.1777 18.088 14.1653 18.0786C14.1747 18.0818 14.1841 18.0848 14.1935 18.088ZM13.0343 17.7935C15.4247 20.1839 19.3 20.1839 21.6904 17.7935C23.2129 16.2678 23.7674 14.1407 23.3476 12.1796C24.2279 14.3725 23.7798 16.9727 22.0035 18.7522C19.6288 21.1269 15.7755 21.1269 13.4008 18.7522C12.649 18.0004 12.1384 17.1043 11.8595 16.1551C12.1508 16.7472 12.5424 17.3017 13.0343 17.7935ZM11.5933 13.1632C11.3802 13.7867 11.2643 14.4571 11.2643 15.1525C11.2643 18.5329 14.0055 21.2741 17.3858 21.2741C19.5412 21.2741 21.4366 20.1588 22.5268 18.4733C21.5994 20.6476 19.441 22.1732 16.9283 22.1732C13.57 22.1732 10.8445 19.4477 10.8445 16.0892C10.8445 15.0272 11.1169 14.031 11.5933 13.1632ZM10.9228 12.3989C11.6715 11.6501 12.5674 11.1363 13.5199 10.8606C12.9277 11.1519 12.3733 11.5404 11.8814 12.0322C9.48798 14.4226 9.48798 18.2979 11.8814 20.6915C13.404 22.2139 15.5312 22.7653 17.4955 22.3455C15.3024 23.229 12.6991 22.7809 10.9228 21.0016C8.54813 18.6269 8.54813 14.7766 10.9228 12.3989ZM13.5857 9.84556C14.6446 9.84556 15.6408 10.118 16.5087 10.5943C15.8852 10.3782 15.2178 10.2622 14.5223 10.2622C11.142 10.2622 8.4008 13.0034 8.4008 16.3837C8.4008 18.5391 9.51304 20.4345 11.1985 21.5279C9.02428 20.5974 7.50179 18.4421 7.50179 15.9294C7.50179 12.5679 10.2242 9.84556 13.5857 9.84556ZM8.67024 9.92074C11.045 7.54604 14.8983 7.54604 17.273 9.92074C18.0218 10.6726 18.5356 11.5687 18.8112 12.5178C18.523 11.9258 18.1314 11.3712 17.6396 10.8794C15.2493 8.48908 11.3739 8.48908 8.98358 10.8794C7.4579 12.4051 6.90641 14.5323 7.32622 16.4934C6.4459 14.3005 6.89396 11.7002 8.67024 9.92074Z" fill="#00A45F"/>
<path d="M17.1916 25.7672L21.1815 30.3279C21.4793 30.6686 22.0194 30.6324 22.2687 30.2547C25.5292 25.3126 28.7148 19.2363 28.7148 14.3575C28.7148 6.97972 22.7335 1 15.3575 1C7.98132 1 2 6.97972 2 14.3575C2 21.8021 9.41892 32.0379 13.1994 36.77L18.055 30.5328C18.2565 30.274 18.246 29.9086 18.0299 29.6616L13.8844 24.9225C13.464 24.442 12.915 24.0968 12.3067 23.9027C8.15978 22.5784 5.18666 18.6274 5.34499 14.0056C5.52244 8.82482 9.70545 4.58835 14.8837 4.34991C20.632 4.08525 25.3759 8.66576 25.3759 14.3575C25.3759 19.075 22.1154 23.0312 17.7241 24.0939C16.9741 24.2754 16.6836 25.1863 17.1916 25.7672ZM18.6741 31.261L13.8034 37.5177C14.2224 38.0319 14.5739 38.4509 14.8361 38.7588C15.1096 39.0799 15.6041 39.0807 15.8777 38.7595C16.6511 37.8511 18.2043 35.9754 19.9715 33.5578C20.1608 33.2988 20.1462 32.9427 19.935 32.7014L18.6741 31.261Z" fill="#00A45F"/>
</svg>
