<svg width="24" height="24" viewBox="0 0 24 24" fill="none" xmlns="http://www.w3.org/2000/svg">
<rect width="24" height="24" rx="12" fill="#00A45F" fill-opacity="0.07"/>
<path d="M11.5026 9.23426C10.8787 9.40487 10.5026 9.88363 10.5026 10.3359C10.5026 10.7882 10.8787 11.267 11.5026 11.4376V9.23426Z" fill="#65D090"/>
<path d="M12.5026 12.5676V14.771C13.1265 14.6003 13.5026 14.1216 13.5026 13.6693C13.5026 13.217 13.1265 12.7382 12.5026 12.5676Z" fill="#65D090"/>
<path fill-rule="evenodd" clip-rule="evenodd" d="M18.6693 12.0026C18.6693 15.6845 15.6845 18.6693 12.0026 18.6693C8.32071 18.6693 5.33594 15.6845 5.33594 12.0026C5.33594 8.32071 8.32071 5.33594 12.0026 5.33594C15.6845 5.33594 18.6693 8.32071 18.6693 12.0026ZM12.0026 7.5026C12.2787 7.5026 12.5026 7.72646 12.5026 8.0026V8.21376C13.5896 8.40838 14.5026 9.22501 14.5026 10.3359C14.5026 10.6121 14.2787 10.8359 14.0026 10.8359C13.7265 10.8359 13.5026 10.6121 13.5026 10.3359C13.5026 9.88363 13.1265 9.40487 12.5026 9.23426V11.5471C13.5896 11.7417 14.5026 12.5583 14.5026 13.6693C14.5026 14.7802 13.5896 15.5968 12.5026 15.7914V16.0026C12.5026 16.2787 12.2787 16.5026 12.0026 16.5026C11.7265 16.5026 11.5026 16.2787 11.5026 16.0026V15.7914C10.4157 15.5968 9.5026 14.7802 9.5026 13.6693C9.5026 13.3931 9.72646 13.1693 10.0026 13.1693C10.2787 13.1693 10.5026 13.3931 10.5026 13.6693C10.5026 14.1216 10.8787 14.6003 11.5026 14.771V12.4581C10.4157 12.2635 9.5026 11.4469 9.5026 10.3359C9.5026 9.22501 10.4157 8.40838 11.5026 8.21376V8.0026C11.5026 7.72646 11.7265 7.5026 12.0026 7.5026Z" fill="#65D090"/>
</svg>
