<svg width="24" height="24" viewBox="0 0 24 24" fill="none" xmlns="http://www.w3.org/2000/svg">
<rect width="24" height="24" rx="12" fill="#00A45F" fill-opacity="0.07"/>
<path fill-rule="evenodd" clip-rule="evenodd" d="M18.0699 9.33569C18.0321 9.3333 17.991 9.33332 17.9483 9.33334L17.9377 9.33334H16.2653C14.8869 9.33334 13.7074 10.4184 13.7074 11.8333C13.7074 13.2483 14.8869 14.3333 16.2653 14.3333H17.9377L17.9483 14.3333C17.991 14.3334 18.0321 14.3334 18.0699 14.331C18.6298 14.2956 19.1249 13.8575 19.1666 13.2455C19.1693 13.2053 19.1693 13.1621 19.1693 13.122L19.1693 13.1111V10.5556L19.1693 10.5447C19.1693 10.5046 19.1693 10.4613 19.1666 10.4212C19.1249 9.8092 18.6298 9.37105 18.0699 9.33569ZM16.1171 12.5C16.4719 12.5 16.7596 12.2015 16.7596 11.8333C16.7596 11.4651 16.4719 11.1667 16.1171 11.1667C15.7622 11.1667 15.4745 11.4651 15.4745 11.8333C15.4745 12.2015 15.7622 12.5 16.1171 12.5Z" fill="#65D090"/>
<path fill-rule="evenodd" clip-rule="evenodd" d="M17.9479 15.3333C18.0473 15.3308 18.1225 15.4228 18.0955 15.5185C17.9617 15.9935 17.7493 16.3983 17.4084 16.7392C16.9095 17.2381 16.2769 17.4595 15.4953 17.5646C14.7358 17.6667 13.7654 17.6667 12.5402 17.6667H11.1317C9.90649 17.6667 8.93607 17.6667 8.17659 17.5646C7.39497 17.4595 6.76234 17.2381 6.26343 16.7392C5.76452 16.2403 5.54311 15.6076 5.43803 14.826C5.33592 14.0665 5.33593 13.0961 5.33594 11.8709V11.7957C5.33593 10.5706 5.33592 9.60013 5.43803 8.84065C5.54311 8.05904 5.76452 7.4264 6.26343 6.9275C6.76234 6.42859 7.39497 6.20718 8.17659 6.10209C8.93607 5.99998 9.90649 5.99999 11.1317 6L12.5402 6C13.7654 5.99999 14.7358 5.99998 15.4953 6.10209C16.2769 6.20718 16.9095 6.42859 17.4084 6.9275C17.7493 7.26835 17.9617 7.67316 18.0955 8.14812C18.1225 8.24384 18.0473 8.33591 17.9479 8.33334L16.2653 8.33334C14.3742 8.33334 12.7074 9.82727 12.7074 11.8333C12.7074 13.8394 14.3742 15.3333 16.2653 15.3333L17.9479 15.3333ZM7.83594 8.66667C7.5598 8.66667 7.33594 8.89052 7.33594 9.16667C7.33594 9.44281 7.5598 9.66667 7.83594 9.66667H10.5026C10.7787 9.66667 11.0026 9.44281 11.0026 9.16667C11.0026 8.89052 10.7787 8.66667 10.5026 8.66667H7.83594Z" fill="#65D090"/>
</svg>
