<svg width="28" height="28" viewBox="0 0 28 28" fill="none" xmlns="http://www.w3.org/2000/svg">
<path d="M23.5267 17.8203C23.0506 17.8203 22.5744 18.1782 22.5744 18.7749V21.1612C22.5744 21.9964 21.86 22.593 21.1458 22.593H18.7649C18.2886 22.593 17.8125 22.951 17.8125 23.5476C17.8125 24.1441 18.1696 24.5022 18.7649 24.5022H21.1458C22.9315 24.5022 24.4791 23.0703 24.4791 21.1612V18.7749C24.4791 18.2976 24.003 17.8203 23.5267 17.8203Z" fill="currentColor"/>
<path d="M18.7649 5.4091H21.1458C21.9791 5.4091 22.5744 6.125 22.5744 6.84091V9.22727C22.5744 9.70454 22.9316 10.1818 23.5268 10.1818C24.1221 10.1818 24.4792 9.82387 24.4792 9.22727V6.84091C24.4792 5.05114 23.0506 3.5 21.1458 3.5H18.7649C18.2887 3.5 17.8125 3.85796 17.8125 4.45454C17.8125 5.05114 18.2887 5.4091 18.7649 5.4091Z" fill="currentColor"/>
<path d="M9.23771 22.593H6.85677C6.02343 22.593 5.4282 21.8772 5.4282 21.1612V18.7749C5.4282 18.2976 5.07106 17.8203 4.47581 17.8203C3.88058 17.8203 3.52344 18.2976 3.52344 18.7749V21.1612C3.52344 22.951 4.95201 24.5022 6.85677 24.5022H9.23771C9.71391 24.5022 10.1901 24.1441 10.1901 23.5476C10.1901 22.951 9.71391 22.593 9.23771 22.593Z" fill="currentColor"/>
<path d="M4.47581 10.1818C4.95201 10.1818 5.4282 9.82387 5.4282 9.22727V6.84091C5.4282 6.00568 6.14249 5.4091 6.85677 5.4091H9.23772C9.71391 5.4091 10.1901 5.05114 10.1901 4.45454C10.1901 3.85796 9.71391 3.5 9.23772 3.5H6.85677C5.07106 3.5 3.52344 5.05114 3.52344 6.84091V9.22727C3.52344 9.70454 3.99962 10.1818 4.47581 10.1818Z" fill="currentColor"/>
<path d="M18.7641 21.159C20.0737 21.159 21.1451 20.0852 21.1451 18.7727V16.625H6.85938V18.7727C6.85938 20.0852 7.93081 21.159 9.24033 21.159H18.7641Z" fill="currentColor"/>
<path d="M24.7169 13.0482H21.1455V9.23011C21.1455 7.91761 20.0741 6.84375 18.7645 6.84375H9.2407C7.93118 6.84375 6.85975 7.91761 6.85975 9.23011V13.2869H3.28832C2.81212 13.2869 2.33594 13.6448 2.33594 14.2415C2.33594 14.838 2.69308 15.1959 3.28832 15.1959H24.7169C25.193 15.1959 25.6693 14.838 25.6693 14.2415C25.6693 13.6448 25.193 13.0482 24.7169 13.0482Z" fill="currentColor"/>
</svg>
