<svg width="24" height="24" viewBox="0 0 24 24" fill="none" xmlns="http://www.w3.org/2000/svg">
<path d="M10.0558 18.088C10.0013 18.3938 10.2052 18.6859 10.511 18.7403L15.165 19.5687C15.6427 19.6544 16.1258 19.5696 16.5437 19.3294L22.3733 16.4408C22.953 16.154 23.3585 16.5421 23.5067 16.8167C23.7014 17.1772 23.7054 17.682 23.133 18.0177L15.3928 22.5611C14.2247 23.2457 12.9927 23.4069 11.2732 23.1001L4.75322 21.9385V15.9956L7.79719 15.4376C8.33728 15.3394 8.826 15.411 9.45684 15.5228L15.6885 16.6339C16.1921 16.7235 16.529 17.2064 16.4393 17.7106C16.3962 17.9535 16.2598 18.1657 16.0552 18.3083C16.0389 18.3196 16.0224 18.3305 16.0056 18.3407C15.9914 18.3481 15.9776 18.356 15.9644 18.3644C15.7803 18.4642 15.5706 18.4986 15.3629 18.4613L10.708 17.6328C10.4021 17.5783 10.1101 17.7822 10.0557 18.088H10.0558ZM0.375 15.2648V22.6716C0.375 23.012 0.651328 23.289 0.990937 23.289H3.01097C3.35138 23.289 3.62836 23.0121 3.62836 22.6716V15.2648C3.62836 14.9252 3.35142 14.6489 3.01097 14.6489H0.990937C0.651328 14.6489 0.375 14.9252 0.375 15.2648ZM11.9987 5.00859C10.8239 5.00859 9.86803 5.96442 9.86803 7.1393C9.86803 8.31417 10.8239 9.27136 11.9987 9.27136C13.1736 9.27136 14.1308 8.31492 14.1308 7.1393C14.1308 5.96367 13.1744 5.00859 11.9987 5.00859ZM18.4245 6.38597V7.89398C18.4245 8.08931 18.3232 8.27067 18.1568 8.37305L17.4934 8.78123L17.0445 9.86353L17.2253 10.6214C17.2707 10.8114 17.2142 11.0113 17.0762 11.1495L16.0107 12.2164C15.8726 12.3547 15.6727 12.4115 15.4823 12.366L14.723 12.1851L13.6406 12.634L13.2325 13.2974C13.1301 13.4638 12.9487 13.5652 12.7534 13.5652H11.2454C11.0501 13.5652 10.8687 13.4638 10.7663 13.2974L10.3582 12.6341L9.27464 12.1851L8.51672 12.366C8.3265 12.4113 8.12634 12.3547 7.98816 12.2164L6.92259 11.1495C6.78478 11.0115 6.7283 10.8119 6.7733 10.6222L6.9532 9.86367L6.50517 8.78109L5.84198 8.37305C5.67562 8.27072 5.57428 8.08936 5.57428 7.89398V6.38597C5.57428 6.19087 5.67539 6.0097 5.84142 5.90728L6.50503 5.49787L6.9532 4.41497L6.7733 3.65648C6.72825 3.46659 6.78487 3.26695 6.92283 3.12895L7.98839 2.06339C8.12639 1.92544 8.32598 1.86877 8.51592 1.91386L9.2745 2.09381L10.3583 1.64569L10.7663 0.982594C10.8687 0.816187 11.05 0.714844 11.2454 0.714844H12.7534C12.9487 0.714844 13.1301 0.816187 13.2324 0.982594L13.6405 1.64578L14.7231 2.09381L15.483 1.91381C15.6728 1.86886 15.8724 1.92544 16.0104 2.06339L17.076 3.12895C17.2141 3.26714 17.2707 3.46716 17.2253 3.65723L17.0445 4.41511L17.4936 5.49773L18.1574 5.90723C18.3234 6.00966 18.4245 6.19087 18.4245 6.38597ZM15.2557 7.1393C15.2557 5.34412 13.7946 3.88364 11.9987 3.88364C10.2029 3.88364 8.74313 5.34412 8.74313 7.1393C8.74313 8.93447 10.2036 10.3963 11.9987 10.3963C13.7939 10.3963 15.2557 8.93517 15.2557 7.1393Z" fill="currentColor"/>
</svg>
