<svg width="300" height="300" viewBox="0 0 300 300" fill="none" xmlns="http://www.w3.org/2000/svg">
<path d="M129.826 30.2749L76.3441 68.9638L72.5513 150.893L135.136 266.58L139.688 272.27L182.549 244.239L198.404 221.443L199.997 183.513L231.479 123.204L225.41 75.0327L190.514 37.861L129.826 30.2749Z" fill="white"/>
<mask id="mask0_1097_595" style="mask-type:luminance" maskUnits="userSpaceOnUse" x="135" y="86" width="31" height="49">
<path d="M135.893 86.0312H165.459V134.734H135.893V86.0312Z" fill="white"/>
</mask>
<g mask="url(#mask0_1097_595)">
<path d="M165.459 106.089L142.498 134.734L149.164 114.413L135.893 114.353L158.459 86.0312L151.884 106.069V106.089H165.459Z" fill="#ED2024"/>
</g>
<path fill-rule="evenodd" clip-rule="evenodd" d="M139.014 55.4092C162.463 55.4092 181.472 74.44 181.472 97.8891C181.472 105.305 179.591 112.261 176.266 118.321C177.753 113.967 178.562 109.286 178.562 104.43C178.562 80.8275 159.422 61.6873 135.819 61.6873C120.771 61.6873 107.537 69.4747 99.9244 81.2432C106.399 66.0619 121.448 55.4092 139.014 55.4092ZM135.055 54.2064C150.366 48.0374 168.545 51.165 180.947 63.5899C197.528 80.1711 197.528 107.055 180.947 123.657C175.719 128.886 169.463 132.473 162.814 134.398C166.948 132.385 170.819 129.651 174.254 126.217C190.944 109.527 190.944 82.4681 174.254 65.7778C163.623 55.1248 148.748 51.2753 135.055 54.2064ZM142.142 136.323C142.207 136.366 142.273 136.389 142.338 136.411C142.426 136.432 142.492 136.454 142.557 136.477C142.623 136.498 142.688 136.52 142.754 136.541C142.82 136.564 142.886 136.586 142.973 136.607C143.038 136.629 143.104 136.652 143.17 136.673C143.236 136.695 143.301 136.717 143.388 136.739C143.454 136.761 143.52 136.761 143.586 136.782C143.651 136.804 143.717 136.826 143.804 136.848C143.87 136.87 143.935 136.891 144.001 136.914C144.067 136.936 144.133 136.957 144.22 136.979C144.286 137.002 144.351 137.023 144.417 137.023C144.483 137.045 144.548 137.066 144.636 137.089C144.701 137.111 144.767 137.132 144.833 137.154C144.898 137.154 144.985 137.177 145.051 137.198C145.117 137.22 145.183 137.241 145.27 137.263C145.335 137.263 145.401 137.286 145.467 137.307C145.533 137.329 145.62 137.351 145.686 137.351C145.751 137.373 145.817 137.395 145.904 137.416C145.97 137.416 146.035 137.439 146.101 137.461C146.188 137.482 146.254 137.482 146.32 137.504C146.385 137.527 146.473 137.548 146.538 137.548C146.604 137.57 146.669 137.591 146.758 137.614C146.823 137.614 146.888 137.636 146.954 137.657C147.042 137.657 147.108 137.679 147.173 137.702C147.239 137.702 147.326 137.723 147.392 137.745C147.457 137.745 147.544 137.766 147.61 137.789C147.676 137.789 147.742 137.811 147.829 137.832C147.894 137.832 147.96 137.854 148.048 137.854C148.114 137.877 148.179 137.898 148.245 137.898C148.332 137.92 148.398 137.92 148.464 137.941C148.551 137.941 148.617 137.964 148.682 137.986C148.769 137.986 148.835 138.007 148.901 138.007C148.989 138.029 149.054 138.029 149.119 138.051C149.185 138.051 149.273 138.073 149.339 138.073C149.405 138.095 149.492 138.095 149.557 138.117C149.623 138.117 149.71 138.139 149.776 138.139C149.842 138.161 149.93 138.161 149.994 138.182C150.082 138.182 150.148 138.204 150.214 138.204C150.301 138.204 150.366 138.226 150.432 138.226C150.52 138.248 150.585 138.248 150.651 138.27C150.739 138.27 150.804 138.27 150.869 138.292C150.957 138.292 151.023 138.313 151.11 138.313C151.176 138.313 151.241 138.336 151.329 138.336C151.394 138.336 151.46 138.357 151.548 138.357C151.614 138.357 151.701 138.379 151.766 138.379C151.832 138.379 151.92 138.402 151.985 138.402C152.073 138.402 152.139 138.423 152.204 138.423C152.291 138.423 152.357 138.423 152.423 138.445H152.664C152.729 138.466 152.816 138.466 152.882 138.466C152.948 138.466 153.035 138.488 153.101 138.488H153.32C153.407 138.511 153.473 138.511 153.56 138.511C153.626 138.511 153.713 138.511 153.779 138.532H154.239C154.304 138.532 154.37 138.554 154.457 138.554H155.136C155.2 138.554 155.288 138.577 155.354 138.577H155.813C179.416 138.577 198.556 119.436 198.556 95.8336V95.1114C198.556 94.893 198.534 94.6523 198.534 94.4116C198.534 94.193 198.513 93.9522 198.513 93.7115C198.49 93.4932 198.49 93.2524 198.469 93.033C198.447 92.7922 198.447 92.5736 198.425 92.3329C198.404 92.0933 198.381 91.8738 198.359 91.6331C198.338 91.4145 198.315 91.1961 198.294 90.9554C198.25 90.7368 198.228 90.496 198.206 90.2777C198.163 90.0582 198.14 89.8175 198.097 89.5989C198.075 89.3582 198.031 89.1398 198.009 88.9212C197.965 88.7017 197.922 88.461 197.878 88.2427C197.856 88.024 197.813 87.8057 197.769 87.586C197.725 87.3463 197.681 87.1269 197.638 86.9083C197.572 86.6899 197.529 86.4713 197.484 86.2519C197.441 86.0335 197.375 85.8149 197.331 85.5954C197.265 85.3771 197.222 85.1585 197.156 84.9401C197.113 84.7207 197.047 84.5021 196.981 84.2837C196.915 84.0651 196.85 83.8456 196.806 83.6494C196.741 83.43 196.675 83.2113 196.609 82.993C196.543 82.7957 196.456 82.5773 196.391 82.3587C196.325 82.1616 196.259 81.943 196.172 81.7247C196.106 81.5273 196.041 81.309 195.954 81.1116C195.888 80.893 195.8 80.696 195.713 80.4773C195.647 80.2803 195.559 80.0617 195.472 79.8646C195.384 79.646 195.319 79.4489 195.231 79.2527C195.144 79.0341 195.057 78.8367 194.968 78.6397C194.882 78.4434 194.772 78.224 194.684 78.0277C194.597 77.8304 194.509 77.6331 194.4 77.4368C194.313 77.2398 194.225 77.0435 194.116 76.8462C194.028 76.6491 193.919 76.4529 193.832 76.2556C193.722 76.0582 193.612 75.862 193.503 75.6649C193.416 75.4676 193.307 75.2713 193.197 75.0964C193.087 74.8991 192.978 74.7028 192.869 74.5058C192.759 74.3308 192.65 74.1335 192.541 73.9372C192.432 73.7623 192.323 73.5649 192.191 73.39C192.082 73.1929 191.971 73.0177 191.841 72.8217C191.732 72.6465 191.622 72.4716 191.491 72.2745C191.36 72.0995 191.25 71.9243 191.119 71.7273C191.01 71.5523 190.878 71.3773 190.747 71.2021C190.616 71.0059 190.507 70.8309 190.375 70.656C190.244 70.481 190.112 70.3061 189.982 70.1311C189.851 69.9551 189.719 69.7812 189.587 69.6063C189.457 69.4523 189.303 69.2774 189.172 69.1024C189.041 68.9275 188.91 68.7525 188.756 68.5997C188.626 68.4247 188.472 68.2498 188.341 68.0961C188.187 67.9212 188.056 67.7683 187.903 67.5934C187.772 67.4405 187.619 67.2645 187.465 67.1119C187.335 66.9591 187.181 66.7841 187.028 66.6304C186.876 66.4776 186.722 66.325 186.59 66.1498C186.438 65.9961 186.285 65.8436 186.131 65.6896C185.978 65.5371 185.825 65.3842 185.651 65.2305L185.191 64.7712C185.038 64.6186 184.863 64.4871 184.709 64.3342C184.556 64.1805 184.381 64.028 184.229 63.8964C184.054 63.7436 183.9 63.612 183.725 63.4595C183.572 63.3279 183.397 63.1742 183.244 63.0438C183.069 62.8898 182.894 62.7586 182.719 62.6281C182.566 62.4741 182.391 62.3437 182.216 62.2121C182.041 62.0809 181.866 61.9493 181.691 61.8188L181.166 61.4244C180.991 61.294 180.816 61.1624 180.641 61.0309C180.466 60.8993 180.291 60.7901 180.116 60.6586C179.919 60.5281 179.744 60.4178 179.569 60.2874C179.394 60.1558 179.198 60.0467 179.023 59.9151C179.263 60.0245 179.482 60.1337 179.722 60.2429C179.963 60.3311 180.203 60.4402 180.422 60.5494C180.663 60.6586 180.882 60.7677 181.122 60.8993C181.341 61.0085 181.582 61.1179 181.8 61.2492C182.041 61.3587 182.259 61.4689 182.479 61.5994C182.719 61.7307 182.938 61.8401 183.156 61.9714C183.375 62.103 183.616 62.2121 183.835 62.3437C184.054 62.4741 184.272 62.6057 184.491 62.7373C184.709 62.8688 184.929 63.0214 185.125 63.153C185.344 63.2834 185.563 63.4371 185.781 63.5686C185.978 63.6991 186.197 63.8528 186.415 64.0056C186.613 64.1372 186.831 64.2897 187.028 64.4437C187.247 64.5741 187.444 64.7278 187.663 64.8806C187.86 65.0343 188.056 65.1871 188.253 65.3397C188.472 65.4934 188.669 65.6683 188.866 65.8212C189.063 65.9748 189.26 66.1277 189.457 66.3026C189.653 66.4555 189.851 66.6304 190.047 66.7841C190.222 66.9591 190.419 67.134 190.616 67.2868C190.791 67.4618 190.987 67.6367 191.185 67.8117C191.36 67.9867 191.557 68.1619 191.732 68.3368C191.907 68.5118 192.103 68.6867 192.278 68.8617C192.453 69.0366 192.628 69.2116 192.803 69.4089C193 69.5839 193.175 69.7588 193.328 69.9551C193.503 70.1311 193.678 70.3274 193.853 70.5023C194.028 70.6997 194.203 70.8967 194.356 71.093C194.531 71.2679 194.684 71.4652 194.859 71.6615C195.013 71.8588 195.188 72.0559 195.341 72.2521C195.516 72.4495 195.668 72.6465 195.822 72.8427C195.975 73.0401 196.129 73.2584 196.281 73.4558C196.434 73.652 196.588 73.8493 196.741 74.0677C196.893 74.265 197.047 74.4834 197.179 74.6807C197.331 74.8991 197.484 75.0964 197.616 75.315C197.769 75.5334 197.9 75.7528 198.031 75.949C198.184 76.1677 198.315 76.3871 198.447 76.6055C198.578 76.8241 198.709 77.0435 198.84 77.2619C198.972 77.4805 199.103 77.6988 199.234 77.9183C199.365 78.1369 199.497 78.3553 199.606 78.596C199.738 78.8146 199.847 79.0341 199.978 79.2737C200.088 79.4934 200.219 79.7117 200.328 79.9525C200.437 80.1711 200.547 80.4118 200.656 80.6302C200.787 80.8709 200.897 81.1116 200.985 81.33C201.094 81.5707 201.203 81.8115 201.312 82.0522C201.422 82.2708 201.51 82.5115 201.619 82.7523C201.706 82.993 201.815 83.2337 201.903 83.4745C201.99 83.7152 202.1 83.9548 202.187 84.1955C202.275 84.4363 202.362 84.677 202.45 84.9401C202.537 85.1809 202.603 85.4205 202.69 85.6612C202.778 85.9243 202.866 86.1651 202.931 86.4058C203.019 86.6675 203.084 86.9083 203.15 87.1714C203.237 87.411 203.303 87.6517 203.369 87.9149C203.435 88.1769 203.5 88.4176 203.566 88.6805C203.631 88.9212 203.696 89.1832 203.74 89.4463C203.806 89.7081 203.872 89.9488 203.916 90.2119C203.981 90.4739 204.025 90.7368 204.069 90.9988C204.134 91.2395 204.178 91.5026 204.221 91.7644C204.266 92.0275 204.309 92.2895 204.353 92.5523C204.396 92.8144 204.419 93.0775 204.462 93.3395C204.484 93.6236 204.528 93.8864 204.55 94.1485C204.594 94.4116 204.616 94.6736 204.637 94.9364C204.659 95.2206 204.681 95.4837 204.703 95.7457C204.725 96.0085 204.746 96.2929 204.769 96.555C204.769 96.8391 204.791 97.1019 204.812 97.3639C204.812 97.6492 204.812 97.9112 204.834 98.1953V99.0046C204.834 99.3768 204.834 99.7491 204.812 100.099C204.812 100.47 204.791 100.843 204.769 101.192C204.769 101.565 204.746 101.915 204.703 102.286C204.681 102.636 204.66 102.986 204.616 103.358C204.571 103.708 204.528 104.058 204.484 104.408C204.441 104.78 204.396 105.13 204.353 105.48C204.287 105.83 204.221 106.18 204.178 106.53C204.112 106.88 204.046 107.23 203.959 107.58C203.894 107.907 203.828 108.258 203.74 108.608C203.675 108.936 203.587 109.286 203.5 109.614C203.412 109.964 203.325 110.293 203.215 110.643C203.128 110.97 203.019 111.298 202.931 111.648C202.822 111.977 202.712 112.304 202.603 112.633C202.494 112.961 202.385 113.289 202.253 113.617C202.144 113.945 202.012 114.252 201.881 114.579C201.75 114.908 201.619 115.215 201.487 115.542C201.356 115.87 201.225 116.176 201.072 116.483C200.94 116.811 200.787 117.117 200.635 117.423C200.503 117.73 200.35 118.036 200.175 118.342C200.022 118.648 199.869 118.955 199.715 119.261C199.54 119.567 199.365 119.851 199.213 120.157C199.038 120.442 198.863 120.748 198.688 121.032C198.513 121.317 198.315 121.623 198.14 121.908C197.965 122.192 197.769 122.477 197.572 122.761C197.397 123.045 197.2 123.33 197.004 123.593C196.806 123.877 196.588 124.161 196.391 124.423C196.193 124.686 195.975 124.97 195.778 125.233C195.559 125.495 195.341 125.758 195.144 126.02C194.925 126.283 194.707 126.545 194.466 126.808C194.247 127.07 194.028 127.311 193.787 127.574C193.568 127.813 193.328 128.076 193.109 128.317C192.869 128.558 192.628 128.799 192.387 129.038C192.148 129.279 191.907 129.52 191.666 129.76C191.425 130.001 191.162 130.22 190.922 130.461C190.659 130.679 190.419 130.898 190.157 131.117C189.894 131.358 189.631 131.576 189.369 131.795C189.106 131.992 188.844 132.21 188.581 132.43C188.319 132.626 188.035 132.844 187.772 133.042C187.488 133.26 187.226 133.457 186.94 133.655C186.678 133.851 186.394 134.048 186.11 134.223C185.825 134.42 185.541 134.617 185.256 134.791C184.972 134.989 184.666 135.164 184.381 135.339C184.097 135.514 183.791 135.689 183.506 135.864C183.2 136.039 182.894 136.191 182.609 136.366C182.304 136.52 181.997 136.673 181.691 136.848L180.772 137.307C180.466 137.439 180.159 137.591 179.832 137.723C179.525 137.876 179.198 138.007 178.891 138.139C178.562 138.292 178.257 138.423 177.928 138.532C177.601 138.663 177.294 138.795 176.966 138.904C176.638 139.036 176.31 139.145 175.982 139.254C175.653 139.363 175.326 139.473 174.997 139.582C174.647 139.67 174.319 139.779 173.992 139.867C173.642 139.976 173.313 140.063 172.963 140.151C172.635 140.238 172.285 140.326 171.956 140.392C171.606 140.479 171.256 140.545 170.907 140.632C170.579 140.698 170.229 140.763 169.879 140.829C169.529 140.895 169.179 140.938 168.829 141.004C168.479 141.047 168.129 141.092 167.757 141.136C167.407 141.179 167.057 141.222 166.707 141.267C166.335 141.311 165.985 141.333 165.613 141.354C165.264 141.397 164.914 141.42 164.541 141.42C164.169 141.442 163.819 141.463 163.448 141.463C163.098 141.486 162.726 141.486 162.353 141.486H161.654C161.544 141.486 161.435 141.486 161.326 141.463H160.976C160.867 141.463 160.735 141.463 160.626 141.442H160.276C160.167 141.442 160.058 141.42 159.947 141.42C159.838 141.42 159.707 141.397 159.597 141.397C159.488 141.397 159.379 141.376 159.27 141.376C159.138 141.376 159.029 141.354 158.92 141.354C158.81 141.333 158.701 141.333 158.592 141.311C158.46 141.311 158.351 141.311 158.242 141.288C158.132 141.288 158.022 141.267 157.913 141.245C157.782 141.245 157.672 141.222 157.563 141.222C157.454 141.201 157.345 141.201 157.235 141.179C157.126 141.158 157.016 141.158 156.885 141.136C156.776 141.113 156.667 141.113 156.557 141.092C156.447 141.07 156.338 141.07 156.229 141.047C156.12 141.026 156.01 141.004 155.901 141.004C155.791 140.983 155.682 140.96 155.551 140.938C155.441 140.917 155.332 140.917 155.222 140.895L154.895 140.829C154.786 140.808 154.675 140.785 154.566 140.763C154.457 140.763 154.348 140.742 154.239 140.72L153.911 140.654C153.8 140.632 153.691 140.611 153.582 140.588C153.473 140.567 153.363 140.523 153.254 140.501C153.145 140.479 153.035 140.458 152.925 140.436C152.816 140.413 152.729 140.392 152.62 140.37C152.51 140.326 152.401 140.304 152.291 140.282C152.182 140.261 152.073 140.238 151.964 140.195C151.854 140.173 151.745 140.151 151.635 140.129C151.548 140.086 151.439 140.063 151.329 140.042C151.219 140.02 151.11 139.976 151.001 139.954C150.891 139.933 150.782 139.888 150.694 139.867C150.585 139.823 150.476 139.801 150.366 139.779C150.257 139.736 150.148 139.713 150.06 139.67C149.951 139.648 149.842 139.604 149.732 139.582C149.623 139.538 149.535 139.517 149.426 139.473C149.317 139.451 149.207 139.407 149.119 139.386C149.01 139.342 148.901 139.32 148.792 139.276C148.704 139.232 148.594 139.211 148.485 139.167C148.376 139.123 148.289 139.101 148.179 139.057C148.069 139.014 147.983 138.991 147.873 138.948C147.764 138.904 147.654 138.882 147.567 138.839C147.457 138.795 147.348 138.752 147.26 138.729C147.151 138.686 147.042 138.642 146.954 138.598C146.845 138.554 146.735 138.532 146.648 138.488C146.538 138.445 146.451 138.402 146.342 138.357C146.233 138.313 146.145 138.27 146.035 138.248C145.948 138.204 145.838 138.161 145.729 138.117C145.642 138.073 145.533 138.029 145.445 137.986C145.335 137.941 145.247 137.898 145.138 137.854C145.051 137.811 144.942 137.766 144.854 137.723C144.745 137.679 144.636 137.636 144.548 137.591C144.438 137.527 144.351 137.482 144.242 137.439C144.154 137.395 144.067 137.351 143.958 137.307C143.87 137.263 143.76 137.22 143.673 137.154C143.563 137.111 143.476 137.066 143.367 137.023C143.279 136.979 143.192 136.914 143.082 136.87C142.995 136.826 142.886 136.782 142.798 136.717C142.711 136.673 142.601 136.629 142.513 136.564C142.404 136.52 142.317 136.477 142.229 136.411C142.12 136.366 142.032 136.323 141.945 136.257C142.011 136.28 142.076 136.301 142.142 136.323ZM134.048 134.267C150.739 150.957 177.798 150.957 194.488 134.267C205.119 123.614 208.99 108.761 206.059 95.068C212.206 110.38 209.078 128.536 196.675 140.96C180.094 157.542 153.189 157.542 136.607 140.96C131.358 135.711 127.792 129.454 125.845 122.827C127.879 126.961 130.613 130.833 134.048 134.267ZM123.986 101.936C122.498 106.289 121.689 110.97 121.689 115.826C121.689 139.429 140.829 158.569 164.432 158.569C179.482 158.569 192.716 150.782 200.328 139.014C193.853 154.195 178.782 164.848 161.238 164.848C137.789 164.848 118.758 145.816 118.758 122.367C118.758 114.951 120.66 107.996 123.986 101.936ZM119.305 96.5995C124.532 91.3711 130.788 87.7833 137.439 85.8586C133.304 87.8925 129.433 90.6052 125.998 94.0393C109.287 110.73 109.287 137.789 125.998 154.501C136.63 165.132 151.482 168.981 165.198 166.05C149.885 172.219 131.708 169.091 119.305 156.667C102.724 140.086 102.724 113.202 119.305 96.5995ZM137.898 78.7712C145.292 78.7712 152.248 80.6736 158.307 83.9993C153.954 82.4903 149.294 81.6802 144.438 81.6802C120.835 81.6802 101.695 100.82 101.695 124.423C101.695 139.473 109.462 152.707 121.23 160.341C106.049 153.845 95.4182 138.795 95.4182 121.251C95.4182 97.7796 114.427 78.7712 137.898 78.7712ZM103.577 79.2961C120.158 62.7149 147.063 62.7149 163.644 79.2961C168.872 84.5455 172.46 90.8025 174.385 97.4297C172.372 93.2958 169.638 89.4239 166.204 85.9901C149.514 69.2998 122.455 69.2998 105.765 85.9901C95.1117 96.6428 91.2611 111.495 94.1924 125.189C88.0456 109.877 91.174 91.721 103.577 79.2961Z" fill="#00A45F"/>
<path d="M163.073 189.934L190.932 221.778C193.012 224.157 196.783 223.904 198.523 221.267C221.29 186.76 243.533 144.332 243.533 110.267C243.533 58.7527 201.769 17 150.267 17C98.7638 17 57 58.7527 57 110.267C57 162.248 108.802 233.718 135.198 266.759L169.102 223.209C170.508 221.402 170.436 218.851 168.927 217.126L139.981 184.036C137.046 180.681 133.212 178.27 128.965 176.915C100.01 167.668 79.2504 140.081 80.3559 107.81C81.595 71.6359 110.802 42.0552 146.958 40.3902C187.096 38.5423 220.219 70.5251 220.219 110.267C220.219 143.207 197.453 170.83 166.791 178.25C161.555 179.517 159.526 185.878 163.073 189.934ZM173.425 228.294L139.416 271.98C142.341 275.57 144.796 278.496 146.627 280.646C148.536 282.888 151.988 282.893 153.899 280.651C159.299 274.308 170.144 261.211 182.483 244.331C183.805 242.522 183.703 240.036 182.229 238.351L173.425 228.294Z" fill="#00A45F"/>
</svg>
