<?xml version="1.0" encoding="UTF-8" standalone="no"?>
<!-- Created with Inkscape (http://www.inkscape.org/) -->

<svg
   version="1.1"
   id="svg2"
   xml:space="preserve"
   width="959.99969"
   height="349.76031"
   viewBox="0 0 959.99969 349.76031"
   sodipodi:docname="d0e05ddcb5aaa211ab1d6dd1376a1383.ai"
   xmlns:inkscape="http://www.inkscape.org/namespaces/inkscape"
   xmlns:sodipodi="http://sodipodi.sourceforge.net/DTD/sodipodi-0.dtd"
   xmlns="http://www.w3.org/2000/svg"
   xmlns:svg="http://www.w3.org/2000/svg"><defs
     id="defs6"><clipPath
       clipPathUnits="userSpaceOnUse"
       id="clipPath16"><path
         d="M 0,0 H 720 V 262.321 H 0 Z"
         id="path14" /></clipPath><clipPath
       clipPathUnits="userSpaceOnUse"
       id="clipPath36"><path
         d="M 0,262.321 H 720 V 0 H 0 Z"
         id="path34" /></clipPath><clipPath
       clipPathUnits="userSpaceOnUse"
       id="clipPath44"><path
         d="m 76.69,194.34 h 29.23 V 146.19 H 76.69 Z"
         id="path42" /></clipPath></defs><sodipodi:namedview
     id="namedview4"
     pagecolor="#ffffff"
     bordercolor="#666666"
     borderopacity="1.0"
     inkscape:pageshadow="2"
     inkscape:pageopacity="0.0"
     inkscape:pagecheckerboard="0" /><g
     id="g8"
     inkscape:groupmode="layer"
     inkscape:label="d0e05ddcb5aaa211ab1d6dd1376a1383"
     transform="matrix(1.3333333,0,0,-1.3333333,-1.3333333e-4,349.76079)"><g
       id="g10"><g
         id="g12"
         clip-path="url(#clipPath16)"><g
           id="g18"
           transform="translate(81.2227,224.2051)"><path
             d="m 0,0 c 23.183,0 41.977,-18.815 41.977,-41.998 0,-7.332 -1.86,-14.209 -5.147,-20.2 1.47,4.304 2.27,8.932 2.27,13.733 0,23.335 -18.923,42.258 -42.258,42.258 -14.878,0 -27.962,-7.699 -35.488,-19.334 C -32.245,-10.532 -17.366,0 0,0 m -3.914,1.189 c 15.138,6.099 33.11,3.007 45.372,-9.277 16.393,-16.393 16.393,-42.972 0,-59.386 -5.169,-5.169 -11.354,-8.716 -17.928,-10.619 4.087,1.99 7.915,4.693 11.31,8.088 16.501,16.501 16.501,43.253 0,59.754 C 24.33,0.281 9.624,4.087 -3.914,1.189 m 7.007,-81.185 c 0.064,-0.043 0.129,-0.065 0.194,-0.087 0.087,-0.021 0.152,-0.043 0.216,-0.065 0.065,-0.021 0.13,-0.043 0.195,-0.064 0.065,-0.022 0.13,-0.044 0.216,-0.065 0.065,-0.022 0.13,-0.044 0.195,-0.065 0.065,-0.022 0.13,-0.043 0.216,-0.065 0.065,-0.022 0.13,-0.022 0.195,-0.043 0.065,-0.022 0.13,-0.043 0.216,-0.065 0.065,-0.022 0.13,-0.043 0.195,-0.065 0.065,-0.022 0.13,-0.043 0.216,-0.065 0.065,-0.022 0.13,-0.043 0.195,-0.043 0.065,-0.022 0.129,-0.043 0.216,-0.065 0.065,-0.022 0.13,-0.043 0.195,-0.065 0.065,0 0.151,-0.022 0.216,-0.043 0.065,-0.022 0.13,-0.043 0.216,-0.065 0.065,0 0.13,-0.022 0.195,-0.043 0.065,-0.022 0.151,-0.043 0.216,-0.043 0.065,-0.022 0.13,-0.044 0.216,-0.065 0.065,0 0.13,-0.022 0.195,-0.044 0.086,-0.021 0.151,-0.021 0.216,-0.043 0.065,-0.022 0.152,-0.043 0.216,-0.043 0.065,-0.022 0.13,-0.043 0.217,-0.065 0.065,0 0.129,-0.022 0.194,-0.043 0.087,0 0.152,-0.022 0.217,-0.044 0.065,0 0.151,-0.021 0.216,-0.043 0.065,0 0.151,-0.021 0.216,-0.043 0.065,0 0.13,-0.022 0.216,-0.043 0.065,0 0.13,-0.022 0.217,-0.022 0.065,-0.022 0.129,-0.043 0.194,-0.043 0.087,-0.022 0.152,-0.022 0.217,-0.043 0.086,0 0.151,-0.022 0.216,-0.044 0.086,0 0.151,-0.021 0.216,-0.021 0.087,-0.022 0.151,-0.022 0.216,-0.044 0.065,0 0.152,-0.021 0.217,-0.021 0.065,-0.022 0.151,-0.022 0.216,-0.044 0.065,0 0.151,-0.021 0.216,-0.021 0.065,-0.022 0.152,-0.022 0.216,-0.043 0.087,0 0.152,-0.022 0.217,-0.022 0.086,0 0.151,-0.022 0.216,-0.022 0.087,-0.021 0.151,-0.021 0.216,-0.043 0.087,0 0.152,0 0.216,-0.022 0.087,0 0.152,-0.021 0.238,-0.021 0.065,0 0.13,-0.022 0.217,-0.022 0.064,0 0.129,-0.021 0.216,-0.021 0.065,0 0.151,-0.022 0.216,-0.022 0.065,0 0.152,-0.022 0.216,-0.022 0.087,0 0.152,-0.021 0.217,-0.021 0.086,0 0.151,0 0.216,-0.022 h 0.238 c 0.065,-0.021 0.151,-0.021 0.216,-0.021 0.065,0 0.151,-0.022 0.216,-0.022 h 0.217 c 0.086,-0.022 0.151,-0.022 0.237,-0.022 0.065,0 0.152,0 0.217,-0.021 h 0.454 c 0.065,0 0.13,-0.022 0.216,-0.022 h 0.671 c 0.064,0 0.151,-0.022 0.216,-0.022 h 0.454 c 23.335,0 42.258,18.923 42.258,42.258 v 0.714 c 0,0.216 -0.022,0.454 -0.022,0.692 0,0.216 -0.021,0.454 -0.021,0.692 -0.022,0.216 -0.022,0.454 -0.043,0.671 -0.022,0.238 -0.022,0.454 -0.044,0.692 -0.021,0.237 -0.043,0.454 -0.065,0.692 -0.021,0.216 -0.043,0.432 -0.064,0.67 -0.044,0.216 -0.065,0.454 -0.087,0.67 -0.043,0.217 -0.065,0.455 -0.108,0.671 -0.022,0.238 -0.065,0.454 -0.087,0.67 -0.043,0.217 -0.086,0.455 -0.129,0.671 -0.022,0.216 -0.065,0.432 -0.108,0.649 -0.044,0.237 -0.087,0.454 -0.13,0.67 -0.065,0.216 -0.108,0.432 -0.152,0.649 -0.043,0.216 -0.108,0.432 -0.151,0.649 -0.065,0.216 -0.108,0.432 -0.173,0.648 -0.043,0.217 -0.108,0.433 -0.173,0.649 -0.065,0.216 -0.13,0.433 -0.173,0.627 -0.065,0.217 -0.13,0.433 -0.195,0.649 -0.065,0.195 -0.151,0.411 -0.216,0.627 -0.065,0.195 -0.13,0.411 -0.216,0.627 -0.065,0.195 -0.13,0.411 -0.216,0.606 -0.065,0.216 -0.152,0.411 -0.238,0.627 -0.065,0.195 -0.152,0.411 -0.238,0.606 -0.087,0.216 -0.152,0.411 -0.238,0.605 -0.087,0.216 -0.173,0.411 -0.26,0.606 -0.086,0.194 -0.194,0.411 -0.281,0.605 -0.086,0.195 -0.173,0.39 -0.281,0.584 -0.086,0.195 -0.173,0.389 -0.281,0.584 -0.087,0.195 -0.195,0.389 -0.281,0.584 -0.108,0.195 -0.217,0.389 -0.325,0.584 -0.086,0.195 -0.194,0.389 -0.302,0.562 -0.109,0.195 -0.217,0.389 -0.325,0.584 -0.108,0.173 -0.216,0.368 -0.324,0.562 -0.108,0.173 -0.216,0.368 -0.346,0.541 -0.108,0.195 -0.217,0.368 -0.346,0.562 -0.108,0.173 -0.216,0.346 -0.346,0.541 -0.13,0.173 -0.238,0.346 -0.368,0.541 -0.108,0.173 -0.238,0.346 -0.368,0.519 -0.129,0.194 -0.237,0.367 -0.367,0.54 -0.13,0.173 -0.26,0.346 -0.389,0.519 -0.13,0.174 -0.26,0.346 -0.39,0.519 -0.129,0.152 -0.281,0.325 -0.411,0.498 -0.129,0.173 -0.259,0.346 -0.411,0.497 -0.129,0.173 -0.281,0.346 -0.41,0.498 -0.152,0.173 -0.282,0.324 -0.433,0.497 -0.13,0.151 -0.281,0.325 -0.433,0.476 -0.129,0.151 -0.281,0.324 -0.432,0.476 -0.151,0.151 -0.303,0.302 -0.433,0.475 -0.151,0.152 -0.302,0.303 -0.454,0.455 -0.151,0.151 -0.303,0.302 -0.475,0.454 l -0.455,0.454 c -0.151,0.151 -0.324,0.281 -0.476,0.432 -0.151,0.152 -0.324,0.303 -0.475,0.433 -0.173,0.151 -0.325,0.281 -0.498,0.432 -0.151,0.13 -0.324,0.282 -0.475,0.411 -0.173,0.152 -0.346,0.282 -0.519,0.411 -0.152,0.152 -0.325,0.281 -0.498,0.411 -0.173,0.13 -0.346,0.26 -0.519,0.389 l -0.519,0.39 c -0.173,0.129 -0.346,0.259 -0.519,0.389 -0.173,0.13 -0.346,0.238 -0.519,0.368 -0.195,0.129 -0.368,0.238 -0.541,0.367 -0.173,0.13 -0.367,0.238 -0.54,0.368 0.238,-0.108 0.454,-0.216 0.692,-0.324 0.238,-0.087 0.475,-0.195 0.692,-0.303 0.238,-0.108 0.454,-0.216 0.692,-0.346 0.216,-0.108 0.454,-0.216 0.67,-0.346 0.238,-0.108 0.454,-0.217 0.671,-0.346 0.238,-0.13 0.454,-0.238 0.67,-0.368 0.216,-0.13 0.454,-0.238 0.671,-0.368 0.216,-0.129 0.432,-0.259 0.648,-0.389 0.216,-0.13 0.433,-0.281 0.627,-0.411 0.217,-0.129 0.433,-0.281 0.649,-0.411 0.195,-0.129 0.411,-0.281 0.627,-0.432 0.195,-0.13 0.411,-0.281 0.606,-0.433 0.216,-0.129 0.411,-0.281 0.627,-0.432 0.195,-0.152 0.389,-0.303 0.584,-0.454 0.216,-0.152 0.411,-0.325 0.606,-0.476 0.194,-0.152 0.389,-0.303 0.584,-0.476 0.194,-0.151 0.389,-0.324 0.583,-0.476 0.173,-0.173 0.368,-0.346 0.563,-0.497 0.173,-0.173 0.367,-0.346 0.562,-0.519 0.173,-0.173 0.368,-0.346 0.541,-0.519 0.173,-0.173 0.367,-0.346 0.54,-0.519 0.173,-0.173 0.346,-0.346 0.519,-0.541 0.195,-0.173 0.368,-0.346 0.519,-0.54 0.173,-0.174 0.346,-0.368 0.519,-0.541 0.173,-0.195 0.346,-0.39 0.498,-0.584 0.173,-0.173 0.324,-0.368 0.497,-0.562 0.152,-0.195 0.325,-0.39 0.476,-0.584 0.173,-0.195 0.324,-0.39 0.476,-0.584 0.151,-0.195 0.303,-0.411 0.454,-0.606 0.151,-0.194 0.303,-0.389 0.454,-0.605 0.151,-0.195 0.303,-0.411 0.433,-0.606 0.151,-0.216 0.302,-0.411 0.432,-0.627 0.152,-0.216 0.281,-0.433 0.411,-0.627 0.151,-0.216 0.281,-0.433 0.411,-0.649 0.13,-0.216 0.259,-0.433 0.389,-0.649 0.13,-0.216 0.26,-0.432 0.389,-0.649 0.13,-0.216 0.26,-0.432 0.368,-0.67 0.13,-0.216 0.238,-0.433 0.368,-0.67 0.108,-0.217 0.238,-0.433 0.346,-0.671 0.108,-0.216 0.216,-0.454 0.324,-0.67 0.13,-0.238 0.238,-0.476 0.325,-0.692 0.108,-0.238 0.216,-0.476 0.324,-0.714 0.108,-0.216 0.195,-0.454 0.303,-0.692 0.086,-0.238 0.194,-0.476 0.281,-0.714 0.086,-0.238 0.195,-0.475 0.281,-0.713 0.087,-0.238 0.173,-0.476 0.26,-0.736 0.086,-0.238 0.151,-0.475 0.237,-0.713 0.087,-0.26 0.174,-0.498 0.238,-0.736 0.087,-0.259 0.152,-0.497 0.217,-0.757 0.086,-0.237 0.151,-0.475 0.216,-0.735 0.065,-0.259 0.13,-0.497 0.195,-0.757 0.064,-0.238 0.129,-0.497 0.172,-0.757 0.065,-0.259 0.13,-0.497 0.174,-0.757 0.064,-0.259 0.108,-0.519 0.151,-0.778 0.065,-0.238 0.108,-0.498 0.151,-0.757 0.044,-0.26 0.087,-0.519 0.13,-0.779 0.043,-0.259 0.065,-0.519 0.108,-0.778 0.022,-0.281 0.065,-0.541 0.087,-0.8 0.043,-0.26 0.065,-0.519 0.086,-0.779 0.022,-0.281 0.043,-0.541 0.065,-0.8 0.022,-0.26 0.043,-0.541 0.065,-0.8 0,-0.281 0.022,-0.541 0.043,-0.8 0,-0.282 0,-0.541 0.022,-0.822 v -0.8 c 0,-0.368 0,-0.736 -0.022,-1.082 0,-0.367 -0.021,-0.735 -0.043,-1.081 0,-0.368 -0.022,-0.714 -0.065,-1.081 -0.022,-0.346 -0.043,-0.692 -0.086,-1.06 -0.044,-0.346 -0.087,-0.692 -0.13,-1.038 -0.043,-0.368 -0.087,-0.714 -0.13,-1.06 -0.065,-0.346 -0.13,-0.692 -0.173,-1.038 -0.065,-0.346 -0.13,-0.692 -0.216,-1.038 -0.065,-0.324 -0.13,-0.67 -0.217,-1.016 -0.064,-0.325 -0.151,-0.671 -0.237,-0.995 -0.087,-0.346 -0.173,-0.671 -0.282,-1.017 -0.086,-0.324 -0.194,-0.648 -0.281,-0.994 -0.108,-0.325 -0.216,-0.649 -0.324,-0.974 -0.108,-0.324 -0.216,-0.648 -0.346,-0.973 -0.108,-0.324 -0.238,-0.627 -0.368,-0.951 -0.129,-0.325 -0.259,-0.628 -0.389,-0.952 -0.13,-0.324 -0.259,-0.627 -0.411,-0.93 -0.13,-0.324 -0.281,-0.627 -0.432,-0.93 -0.13,-0.303 -0.282,-0.605 -0.455,-0.908 -0.151,-0.303 -0.302,-0.606 -0.454,-0.909 -0.173,-0.302 -0.346,-0.583 -0.497,-0.886 -0.173,-0.281 -0.346,-0.584 -0.519,-0.865 -0.173,-0.281 -0.368,-0.584 -0.541,-0.865 -0.173,-0.281 -0.367,-0.563 -0.562,-0.844 -0.173,-0.281 -0.368,-0.562 -0.562,-0.822 -0.195,-0.281 -0.411,-0.562 -0.606,-0.821 -0.195,-0.26 -0.411,-0.541 -0.606,-0.801 -0.216,-0.259 -0.432,-0.519 -0.627,-0.778 -0.216,-0.26 -0.432,-0.519 -0.67,-0.779 -0.216,-0.259 -0.433,-0.497 -0.671,-0.757 -0.216,-0.237 -0.454,-0.497 -0.67,-0.735 -0.238,-0.238 -0.476,-0.476 -0.714,-0.713 -0.237,-0.238 -0.475,-0.476 -0.713,-0.714 -0.238,-0.238 -0.498,-0.454 -0.736,-0.692 -0.259,-0.216 -0.497,-0.433 -0.756,-0.649 -0.26,-0.238 -0.52,-0.454 -0.779,-0.67 -0.26,-0.195 -0.519,-0.411 -0.779,-0.628 -0.259,-0.194 -0.54,-0.41 -0.8,-0.605 -0.281,-0.216 -0.54,-0.411 -0.822,-0.606 -0.259,-0.194 -0.54,-0.389 -0.821,-0.562 -0.282,-0.195 -0.563,-0.389 -0.844,-0.562 -0.281,-0.195 -0.584,-0.368 -0.865,-0.541 -0.281,-0.173 -0.584,-0.346 -0.865,-0.519 -0.303,-0.173 -0.605,-0.324 -0.887,-0.497 -0.302,-0.152 -0.605,-0.303 -0.908,-0.476 l -0.908,-0.454 c -0.303,-0.13 -0.606,-0.281 -0.93,-0.411 -0.303,-0.152 -0.627,-0.281 -0.93,-0.411 -0.325,-0.152 -0.627,-0.281 -0.952,-0.389 -0.324,-0.13 -0.627,-0.26 -0.951,-0.368 -0.325,-0.13 -0.649,-0.238 -0.973,-0.346 -0.325,-0.108 -0.649,-0.216 -0.974,-0.324 -0.346,-0.087 -0.67,-0.195 -0.994,-0.282 -0.346,-0.108 -0.671,-0.194 -1.017,-0.281 -0.324,-0.086 -0.67,-0.173 -0.995,-0.238 -0.346,-0.086 -0.692,-0.151 -1.038,-0.237 -0.324,-0.065 -0.67,-0.13 -1.016,-0.195 -0.346,-0.065 -0.692,-0.108 -1.038,-0.173 -0.346,-0.043 -0.692,-0.087 -1.06,-0.13 -0.346,-0.043 -0.692,-0.086 -1.038,-0.13 -0.368,-0.043 -0.714,-0.065 -1.081,-0.086 -0.346,-0.043 -0.692,-0.065 -1.06,-0.065 -0.368,-0.022 -0.714,-0.043 -1.081,-0.043 C 23.811,-85.1 23.443,-85.1 23.075,-85.1 h -0.692 c -0.108,0 -0.216,0 -0.324,0.022 h -0.346 c -0.108,0 -0.238,0 -0.346,0.021 h -0.346 c -0.108,0 -0.216,0.022 -0.325,0.022 -0.108,0 -0.238,0.022 -0.346,0.022 -0.108,0 -0.216,0.021 -0.324,0.021 -0.13,0 -0.238,0.022 -0.346,0.022 -0.108,0.021 -0.216,0.021 -0.324,0.043 -0.13,0 -0.238,0 -0.346,0.022 -0.109,0 -0.217,0.021 -0.325,0.043 -0.13,0 -0.238,0.022 -0.346,0.022 -0.108,0.021 -0.216,0.021 -0.324,0.043 -0.108,0.021 -0.217,0.021 -0.346,0.043 -0.108,0.022 -0.216,0.022 -0.325,0.043 -0.108,0.022 -0.216,0.022 -0.324,0.044 -0.108,0.021 -0.216,0.043 -0.324,0.043 -0.109,0.021 -0.217,0.043 -0.346,0.065 -0.109,0.021 -0.217,0.021 -0.325,0.043 l -0.324,0.065 c -0.108,0.021 -0.217,0.043 -0.325,0.065 -0.108,0 -0.216,0.021 -0.324,0.043 l -0.324,0.065 c -0.109,0.022 -0.217,0.043 -0.325,0.065 -0.108,0.021 -0.216,0.065 -0.324,0.086 -0.108,0.022 -0.217,0.043 -0.325,0.065 -0.108,0.022 -0.194,0.043 -0.302,0.065 -0.109,0.043 -0.217,0.065 -0.325,0.087 -0.108,0.021 -0.216,0.043 -0.324,0.086 -0.108,0.022 -0.216,0.043 -0.325,0.065 -0.086,0.043 -0.194,0.065 -0.302,0.086 -0.109,0.022 -0.217,0.065 -0.325,0.087 -0.108,0.021 -0.216,0.065 -0.303,0.086 -0.108,0.044 -0.216,0.065 -0.324,0.087 -0.108,0.043 -0.216,0.065 -0.303,0.108 -0.108,0.022 -0.216,0.065 -0.324,0.087 -0.108,0.043 -0.195,0.064 -0.303,0.108 -0.108,0.021 -0.216,0.065 -0.303,0.086 -0.108,0.043 -0.216,0.065 -0.324,0.108 -0.087,0.044 -0.195,0.065 -0.303,0.108 -0.108,0.044 -0.194,0.065 -0.303,0.109 -0.108,0.043 -0.194,0.065 -0.302,0.108 -0.108,0.043 -0.217,0.065 -0.303,0.108 -0.108,0.043 -0.216,0.086 -0.303,0.108 -0.108,0.043 -0.216,0.086 -0.303,0.13 -0.108,0.043 -0.216,0.065 -0.302,0.108 -0.109,0.043 -0.195,0.086 -0.303,0.13 -0.108,0.043 -0.195,0.086 -0.303,0.108 -0.086,0.043 -0.195,0.086 -0.303,0.129 -0.086,0.044 -0.194,0.087 -0.281,0.13 -0.108,0.044 -0.195,0.087 -0.303,0.13 -0.086,0.043 -0.194,0.087 -0.281,0.13 -0.108,0.043 -0.216,0.086 -0.303,0.13 -0.108,0.064 -0.194,0.108 -0.302,0.151 -0.087,0.043 -0.173,0.087 -0.281,0.13 -0.087,0.043 -0.195,0.086 -0.282,0.151 -0.108,0.043 -0.194,0.087 -0.302,0.13 -0.087,0.043 -0.173,0.108 -0.282,0.151 -0.086,0.044 -0.194,0.087 -0.281,0.152 -0.086,0.043 -0.194,0.086 -0.281,0.151 -0.108,0.043 -0.194,0.086 -0.281,0.151 -0.108,0.044 -0.195,0.087 -0.281,0.152 0.065,-0.022 0.13,-0.043 0.195,-0.065 m -8.002,2.033 c 16.501,-16.501 43.253,-16.501 59.754,0 10.51,10.532 14.338,25.216 11.44,38.754 6.077,-15.138 2.984,-33.088 -9.278,-45.372 -16.393,-16.393 -42.993,-16.393 -59.386,0 -5.19,5.19 -8.715,11.376 -10.64,17.928 2.011,-4.087 4.714,-7.915 8.11,-11.31 m -9.948,31.964 c -1.471,-4.304 -2.271,-8.932 -2.271,-13.733 0,-23.335 18.923,-42.258 42.258,-42.258 14.879,0 27.963,7.699 35.489,19.334 -6.402,-15.009 -21.302,-25.541 -38.647,-25.541 -23.183,0 -41.998,18.815 -41.998,41.999 0,7.331 1.881,14.208 5.169,20.199 m -4.628,5.276 c 5.168,5.169 11.353,8.716 17.928,10.619 -4.088,-2.011 -7.915,-4.693 -11.311,-8.088 -16.522,-16.501 -16.522,-43.253 0,-59.776 10.511,-10.51 25.195,-14.316 38.755,-11.418 -15.139,-6.099 -33.11,-3.006 -45.372,9.277 -16.393,16.393 -16.393,42.972 0,59.386 m 18.382,17.626 c 7.31,0 14.187,-1.881 20.178,-5.169 -4.304,1.492 -8.911,2.293 -13.712,2.293 -23.335,0 -42.258,-18.923 -42.258,-42.258 0,-14.879 7.678,-27.963 19.313,-35.511 -15.009,6.423 -25.519,21.302 -25.519,38.647 0,23.205 18.793,41.998 41.998,41.998 m -33.932,-0.519 c 16.393,16.393 42.993,16.393 59.386,0 5.169,-5.19 8.716,-11.376 10.619,-17.928 -1.99,4.087 -4.693,7.915 -8.088,11.31 -16.501,16.501 -43.253,16.501 -59.754,0 -10.532,-10.532 -14.339,-25.216 -11.441,-38.754 -6.077,15.138 -2.984,33.088 9.278,45.372"
             style="fill:#00a45f;fill-opacity:1;fill-rule:evenodd;stroke:none"
             id="path20" /></g><g
           id="g22"
           transform="translate(104.8701,91.3486)"><path
             d="m 0,0 27.543,-31.483 c 2.056,-2.352 5.784,-2.102 7.505,0.505 22.508,34.116 44.499,76.062 44.499,109.741 0,50.93 -41.29,92.209 -92.208,92.209 -50.919,0 -92.209,-41.279 -92.209,-92.209 0,-51.391 51.214,-122.051 77.311,-154.717 L 5.96,-32.898 c 1.391,1.787 1.319,4.309 -0.173,6.014 L -22.83,5.831 c -2.902,3.317 -6.692,5.7 -10.891,7.04 -28.627,9.142 -49.151,36.416 -48.058,68.321 1.225,35.764 30.101,65.009 65.847,66.655 39.682,1.827 72.43,-29.793 72.43,-69.084 C 56.498,46.197 33.99,18.887 3.676,11.551 -1.501,10.298 -3.507,4.01 0,0 m 10.234,-37.925 -33.623,-43.191 c 2.892,-3.549 5.319,-6.442 7.129,-8.567 1.888,-2.217 5.301,-2.222 7.19,-0.005 5.339,6.271 16.061,19.219 28.26,35.908 1.307,1.788 1.206,4.246 -0.252,5.912 z"
             style="fill:#00a45f;fill-opacity:1;fill-rule:nonzero;stroke:none"
             id="path24" /></g><g
           id="g26"
           transform="translate(533.4209,160.0698)"><path
             d="M 0,0 -10.445,25.606 H -25.87 -38.101 -53.151 L -62.627,0 -101.036,-103.945 h 27.303 L -35.324,0 h 7.669 L 14.72,-103.945 h 27.655 z m -221.732,-20.856 v 15.437 c 0,2.994 2.428,5.422 5.422,5.422 h 86.078 v 25.604 h -93.118 c -13.247,0 -23.986,-10.739 -23.986,-23.986 v -29.518 c 0,-13.247 10.739,-23.986 23.986,-23.986 h 74.718 c 2.994,0 5.421,-2.427 5.421,-5.422 v -15.611 c 0,-2.995 -2.427,-5.421 -5.421,-5.421 h -86.078 v -25.606 h 93.118 c 13.247,0 23.986,10.739 23.986,23.987 v 29.692 c 0,13.247 -10.739,23.986 -23.986,23.986 h -74.718 c -2.994,0 -5.422,2.427 -5.422,5.422 M 186.579,0.003 V 25.607 H 88.578 c -17.182,0 -31.111,-13.929 -31.111,-31.111 v -67.327 c 0,-17.183 13.929,-31.112 31.111,-31.112 h 98.001 v 25.606 H 93.828 c -5.941,0 -10.757,4.815 -10.757,10.756 v 56.827 c 0,5.941 4.816,10.757 10.757,10.757 z M -271.176,25.869 H -296.78 V 0.265 h 25.604 z m 0,-129.812 h -25.604 v 77.494 h 25.604 z"
             style="fill:#00a45f;fill-opacity:1;fill-rule:nonzero;stroke:none"
             id="path28" /></g></g></g><g
       id="g30"><g
         id="g32"
         clip-path="url(#clipPath36)"><g
           id="g38"><g
             id="g40" /><g
             id="g52"><g
               clip-path="url(#clipPath44)"
               id="g50"><g
                 transform="translate(105.9199,174.5098)"
                 id="g48"><path
                   d="m 0,0 -22.7,-28.32 6.59,20.09 -13.12,0.06 22.31,28 -6.5,-19.81 V 0 Z"
                   style="fill:#ed2024;fill-opacity:1;fill-rule:nonzero;stroke:none"
                   id="path46" /></g></g></g></g></g></g></g></svg>
