<svg width="200" height="72" viewBox="0 0 200 72" fill="none" xmlns="http://www.w3.org/2000/svg">
<mask id="mask0_13677_22435" style="mask-type:luminance" maskUnits="userSpaceOnUse" x="0" y="0" width="200" height="72">
<path d="M200 0H0V72H200V0Z" fill="white"/>
</mask>
<g mask="url(#mask0_13677_22435)">
<path fill-rule="evenodd" clip-rule="evenodd" d="M12.8282 16.9412C17.381 12.4426 24.7699 12.4426 29.3254 16.9412C30.7615 18.3657 31.7476 20.0647 32.2754 21.8625C31.7226 20.7399 30.9726 19.6914 30.0282 18.7582C25.4449 14.2294 18.0143 14.2294 13.431 18.7582C10.506 21.6484 9.44763 25.6804 10.2532 29.3941C8.5643 25.2385 9.42541 20.3117 12.831 16.9412M22.256 16.7985C24.2865 16.7985 26.1976 17.3145 27.8615 18.2175C26.6671 17.8085 25.3865 17.5889 24.0532 17.5889C17.5726 17.5889 12.3143 22.782 12.3143 29.1882C12.3143 33.2724 14.4476 36.8625 17.6782 38.9348C13.5087 37.1727 10.5893 33.0885 10.5893 28.3264C10.5893 21.9558 15.8087 16.7985 22.256 16.7985ZM17.1504 21.6374C18.5865 20.2184 20.3032 19.244 22.131 18.7225C20.9949 19.2742 19.9337 20.0098 18.9893 20.943C14.4004 25.4718 14.4004 32.814 18.9893 37.3511C21.9087 40.2358 25.9865 41.2815 29.7532 40.4856C25.5476 42.1598 20.556 41.3117 17.1504 37.9384C12.5976 33.4398 12.5976 26.1443 17.1504 21.6374ZM18.4365 23.0867C18.0282 24.2669 17.806 25.5377 17.806 26.8552C17.806 33.2587 23.0615 38.4545 29.5449 38.4545C33.6782 38.4545 37.3115 36.341 39.4032 33.1489C37.6254 37.2687 33.4865 40.1589 28.6671 40.1589C22.2282 40.1589 17.0004 34.9961 17.0004 28.631C17.0004 26.6191 17.5226 24.7308 18.4365 23.0867ZM21.2004 31.8588C25.7837 36.3877 33.2143 36.3877 37.7976 31.8588C40.7171 28.9686 41.781 24.9366 40.9754 21.223C42.6643 25.3785 41.8032 30.3053 38.3976 33.6759C33.8449 38.1745 26.456 38.1745 21.9004 33.6759C20.4587 32.2513 19.481 30.5523 18.9449 28.7545C19.5032 29.8771 20.2532 30.9284 21.1976 31.8588M23.4199 32.416C23.4365 32.427 23.456 32.4352 23.4726 32.4407C23.4976 32.4462 23.5143 32.4517 23.5337 32.4599C23.5504 32.4654 23.5699 32.4709 23.5865 32.4764C23.6032 32.4819 23.6226 32.4874 23.6476 32.4956C23.6671 32.5011 23.6837 32.5066 23.7004 32.5148C23.7199 32.5203 23.7365 32.5258 23.7615 32.5313C23.781 32.5368 23.7976 32.5368 23.8143 32.5423C23.8337 32.5478 23.8504 32.5533 23.8754 32.5615C23.8921 32.567 23.9115 32.5725 23.9282 32.5807C23.9449 32.5862 23.9643 32.5917 23.9893 32.5999C24.0087 32.6054 24.0254 32.6109 24.0421 32.6109C24.0615 32.6164 24.0782 32.6219 24.1032 32.6301C24.1199 32.6356 24.1393 32.6411 24.156 32.6493C24.1726 32.6493 24.1976 32.6548 24.2171 32.6603C24.2365 32.6658 24.2532 32.6713 24.2782 32.6795C24.2976 32.6795 24.3143 32.685 24.331 32.6905C24.3504 32.696 24.3726 32.7015 24.3921 32.7015C24.4115 32.707 24.4282 32.7125 24.4532 32.7207C24.4726 32.7207 24.4893 32.7262 24.506 32.7317C24.531 32.7372 24.5476 32.7372 24.5671 32.7427C24.5837 32.7481 24.6087 32.7536 24.6282 32.7536C24.6476 32.7591 24.6643 32.7646 24.6893 32.7728C24.706 32.7728 24.7254 32.7783 24.7421 32.7838C24.7671 32.7838 24.7837 32.7893 24.8032 32.7948C24.8226 32.7948 24.8449 32.8003 24.8643 32.8058C24.8837 32.8058 24.906 32.8113 24.9254 32.8168C24.9449 32.8168 24.9615 32.8222 24.9865 32.8277C25.006 32.8277 25.0226 32.8332 25.0476 32.8332C25.0643 32.8387 25.0837 32.8442 25.1004 32.8442C25.1254 32.8497 25.1421 32.8497 25.1615 32.8552C25.1865 32.8552 25.2032 32.8607 25.2226 32.8662C25.2476 32.8662 25.2643 32.8717 25.2837 32.8717C25.3087 32.8771 25.3254 32.8771 25.3449 32.8826C25.3643 32.8826 25.3865 32.8881 25.406 32.8881C25.4226 32.8936 25.4476 32.8936 25.4671 32.8991C25.4865 32.8991 25.5087 32.9046 25.5282 32.9046C25.5449 32.9101 25.5699 32.9101 25.5893 32.9156C25.6143 32.9156 25.631 32.9211 25.6504 32.9211C25.6754 32.9211 25.6921 32.9265 25.7115 32.9265C25.7365 32.932 25.7532 32.932 25.7726 32.9375C25.7976 32.9375 25.8143 32.9375 25.8337 32.943C25.8587 32.943 25.8754 32.9485 25.9004 32.9485C25.9171 32.9485 25.9365 32.954 25.9615 32.954C25.9782 32.954 25.9976 32.9595 26.0226 32.9595C26.0393 32.9595 26.0643 32.965 26.0837 32.965C26.1032 32.965 26.1254 32.9705 26.1449 32.9705C26.1699 32.9705 26.1865 32.976 26.206 32.976C26.231 32.976 26.2476 32.976 26.2671 32.9814H26.3337C26.3532 32.9869 26.3754 32.9869 26.3949 32.9869C26.4143 32.9869 26.4365 32.9924 26.456 32.9924H26.5171C26.5421 32.9979 26.5587 32.9979 26.5837 32.9979C26.6032 32.9979 26.6254 32.9979 26.6449 33.0034H26.7699C26.7893 33.0034 26.806 33.0089 26.831 33.0089H27.0171C27.0337 33.0089 27.0587 33.0144 27.0782 33.0144H27.2032C33.6865 33.0144 38.9421 27.8213 38.9421 21.4151V21.2202C38.9421 21.1599 38.9365 21.0967 38.9365 21.0308C38.9365 20.9705 38.931 20.9073 38.931 20.8415C38.9254 20.7811 38.9254 20.7179 38.9199 20.6576C38.9143 20.5917 38.9143 20.5341 38.9087 20.4682C38.9032 20.4023 38.8976 20.3447 38.8893 20.2788C38.8837 20.2184 38.8782 20.1608 38.8726 20.0949C38.8615 20.0345 38.8532 19.9714 38.8476 19.911C38.8365 19.8506 38.831 19.7847 38.8171 19.7271C38.8115 19.6612 38.8004 19.6036 38.7921 19.5432C38.781 19.4828 38.7671 19.4169 38.756 19.3593C38.7504 19.2989 38.7365 19.2413 38.7254 19.1809C38.7143 19.115 38.7004 19.0574 38.6893 18.997C38.6699 18.9366 38.6587 18.879 38.6476 18.8186C38.6365 18.7582 38.6171 18.7006 38.606 18.6402C38.5865 18.5798 38.5754 18.5222 38.5587 18.4618C38.5476 18.4014 38.5282 18.3437 38.5115 18.2834C38.4921 18.223 38.4754 18.1653 38.4643 18.1104C38.4449 18.0501 38.4282 17.9924 38.4087 17.932C38.3893 17.8771 38.3671 17.8195 38.3476 17.7591C38.3282 17.7042 38.3115 17.6466 38.2865 17.5862C38.2699 17.5313 38.2504 17.4737 38.2254 17.4188C38.206 17.3584 38.1837 17.3062 38.1587 17.2459C38.1393 17.191 38.1171 17.1333 38.0921 17.0784C38.0671 17.018 38.0504 16.9659 38.0254 16.9137C38.0004 16.8534 37.9782 16.8012 37.9532 16.7463C37.9282 16.6942 37.9004 16.6338 37.8754 16.5789C37.8504 16.5267 37.8282 16.4718 37.7976 16.4197C37.7726 16.3675 37.7504 16.3126 37.7199 16.2605C37.6949 16.2083 37.6643 16.1534 37.6421 16.1013C37.6115 16.0491 37.581 15.9943 37.5532 15.9421C37.5282 15.89 37.5004 15.8351 37.4699 15.7884C37.4393 15.7362 37.4087 15.6814 37.381 15.6292C37.3504 15.5825 37.3199 15.5276 37.2921 15.4755C37.2615 15.4288 37.231 15.3739 37.1949 15.3273C37.1643 15.2724 37.1337 15.2257 37.0976 15.1736C37.0671 15.1269 37.0365 15.0775 37.0004 15.0254C36.9643 14.9787 36.9337 14.9293 36.8976 14.8771C36.8671 14.8305 36.831 14.7811 36.7949 14.7344C36.7587 14.6823 36.7282 14.6329 36.6921 14.5862C36.656 14.5395 36.6199 14.4901 36.5837 14.4435C36.5476 14.3968 36.5115 14.3474 36.4754 14.3007C36.4393 14.2596 36.3976 14.2129 36.3615 14.1635C36.3254 14.1169 36.2893 14.0674 36.2476 14.0263C36.2115 13.9796 36.1699 13.9302 36.1337 13.889C36.0921 13.8424 36.056 13.8012 36.0143 13.7518C35.9782 13.7106 35.9365 13.664 35.8949 13.6201C35.8587 13.5789 35.8171 13.5322 35.7754 13.4883C35.7337 13.4471 35.6921 13.406 35.656 13.3566C35.6143 13.3154 35.5726 13.2742 35.531 13.2303C35.4893 13.1891 35.4476 13.148 35.4004 13.1068L35.2726 12.9833C35.231 12.9421 35.1837 12.9064 35.1393 12.8652C35.0976 12.8241 35.0504 12.7829 35.0087 12.7472C34.9615 12.7061 34.9199 12.6704 34.8699 12.6292C34.8282 12.5935 34.781 12.5523 34.7393 12.5167C34.6921 12.4755 34.6421 12.4398 34.5949 12.4041C34.5532 12.363 34.5032 12.3273 34.456 12.2916C34.4087 12.2559 34.3587 12.2202 34.3115 12.1846L34.1671 12.0775C34.1199 12.0418 34.0699 12.0061 34.0226 11.9705C33.9754 11.9348 33.9254 11.9046 33.8782 11.8689C33.8254 11.8332 33.7754 11.803 33.7282 11.7674C33.681 11.7317 33.6254 11.7015 33.5782 11.6658C33.6449 11.696 33.7032 11.7262 33.7699 11.7536C33.8365 11.7783 33.9004 11.8085 33.9615 11.836C34.0282 11.8662 34.0865 11.8964 34.1532 11.932C34.2143 11.9622 34.2782 11.9924 34.3393 12.0281C34.406 12.0583 34.4643 12.0885 34.5254 12.1242C34.5921 12.1599 34.6504 12.19 34.7115 12.2257C34.7726 12.2614 34.8365 12.2916 34.8976 12.3273C34.9587 12.363 35.0171 12.3986 35.0782 12.4343C35.1393 12.47 35.1976 12.5112 35.2532 12.5469C35.3143 12.5825 35.3726 12.6237 35.4337 12.6594C35.4865 12.6951 35.5476 12.7362 35.6087 12.7774C35.6643 12.8131 35.7226 12.8543 35.7782 12.8954C35.8393 12.9311 35.8921 12.9723 35.9532 13.0135C36.0087 13.0546 36.0615 13.0958 36.1143 13.137C36.1754 13.1781 36.2282 13.2248 36.2837 13.2687C36.3365 13.3099 36.3921 13.3511 36.4449 13.4005C36.4976 13.4416 36.5532 13.4883 36.606 13.5322C36.6532 13.5789 36.7087 13.6283 36.7615 13.6695C36.8087 13.7161 36.8643 13.7655 36.9171 13.8122C36.9643 13.8588 37.0199 13.9083 37.0671 13.9549C37.1143 14.0016 37.1699 14.051 37.2171 14.0976C37.2643 14.1443 37.3143 14.1937 37.3615 14.2459C37.4171 14.2925 37.4643 14.3419 37.506 14.3941C37.5532 14.4407 37.6032 14.4956 37.6504 14.5423C37.6976 14.5944 37.7476 14.6493 37.7893 14.7015C37.8365 14.7481 37.8782 14.803 37.9282 14.8552C37.9699 14.9073 38.0171 14.9622 38.0615 15.0144C38.1087 15.0665 38.1504 15.1214 38.1949 15.1736C38.2365 15.2257 38.2782 15.2861 38.3199 15.341C38.3615 15.3932 38.4032 15.448 38.4449 15.5057C38.4865 15.5606 38.5282 15.6182 38.5643 15.6731C38.606 15.7335 38.6476 15.7857 38.6837 15.846C38.7254 15.9064 38.7615 15.9641 38.7976 16.019C38.8393 16.0793 38.8754 16.137 38.9115 16.1974C38.9476 16.2577 38.9837 16.3154 39.0199 16.3758C39.056 16.4362 39.0921 16.4938 39.1282 16.5542C39.1643 16.6146 39.2004 16.6722 39.231 16.7381C39.2671 16.7985 39.2976 16.8561 39.3337 16.922C39.3643 16.9824 39.4004 17.04 39.431 17.1059C39.4615 17.1663 39.4921 17.2294 39.5199 17.2898C39.556 17.3556 39.5865 17.4215 39.6087 17.4792C39.6393 17.545 39.6699 17.6109 39.6976 17.674C39.7282 17.7344 39.7532 17.7975 39.781 17.8634C39.806 17.9293 39.8337 17.9952 39.8587 18.0583C39.8837 18.1242 39.9143 18.1873 39.9365 18.2532C39.9615 18.319 39.9837 18.3849 40.0087 18.4563C40.0337 18.5222 40.0504 18.588 40.0754 18.6512C40.1004 18.7225 40.1226 18.7884 40.1421 18.8543C40.1671 18.9256 40.1837 18.9915 40.2032 19.0629C40.2282 19.1287 40.2449 19.1946 40.2643 19.266C40.2837 19.3373 40.3004 19.4032 40.3199 19.4746C40.3365 19.5405 40.356 19.6118 40.3671 19.6832C40.3865 19.7545 40.4032 19.8204 40.4143 19.8918C40.431 19.9631 40.4449 20.0345 40.456 20.1059C40.4754 20.1717 40.4865 20.2431 40.4976 20.3145C40.5087 20.3858 40.5226 20.4572 40.5337 20.5286C40.5449 20.5999 40.5532 20.6713 40.5643 20.7427C40.5699 20.8195 40.5837 20.8909 40.5893 20.9622C40.6004 21.0336 40.6087 21.105 40.6143 21.1763C40.6199 21.2532 40.6254 21.3245 40.6337 21.3959C40.6393 21.4673 40.6449 21.5441 40.6532 21.6155C40.6532 21.6923 40.6587 21.7637 40.6643 21.8351C40.6643 21.9119 40.6643 21.9833 40.6699 22.0601V22.2797C40.6699 22.3813 40.6699 22.4828 40.6643 22.5761C40.6643 22.6777 40.6587 22.7792 40.6532 22.8726C40.6532 22.9741 40.6476 23.0674 40.6337 23.169C40.6282 23.2651 40.6226 23.3584 40.6087 23.4599C40.5976 23.556 40.5837 23.6493 40.5726 23.7454C40.5615 23.8469 40.5476 23.9403 40.5365 24.0363C40.5171 24.1324 40.5004 24.2257 40.4893 24.3218C40.4699 24.4179 40.4532 24.5112 40.4282 24.6072C40.4087 24.6951 40.3921 24.7911 40.3671 24.8872C40.3504 24.975 40.3254 25.0711 40.3004 25.1617C40.2754 25.2577 40.2532 25.3456 40.2226 25.4416C40.1976 25.5295 40.1699 25.6201 40.1449 25.7134C40.1143 25.8012 40.0837 25.8918 40.056 25.9796C40.0254 26.0674 39.9949 26.158 39.9587 26.2459C39.9282 26.3337 39.8921 26.4188 39.856 26.5066C39.8199 26.5944 39.7837 26.6795 39.7476 26.7674C39.7115 26.8552 39.6754 26.9403 39.6337 27.0226C39.5976 27.1104 39.556 27.1955 39.5143 27.2779C39.4782 27.3602 39.4365 27.4426 39.3865 27.5276C39.3449 27.61 39.3032 27.6951 39.2615 27.7774C39.2143 27.8598 39.1643 27.9366 39.1226 28.0217C39.0754 28.0986 39.0254 28.1809 38.9782 28.2577C38.931 28.3346 38.8754 28.4169 38.8282 28.4965C38.781 28.5734 38.7254 28.6502 38.6726 28.7271C38.6254 28.8039 38.5699 28.8808 38.5171 28.9522C38.4643 29.029 38.4032 29.1059 38.3476 29.1772C38.2949 29.2486 38.2337 29.3254 38.1782 29.3968C38.1171 29.4682 38.0587 29.5395 38.0032 29.6109C37.9421 29.6823 37.8837 29.7536 37.8171 29.825C37.756 29.8964 37.6976 29.9622 37.631 30.0336C37.5699 30.0995 37.506 30.1708 37.4449 30.2367C37.3782 30.3026 37.3115 30.3684 37.2476 30.4316C37.181 30.4975 37.1143 30.5633 37.0504 30.6265C36.9837 30.6923 36.9115 30.75 36.8449 30.8158C36.7726 30.8762 36.706 30.9339 36.6337 30.9943C36.5615 31.0601 36.4893 31.1178 36.4171 31.1781C36.3449 31.233 36.2726 31.2907 36.2004 31.3511C36.1282 31.4032 36.0504 31.4636 35.9782 31.5158C35.9004 31.5761 35.8282 31.6283 35.7504 31.6832C35.6782 31.7353 35.6004 31.7902 35.5226 31.8369C35.4449 31.8918 35.3671 31.9439 35.2893 31.9906C35.2115 32.0427 35.1282 32.0921 35.0504 32.1388C34.9726 32.1855 34.8893 32.2349 34.8115 32.2815C34.7282 32.3282 34.6421 32.3694 34.5643 32.4188C34.481 32.4599 34.3949 32.5011 34.3115 32.5505L34.0587 32.674C33.9754 32.7097 33.8893 32.7509 33.8004 32.7866C33.7171 32.8277 33.6254 32.8634 33.5421 32.8991C33.4532 32.9403 33.3671 32.976 33.2782 33.0061C33.1893 33.0418 33.1032 33.0775 33.0143 33.1077C32.9254 33.1434 32.8337 33.1736 32.7449 33.2038C32.656 33.234 32.5643 33.2642 32.4754 33.2916C32.3782 33.3163 32.2893 33.3465 32.2004 33.3685C32.1032 33.3986 32.0143 33.4206 31.9171 33.4453C31.8282 33.47 31.731 33.492 31.6421 33.5112C31.5449 33.5359 31.4504 33.5523 31.3532 33.577C31.2643 33.5963 31.1671 33.6127 31.0699 33.6319C30.9726 33.6512 30.8782 33.6621 30.781 33.6786C30.6837 33.6896 30.5893 33.7033 30.4865 33.7143C30.3893 33.7253 30.2949 33.739 30.1976 33.75C30.0949 33.7609 30.0004 33.7692 29.8976 33.7747C29.8004 33.7856 29.706 33.7939 29.6032 33.7939C29.5004 33.7994 29.406 33.8049 29.3032 33.8049C29.206 33.8104 29.106 33.8104 29.0032 33.8104H28.8115C28.781 33.8104 28.7504 33.8104 28.7226 33.8049H28.6254C28.5949 33.8049 28.5587 33.8049 28.5282 33.7994H28.431C28.4004 33.7994 28.3699 33.7939 28.3421 33.7939C28.3143 33.7939 28.2754 33.7884 28.2449 33.7884C28.2143 33.7884 28.1837 33.7829 28.156 33.7829C28.1199 33.7829 28.0893 33.7774 28.0587 33.7774C28.0282 33.7719 27.9976 33.7719 27.9699 33.7664C27.9337 33.7664 27.9032 33.7664 27.8726 33.7609C27.8421 33.7609 27.8115 33.7555 27.7837 33.75C27.7476 33.75 27.7171 33.7445 27.6865 33.7445C27.656 33.739 27.6254 33.739 27.5976 33.7335C27.5671 33.728 27.5365 33.728 27.5004 33.7225C27.4699 33.717 27.4393 33.717 27.4087 33.7115C27.3782 33.7061 27.3476 33.7061 27.3199 33.7006C27.2893 33.6951 27.2587 33.6896 27.231 33.6896C27.2004 33.6841 27.1699 33.6786 27.1337 33.6704C27.1032 33.6649 27.0726 33.6649 27.0421 33.6594L26.9532 33.6402C26.9226 33.6347 26.8921 33.6292 26.8643 33.621C26.8337 33.621 26.8032 33.6155 26.7754 33.61L26.6865 33.5908C26.656 33.5853 26.6254 33.5798 26.5976 33.5716C26.5671 33.5661 26.5365 33.5551 26.5087 33.5469C26.4782 33.5414 26.4476 33.5359 26.4199 33.5276C26.3893 33.5222 26.3671 33.5167 26.3365 33.5112C26.306 33.5002 26.2754 33.492 26.2476 33.4865C26.2171 33.481 26.1865 33.4755 26.1587 33.4618C26.1282 33.4563 26.0976 33.4508 26.0699 33.4426C26.0449 33.4316 26.0171 33.4233 25.9865 33.4179C25.956 33.4124 25.9254 33.3986 25.8976 33.3932C25.8671 33.3877 25.8365 33.3767 25.8143 33.3685C25.7837 33.3575 25.7532 33.3492 25.7254 33.3437C25.6949 33.3328 25.6643 33.3245 25.6421 33.3136C25.6115 33.3081 25.581 33.2943 25.5532 33.2889C25.5226 33.2779 25.5004 33.2724 25.4699 33.2587C25.4393 33.2532 25.4087 33.2394 25.3865 33.234C25.356 33.223 25.3254 33.2147 25.2976 33.2038C25.2726 33.1928 25.2449 33.1846 25.2143 33.1736C25.1837 33.1626 25.1615 33.1544 25.131 33.1434C25.1004 33.1324 25.0782 33.1242 25.0476 33.1132C25.0171 33.1022 24.9865 33.094 24.9643 33.083C24.9337 33.072 24.9032 33.0583 24.881 33.0528C24.8504 33.0418 24.8199 33.0281 24.7976 33.0171C24.7671 33.0061 24.7365 32.9979 24.7143 32.9869C24.6837 32.976 24.6615 32.9622 24.631 32.9512C24.6004 32.9403 24.5782 32.9265 24.5476 32.9211C24.5226 32.9101 24.4949 32.8964 24.4643 32.8854C24.4393 32.8744 24.4115 32.8607 24.3865 32.8497C24.356 32.8387 24.3337 32.825 24.3032 32.814C24.2782 32.803 24.2504 32.7893 24.2254 32.7783C24.1949 32.7674 24.1643 32.7536 24.1421 32.7427C24.1115 32.7262 24.0893 32.7125 24.0587 32.7015C24.0337 32.6905 24.0115 32.6768 23.981 32.6658C23.956 32.6548 23.9282 32.6411 23.9032 32.6246C23.8726 32.6136 23.8504 32.5999 23.8199 32.5889C23.7949 32.578 23.7726 32.5588 23.7421 32.5478C23.7171 32.5368 23.6893 32.5231 23.6643 32.5066C23.6393 32.4956 23.6115 32.4819 23.5865 32.4654C23.556 32.4545 23.5337 32.4407 23.5087 32.4243C23.4782 32.4133 23.456 32.3996 23.431 32.3831C23.4504 32.3886 23.4671 32.3941 23.4837 32.4023M21.5365 10.1205C25.7421 8.44622 30.7337 9.29434 34.1393 12.6676C38.6921 17.1663 38.6921 24.4618 34.1393 28.9686C32.7032 30.3877 30.9865 31.362 29.1587 31.8835C30.2949 31.3373 31.3587 30.5963 32.3004 29.6631C36.8837 25.1342 36.8837 17.7921 32.3004 13.2632C29.381 10.373 25.2949 9.32728 21.5365 10.1233M22.6226 10.4499C29.0615 10.4499 34.2837 15.6155 34.2837 21.9778C34.2837 23.9897 33.7671 25.8781 32.8532 27.5222C33.2615 26.3419 33.4837 25.0711 33.4837 23.7536C33.4837 17.3474 28.2282 12.1544 21.7449 12.1544C17.6115 12.1544 13.9782 14.2678 11.8865 17.4599C13.6643 13.3401 17.7976 10.4499 22.6226 10.4499Z" fill="white"/>
<path d="M31.9722 57.3376L22.6333 69.1921C23.4361 70.1665 24.1111 70.9597 24.6139 71.5444C25.1389 72.1537 26.0861 72.1537 26.6111 71.5444C28.0944 69.8234 31.0722 66.269 34.4611 61.688C34.825 61.1967 34.7972 60.5215 34.3917 60.0659L31.975 57.3376H31.9722ZM29.1306 46.9295L36.7806 55.57C37.3528 56.215 38.3861 56.1464 38.8667 55.43C45.1194 46.0677 51.2278 34.5535 51.2278 25.3092C51.2278 11.3303 39.7583 0 25.6139 0C11.4694 0 0 11.3303 0 25.3092C0 39.2882 14.225 58.8088 21.475 67.7758L30.7861 55.957C31.1722 55.4657 31.1528 54.774 30.7389 54.3074L22.7889 45.3294C21.9833 44.4181 20.9306 43.7649 19.7639 43.3971C11.8111 40.8884 6.11111 33.4007 6.41389 24.645C6.75278 14.8298 14.775 6.80146 24.7056 6.35133C35.7278 5.84904 44.825 14.5279 44.825 25.312C44.825 34.2516 38.5722 41.7475 30.1528 43.7594C28.7139 44.1025 28.1583 45.8289 29.1306 46.9295Z" fill="white"/>
<path d="M72.8455 56.5963H65.7344V35.3273H72.8455V56.5963ZM72.8455 20.9668H65.7344V27.9933H72.8455V20.9668ZM199.998 28.0674V21.0409H172.776C168.004 21.0409 164.134 24.8643 164.134 29.5798V48.0601C164.134 52.7756 168.004 56.599 172.776 56.599H199.998V49.5697H174.234C172.584 49.5697 171.245 48.2468 171.245 46.6164V31.018C171.245 29.3877 172.584 28.0647 174.234 28.0647H199.998V28.0674ZM86.5788 33.793V29.5551C86.5788 28.7344 87.2538 28.0674 88.0844 28.0674H111.995V21.0409H86.1288C82.4483 21.0409 79.4649 23.9888 79.4649 27.6255V35.728C79.4649 39.3648 82.4483 42.3126 86.1288 42.3126H106.884C107.715 42.3126 108.39 42.9796 108.39 43.8003V48.0848C108.39 48.9082 107.715 49.5725 106.884 49.5725H82.9733V56.6017H108.84C112.52 56.6017 115.504 53.6539 115.504 50.0171V41.868C115.504 38.2312 112.52 35.2834 108.84 35.2834H88.0844C87.2538 35.2834 86.5788 34.6164 86.5788 33.7957M148.17 28.0702L145.268 21.0409H133.404L130.77 28.0702L120.101 56.599H127.684L138.354 28.0702H140.484L152.257 56.599H159.94L148.168 28.0702H148.17Z" fill="white"/>
</g>
<path d="M29.4241 24.101L23.1186 31.8741L24.9491 26.3599L21.3047 26.3435L27.5019 18.6582L25.6964 24.0955V24.101H29.4241Z" fill="#ED2024"/>
</svg>
