<svg width="95" height="96" viewBox="0 0 95 96" fill="none" xmlns="http://www.w3.org/2000/svg">
<path d="M62.3438 18.3125H32.6562C32.2626 18.3125 31.885 18.4689 31.6066 18.7473C31.3283 19.0256 31.1719 19.4032 31.1719 19.7969V88.0781C31.1719 88.4718 31.3283 88.8494 31.6066 89.1277C31.885 89.4061 32.2626 89.5625 32.6562 89.5625H62.3438C62.7374 89.5625 63.115 89.4061 63.3934 89.1277C63.6717 88.8494 63.8281 88.4718 63.8281 88.0781V19.7969C63.8281 19.4032 63.6717 19.0256 63.3934 18.7473C63.115 18.4689 62.7374 18.3125 62.3438 18.3125ZM59.1078 45.7734C59.3915 45.7135 59.6866 45.7379 59.9566 45.8438C60.2266 45.9496 60.4597 46.1322 60.6271 46.3691C60.7944 46.6059 60.8887 46.8866 60.8984 47.1764C60.908 47.4663 60.8325 47.7526 60.6813 48L42.8687 79.9141C42.6921 80.2341 42.4036 80.4778 42.0585 80.5983C41.7134 80.7188 41.3359 80.7077 40.9984 80.5672C40.6638 80.4254 40.3928 80.1657 40.2369 79.8374C40.0809 79.5091 40.0508 79.1349 40.1523 78.7859L45.5109 60.0234L38.5938 60.4094L41.7703 57.2328L48.2422 50.8203L51.9531 47.1094L59.1078 45.7734ZM46.2531 48.6234L38.1039 56.7578L34.675 60.1867C34.5947 60.1236 34.5246 60.0485 34.4672 59.9641C34.3195 59.764 34.2244 59.53 34.1907 59.2836C34.1569 59.0372 34.1857 58.7863 34.2742 58.5539L46.1492 26.6398C46.2619 26.3739 46.4496 26.1465 46.6896 25.9857C46.9295 25.8248 47.2112 25.7375 47.5 25.7344H56.4062C56.6494 25.734 56.8889 25.7934 57.1037 25.9073C57.3186 26.0211 57.5021 26.1861 57.6383 26.3875C57.7737 26.5881 57.858 26.8187 57.8839 27.0593C57.9097 27.2999 57.8764 27.5432 57.7867 27.768L51.5672 43.2945L46.2531 48.6234Z" fill="#F04438"/>
<path d="M62.3438 18.3125H32.6562C32.2626 18.3125 31.885 18.4689 31.6066 18.7473C31.3283 19.0256 31.1719 19.4032 31.1719 19.7969V88.0781C31.1719 88.4718 31.3283 88.8494 31.6066 89.1277C31.885 89.4061 32.2626 89.5625 32.6562 89.5625H62.3438C62.7374 89.5625 63.115 89.4061 63.3934 89.1277C63.6717 88.8494 63.8281 88.4718 63.8281 88.0781V19.7969C63.8281 19.4032 63.6717 19.0256 63.3934 18.7473C63.115 18.4689 62.7374 18.3125 62.3438 18.3125ZM59.1078 45.7734C59.3915 45.7135 59.6866 45.7379 59.9566 45.8438C60.2266 45.9496 60.4597 46.1322 60.6271 46.3691C60.7944 46.6059 60.8887 46.8866 60.8984 47.1764C60.908 47.4663 60.8325 47.7526 60.6813 48L42.8687 79.9141C42.6921 80.2341 42.4036 80.4778 42.0585 80.5983C41.7134 80.7188 41.3359 80.7077 40.9984 80.5672C40.6638 80.4254 40.3928 80.1657 40.2369 79.8374C40.0809 79.5091 40.0508 79.1349 40.1523 78.7859L45.5109 60.0234L38.5938 60.4094L41.7703 57.2328L48.2422 50.8203L51.9531 47.1094L59.1078 45.7734ZM46.2531 48.6234L38.1039 56.7578L34.675 60.1867C34.5947 60.1236 34.5246 60.0485 34.4672 59.9641C34.3195 59.764 34.2244 59.53 34.1907 59.2836C34.1569 59.0372 34.1857 58.7863 34.2742 58.5539L46.1492 26.6398C46.2619 26.3739 46.4496 26.1465 46.6896 25.9857C46.9295 25.8248 47.2112 25.7375 47.5 25.7344H56.4062C56.6494 25.734 56.8889 25.7934 57.1037 25.9073C57.3186 26.0211 57.5021 26.1861 57.6383 26.3875C57.7737 26.5881 57.858 26.8187 57.8839 27.0593C57.9097 27.2999 57.8764 27.5432 57.7867 27.768L51.5672 43.2945L46.2531 48.6234Z" fill="#F04438"/>
<path d="M53.4375 10.8906V15.3438H41.5625V10.8906C41.5625 10.4969 41.7189 10.1194 41.9973 9.84101C42.2756 9.56264 42.6532 9.40625 43.0469 9.40625H51.9531C52.3468 9.40625 52.7244 9.56264 53.0027 9.84101C53.2811 10.1194 53.4375 10.4969 53.4375 10.8906Z" fill="#F04438"/>
<path d="M53.4375 10.8906V15.3438H41.5625V10.8906C41.5625 10.4969 41.7189 10.1194 41.9973 9.84101C42.2756 9.56264 42.6532 9.40625 43.0469 9.40625H51.9531C52.3468 9.40625 52.7244 9.56264 53.0027 9.84101C53.2811 10.1194 53.4375 10.4969 53.4375 10.8906Z" fill="#F04438"/>
<path d="M51.9508 47.1133L48.2398 50.8242L41.8273 57.2367L38.5914 60.4133L35.6227 60.5914C35.4265 60.6044 35.2296 60.5783 35.0436 60.5146C34.8576 60.4509 34.6861 60.3508 34.5391 60.2203L37.968 56.7914L46.1172 48.657L51.4312 43.3281L49.7539 47.5289L51.9508 47.1133Z" fill="#F04438"/>
<path d="M48.2406 50.8234L41.8281 57.2359L37.8203 57.4883L38.0727 56.7906L46.2219 48.6562L46.118 48.9234C46.0087 49.173 45.9703 49.4479 46.0068 49.7179C46.0434 49.9878 46.1535 50.2426 46.3252 50.4541C46.4969 50.6656 46.7235 50.8259 46.9802 50.9172C47.2369 51.0085 47.5137 51.0274 47.7805 50.9719L48.2406 50.8234Z" fill="#F04438"/>
<path d="M19.7437 75.1328L28.2046 66.6719V70.8578L21.8367 77.2258C20.5304 78.6062 18.3929 76.4836 19.7437 75.1328Z" fill="#F04438"/>
<path d="M51.5672 43.2922L63.8281 31.0312V35.232L48.2422 50.818L41.8297 57.2305L38.6531 60.407L31.1719 67.8883V63.7023L34.6453 60.2141L38.0742 56.7852L38.0891 56.7703L46.2383 48.6359L46.2531 48.6211L51.5672 43.2922Z" fill="#F04438"/>
<path d="M75.2727 23.7891L66.7969 32.2649V28.0641L73.1797 21.6813C73.4592 21.4038 73.8375 21.2486 74.2314 21.25C74.6253 21.2514 75.0025 21.4092 75.2801 21.6887C75.5576 21.9682 75.7128 22.3466 75.7114 22.7405C75.71 23.1344 75.5522 23.5116 75.2727 23.7891Z" fill="#F04438"/>
</svg>
