<svg width="320" height="180" viewBox="0 0 320 180" fill="none" xmlns="http://www.w3.org/2000/svg">
<g clip-path="url(#clip0_41_17761)">
<g filter="url(#filter0_bd_41_17761)">
<path d="M0 20C0 8.9543 8.95431 0 20 0H334C345.046 0 354 8.95431 354 20V205C354 216.046 345.046 225 334 225H20C8.9543 225 0 216.046 0 205V20Z" fill="url(#paint0_linear_41_17761)"/>
</g>
<g opacity="0.3">
<path d="M58.4792 -70.8456L58.6152 -63.5516C59.6462 -8.23517 130.164 22.0428 194.104 -5.37684L202.838 -9.1222C262.906 -34.8814 329.071 -6.17664 329.534 45.8435L329.67 61.1956C330.01 99.3834 373.841 123.6 420.616 111.443V111.443" stroke="url(#paint1_linear_41_17761)" stroke-width="0.653416"/>
<path d="M55.319 -66.7245L55.455 -59.4305C56.4861 -4.11407 127.003 26.1639 190.944 -1.25575L199.678 -5.00111C259.746 -30.7603 325.91 -2.05555 326.373 49.9646L326.51 65.3167C326.85 103.504 370.681 127.721 417.456 115.564V115.564" stroke="url(#paint2_linear_41_17761)" stroke-width="0.653416"/>
<path d="M52.1589 -62.6034L52.2948 -55.3094C53.3259 0.00702178 123.843 30.285 187.784 2.86535L196.517 -0.880012C256.586 -26.6392 322.75 2.06555 323.213 54.0857L323.35 69.4378C323.69 107.626 367.521 131.842 414.296 119.685V119.685" stroke="url(#paint3_linear_41_17761)" stroke-width="0.653416"/>
<path d="M48.9948 -58.4823L49.1308 -51.1883C50.1619 4.12812 120.679 34.4061 184.62 6.98644L193.353 3.24108C253.422 -22.5181 319.586 6.18664 320.049 58.2067L320.186 73.5589C320.526 111.747 364.357 135.963 411.132 123.806V123.806" stroke="url(#paint4_linear_41_17761)" stroke-width="0.653416"/>
<path d="M45.8347 -54.3612L45.9706 -47.0672C47.0017 8.24921 117.519 38.5272 181.459 11.1075L190.193 7.36218C250.262 -18.397 316.426 10.3077 316.889 62.3278L317.026 77.6799C317.366 115.868 361.197 140.084 407.972 127.927V127.927" stroke="url(#paint5_linear_41_17761)" stroke-width="0.653416"/>
<path d="M42.6706 -50.2402L42.8066 -42.9461C43.8377 12.3703 114.355 42.6483 178.295 15.2286L187.029 11.4833C247.098 -14.2759 313.262 14.4288 313.725 66.4489L313.862 81.801C314.202 119.989 358.033 144.205 404.808 132.048V132.048" stroke="url(#paint6_linear_41_17761)" stroke-width="0.653416"/>
<path d="M39.5104 -46.1191L39.6464 -38.825C40.6775 16.4914 111.195 46.7694 175.135 19.3497L183.869 15.6044C243.937 -10.1548 310.102 18.5499 310.565 70.57L310.702 85.9221C311.041 124.11 354.873 148.326 401.648 136.169V136.169" stroke="url(#paint7_linear_41_17761)" stroke-width="0.653416"/>
<path d="M36.3464 -41.998L36.4823 -34.7039C37.5134 20.6125 108.031 50.8905 171.971 23.4708L180.705 19.7255C240.773 -6.03373 306.938 22.671 307.401 74.6911L307.537 90.0432C307.877 128.231 351.709 152.447 398.483 140.291V140.291" stroke="url(#paint8_linear_41_17761)" stroke-width="0.653416"/>
<path d="M33.1862 -37.8769L33.3222 -30.5828C34.3533 24.7336 104.871 55.0115 168.811 27.5919L177.545 23.8466C237.613 -1.91264 303.778 26.7921 304.241 78.8122L304.377 94.1643C304.717 132.352 348.548 156.569 395.323 144.412V144.412" stroke="url(#paint9_linear_41_17761)" stroke-width="0.653416"/>
<path d="M30.0261 -33.7558L30.162 -26.4618C31.1931 28.8547 101.71 59.1326 165.651 31.713L174.385 27.9676C234.453 2.20845 300.617 30.9132 301.08 82.9333L301.217 98.2854C301.557 136.473 345.388 160.69 392.163 148.533V148.533" stroke="url(#paint10_linear_41_17761)" stroke-width="0.653416"/>
<path d="M26.862 -29.6347L26.998 -22.3407C28.0291 32.9758 98.5463 63.2537 162.487 35.8341L171.221 32.0887C231.289 6.32955 297.453 35.0343 297.916 87.0544L298.053 102.407C298.393 140.594 342.224 164.811 388.999 152.654V152.654" stroke="url(#paint11_linear_41_17761)" stroke-width="0.653416"/>
<path d="M23.7019 -25.5136L23.8378 -18.2196C24.8689 37.0969 95.3862 67.3748 159.327 39.9552L168.06 36.2098C228.129 10.4506 294.293 39.1554 294.756 91.1755L294.893 106.528C295.233 144.715 339.064 168.932 385.839 156.775V156.775" stroke="url(#paint12_linear_41_17761)" stroke-width="0.653416"/>
<path d="M20.5417 -21.3925L20.6777 -14.0985C21.7087 41.218 92.226 71.4959 156.166 44.0763L164.9 40.3309C224.969 14.5717 291.133 43.2765 291.596 95.2966L291.733 110.649C292.073 148.836 335.904 173.053 382.679 160.896V160.896" stroke="url(#paint13_linear_41_17761)" stroke-width="0.653416"/>
<path d="M17.3776 -17.2714L17.5136 -9.97738C18.5447 45.3391 89.062 75.617 153.002 48.1974L161.736 44.452C221.805 18.6928 287.969 47.3976 288.432 99.4177L288.569 114.77C288.909 152.958 332.74 177.174 379.515 165.017V165.017" stroke="url(#paint14_linear_41_17761)" stroke-width="0.653416"/>
<path d="M14.2175 -13.1503L14.3534 -5.85629C15.3845 49.4601 85.9018 79.7381 149.842 52.3185L158.576 48.5731C218.644 22.8139 284.809 51.5187 285.272 103.539L285.409 118.891C285.749 157.079 329.58 181.295 376.355 169.138V169.138" stroke="url(#paint15_linear_41_17761)" stroke-width="0.653416"/>
<path d="M11.1276 -9.12687L11.2636 -1.83285C12.2947 53.4836 82.812 83.7615 146.752 56.3419L155.486 52.5966C215.555 26.8374 281.719 55.5421 282.182 107.562L282.319 122.914C282.659 161.102 326.49 185.319 373.265 173.162V173.162" stroke="url(#paint16_linear_41_17761)" stroke-width="0.653416"/>
<path d="M8.0417 -5.10344L8.17766 2.19059C9.20875 57.507 79.726 87.785 143.666 60.3653L152.4 56.62C212.469 30.8608 278.633 59.5655 279.096 111.586L279.233 126.938C279.573 165.126 323.404 189.342 370.179 177.185V177.185" stroke="url(#paint17_linear_41_17761)" stroke-width="0.653416"/>
<path d="M4.95576 -1.08L5.09172 6.21403C6.12281 61.5305 76.6401 91.8084 140.58 64.3888L149.314 60.6434C209.383 34.8842 275.547 63.589 276.01 115.609L276.147 130.961C276.487 169.149 320.318 193.365 367.093 181.209V181.209" stroke="url(#paint18_linear_41_17761)" stroke-width="0.653416"/>
<path d="M1.86982 2.94344L2.00578 10.2375C3.03687 65.5539 73.5541 95.8319 137.495 68.4122L146.228 64.6669C206.297 38.9077 272.461 67.6124 272.924 119.633L273.061 134.985C273.401 173.172 317.232 197.389 364.007 185.232V185.232" stroke="url(#paint19_linear_41_17761)" stroke-width="0.653416"/>
<path d="M-1.21611 6.96688L-1.08015 14.2609C-0.0490665 69.5773 70.4682 99.8553 134.409 72.4357L143.142 68.6903C203.211 42.9311 269.375 71.6359 269.838 123.656L269.975 139.008C270.315 177.196 314.146 201.412 360.921 189.255V189.255" stroke="url(#paint20_linear_41_17761)" stroke-width="0.653416"/>
<path d="M-4.30596 10.9903L-4.17 18.2843C-3.13891 73.6008 67.3784 103.879 131.319 76.4591L140.053 72.7137C200.121 46.9545 266.285 75.6593 266.748 127.679L266.885 143.032C267.225 181.219 311.056 205.436 357.831 193.279V193.279" stroke="url(#paint21_linear_41_17761)" stroke-width="0.653416"/>
<path d="M-7.39189 15.0138L-7.25593 22.3078C-6.22485 77.6242 64.2924 107.902 128.233 80.4825L136.967 76.7372C197.035 50.978 263.199 79.6827 263.663 131.703L263.799 147.055C264.139 185.243 307.97 209.459 354.745 197.302V197.302" stroke="url(#paint22_linear_41_17761)" stroke-width="0.653416"/>
<path d="M-10.4778 19.0372L-10.3419 26.3312C-9.31079 81.6476 61.2065 111.926 125.147 84.506L133.881 80.7606C193.949 55.0014 260.113 83.7062 260.577 135.726L260.713 151.078C261.053 189.266 304.884 213.483 351.659 201.326V201.326" stroke="url(#paint23_linear_41_17761)" stroke-width="0.653416"/>
<path d="M-13.5638 23.0606L-13.4278 30.3547C-12.3967 85.6711 58.1206 115.949 122.061 88.5294L130.795 84.7841C190.863 59.0249 257.028 87.7296 257.491 139.75L257.627 155.102C257.967 193.29 301.798 217.506 348.573 205.349V205.349" stroke="url(#paint24_linear_41_17761)" stroke-width="0.653416"/>
<path d="M-16.6536 27.0841L-16.5177 34.3781C-15.4866 89.6945 55.0307 119.972 118.971 92.5528L127.705 88.8075C187.773 63.0483 253.938 91.753 254.401 143.773L254.537 159.125C254.877 197.313 298.709 221.53 345.483 209.373V209.373" stroke="url(#paint25_linear_41_17761)" stroke-width="0.653416"/>
<path d="M-19.7396 31.1075L-19.6036 38.4015C-18.5725 93.718 51.9448 123.996 115.885 96.5763L124.619 92.8309C184.687 67.0717 250.852 95.7765 251.315 147.797L251.452 163.149C251.791 201.336 295.623 225.553 342.398 213.396V213.396" stroke="url(#paint26_linear_41_17761)" stroke-width="0.653416"/>
<path d="M-22.8255 35.1309L-22.6895 42.425C-21.6584 97.7414 48.8588 128.019 112.799 100.6L121.533 96.8544C181.601 71.0952 247.766 99.7999 248.229 151.82L248.366 167.172C248.706 205.36 292.537 229.576 339.312 217.419V217.419" stroke="url(#paint27_linear_41_17761)" stroke-width="0.653416"/>
<path d="M-25.9114 39.1544L-25.7755 46.4484C-24.7444 101.765 45.7729 132.043 109.713 104.623L118.447 100.878C178.515 75.1186 244.68 103.823 245.143 155.843L245.28 171.196C245.62 209.383 289.451 233.6 336.226 221.443V221.443" stroke="url(#paint28_linear_41_17761)" stroke-width="0.653416"/>
<path d="M-29.0013 43.1817L-28.8653 50.4757C-27.8342 105.792 42.6831 136.07 106.623 108.651L115.357 104.905C175.426 79.146 241.59 107.851 242.053 159.871L242.19 175.223C242.53 213.411 286.361 237.627 333.136 225.47V225.47" stroke="url(#paint29_linear_41_17761)" stroke-width="0.653416"/>
</g>
</g>
<defs>
<filter id="filter0_bd_41_17761" x="-20" y="-20" width="418" height="292" filterUnits="userSpaceOnUse" color-interpolation-filters="sRGB">
<feFlood flood-opacity="0" result="BackgroundImageFix"/>
<feGaussianBlur in="BackgroundImageFix" stdDeviation="10"/>
<feComposite in2="SourceAlpha" operator="in" result="effect1_backgroundBlur_41_17761"/>
<feColorMatrix in="SourceAlpha" type="matrix" values="0 0 0 0 0 0 0 0 0 0 0 0 0 0 0 0 0 0 127 0" result="hardAlpha"/>
<feOffset dx="14" dy="17"/>
<feGaussianBlur stdDeviation="15"/>
<feComposite in2="hardAlpha" operator="out"/>
<feColorMatrix type="matrix" values="0 0 0 0 0 0 0 0 0 0 0 0 0 0 0 0 0 0 0.05 0"/>
<feBlend mode="normal" in2="effect1_backgroundBlur_41_17761" result="effect2_dropShadow_41_17761"/>
<feBlend mode="normal" in="SourceGraphic" in2="effect2_dropShadow_41_17761" result="shape"/>
</filter>
<linearGradient id="paint0_linear_41_17761" x1="0" y1="112.5" x2="354" y2="112.5" gradientUnits="userSpaceOnUse">
<stop/>
<stop offset="1" stop-color="#575757"/>
</linearGradient>
<linearGradient id="paint1_linear_41_17761" x1="309.753" y1="-71.2107" x2="225.255" y2="123.271" gradientUnits="userSpaceOnUse">
<stop stop-color="white"/>
<stop offset="1" stop-opacity="0.25"/>
</linearGradient>
<linearGradient id="paint2_linear_41_17761" x1="306.593" y1="-67.0896" x2="222.095" y2="127.392" gradientUnits="userSpaceOnUse">
<stop stop-color="white"/>
<stop offset="1" stop-opacity="0.25"/>
</linearGradient>
<linearGradient id="paint3_linear_41_17761" x1="303.433" y1="-62.9685" x2="218.934" y2="131.513" gradientUnits="userSpaceOnUse">
<stop stop-color="white"/>
<stop offset="1" stop-opacity="0.25"/>
</linearGradient>
<linearGradient id="paint4_linear_41_17761" x1="300.269" y1="-58.8474" x2="215.77" y2="135.634" gradientUnits="userSpaceOnUse">
<stop stop-color="white"/>
<stop offset="1" stop-opacity="0.25"/>
</linearGradient>
<linearGradient id="paint5_linear_41_17761" x1="297.109" y1="-54.7263" x2="212.61" y2="139.755" gradientUnits="userSpaceOnUse">
<stop stop-color="white"/>
<stop offset="1" stop-opacity="0.25"/>
</linearGradient>
<linearGradient id="paint6_linear_41_17761" x1="293.945" y1="-50.6052" x2="209.446" y2="143.876" gradientUnits="userSpaceOnUse">
<stop stop-color="white"/>
<stop offset="1" stop-opacity="0.25"/>
</linearGradient>
<linearGradient id="paint7_linear_41_17761" x1="290.785" y1="-46.4841" x2="206.286" y2="147.997" gradientUnits="userSpaceOnUse">
<stop stop-color="white"/>
<stop offset="1" stop-opacity="0.25"/>
</linearGradient>
<linearGradient id="paint8_linear_41_17761" x1="287.621" y1="-42.363" x2="203.122" y2="152.118" gradientUnits="userSpaceOnUse">
<stop stop-color="white"/>
<stop offset="1" stop-opacity="0.25"/>
</linearGradient>
<linearGradient id="paint9_linear_41_17761" x1="284.46" y1="-38.2419" x2="199.962" y2="156.239" gradientUnits="userSpaceOnUse">
<stop stop-color="white"/>
<stop offset="1" stop-opacity="0.25"/>
</linearGradient>
<linearGradient id="paint10_linear_41_17761" x1="281.3" y1="-34.1208" x2="196.802" y2="160.36" gradientUnits="userSpaceOnUse">
<stop stop-color="white"/>
<stop offset="1" stop-opacity="0.25"/>
</linearGradient>
<linearGradient id="paint11_linear_41_17761" x1="278.136" y1="-29.9997" x2="193.638" y2="164.482" gradientUnits="userSpaceOnUse">
<stop stop-color="white"/>
<stop offset="1" stop-opacity="0.25"/>
</linearGradient>
<linearGradient id="paint12_linear_41_17761" x1="274.976" y1="-25.8786" x2="190.477" y2="168.603" gradientUnits="userSpaceOnUse">
<stop stop-color="white"/>
<stop offset="1" stop-opacity="0.25"/>
</linearGradient>
<linearGradient id="paint13_linear_41_17761" x1="271.816" y1="-21.7575" x2="187.317" y2="172.724" gradientUnits="userSpaceOnUse">
<stop stop-color="white"/>
<stop offset="1" stop-opacity="0.25"/>
</linearGradient>
<linearGradient id="paint14_linear_41_17761" x1="268.652" y1="-17.6364" x2="184.153" y2="176.845" gradientUnits="userSpaceOnUse">
<stop stop-color="white"/>
<stop offset="1" stop-opacity="0.25"/>
</linearGradient>
<linearGradient id="paint15_linear_41_17761" x1="265.492" y1="-13.5154" x2="180.993" y2="180.966" gradientUnits="userSpaceOnUse">
<stop stop-color="white"/>
<stop offset="1" stop-opacity="0.25"/>
</linearGradient>
<linearGradient id="paint16_linear_41_17761" x1="262.402" y1="-9.49192" x2="177.903" y2="184.989" gradientUnits="userSpaceOnUse">
<stop stop-color="white"/>
<stop offset="1" stop-opacity="0.25"/>
</linearGradient>
<linearGradient id="paint17_linear_41_17761" x1="259.316" y1="-5.46848" x2="174.817" y2="189.013" gradientUnits="userSpaceOnUse">
<stop stop-color="white"/>
<stop offset="1" stop-opacity="0.25"/>
</linearGradient>
<linearGradient id="paint18_linear_41_17761" x1="256.23" y1="-1.44504" x2="171.731" y2="193.036" gradientUnits="userSpaceOnUse">
<stop stop-color="white"/>
<stop offset="1" stop-opacity="0.25"/>
</linearGradient>
<linearGradient id="paint19_linear_41_17761" x1="253.144" y1="2.57839" x2="168.645" y2="197.06" gradientUnits="userSpaceOnUse">
<stop stop-color="white"/>
<stop offset="1" stop-opacity="0.25"/>
</linearGradient>
<linearGradient id="paint20_linear_41_17761" x1="250.058" y1="6.60183" x2="165.559" y2="201.083" gradientUnits="userSpaceOnUse">
<stop stop-color="white"/>
<stop offset="1" stop-opacity="0.25"/>
</linearGradient>
<linearGradient id="paint21_linear_41_17761" x1="246.968" y1="10.6253" x2="162.47" y2="205.107" gradientUnits="userSpaceOnUse">
<stop stop-color="white"/>
<stop offset="1" stop-opacity="0.25"/>
</linearGradient>
<linearGradient id="paint22_linear_41_17761" x1="243.882" y1="14.6487" x2="159.384" y2="209.13" gradientUnits="userSpaceOnUse">
<stop stop-color="white"/>
<stop offset="1" stop-opacity="0.25"/>
</linearGradient>
<linearGradient id="paint23_linear_41_17761" x1="240.796" y1="18.6721" x2="156.298" y2="213.153" gradientUnits="userSpaceOnUse">
<stop stop-color="white"/>
<stop offset="1" stop-opacity="0.25"/>
</linearGradient>
<linearGradient id="paint24_linear_41_17761" x1="237.71" y1="22.6956" x2="153.212" y2="217.177" gradientUnits="userSpaceOnUse">
<stop stop-color="white"/>
<stop offset="1" stop-opacity="0.25"/>
</linearGradient>
<linearGradient id="paint25_linear_41_17761" x1="234.621" y1="26.719" x2="150.122" y2="221.2" gradientUnits="userSpaceOnUse">
<stop stop-color="white"/>
<stop offset="1" stop-opacity="0.25"/>
</linearGradient>
<linearGradient id="paint26_linear_41_17761" x1="231.535" y1="30.7425" x2="147.036" y2="225.224" gradientUnits="userSpaceOnUse">
<stop stop-color="white"/>
<stop offset="1" stop-opacity="0.25"/>
</linearGradient>
<linearGradient id="paint27_linear_41_17761" x1="228.449" y1="34.7659" x2="143.95" y2="229.247" gradientUnits="userSpaceOnUse">
<stop stop-color="white"/>
<stop offset="1" stop-opacity="0.25"/>
</linearGradient>
<linearGradient id="paint28_linear_41_17761" x1="225.363" y1="38.7893" x2="140.864" y2="233.271" gradientUnits="userSpaceOnUse">
<stop stop-color="white"/>
<stop offset="1" stop-opacity="0.25"/>
</linearGradient>
<linearGradient id="paint29_linear_41_17761" x1="222.273" y1="42.8167" x2="137.774" y2="237.298" gradientUnits="userSpaceOnUse">
<stop stop-color="white"/>
<stop offset="1" stop-opacity="0.25"/>
</linearGradient>
<clipPath id="clip0_41_17761">
<rect width="320" height="180" rx="20" fill="white"/>
</clipPath>
</defs>
</svg>
