<svg width="360" height="225" viewBox="0 0 360 225" fill="none" xmlns="http://www.w3.org/2000/svg">
<rect x="0.5" y="0.5" width="359" height="224" rx="15.5" fill="#212121" stroke="url(#paint0_linear_16257_1541)"/>
<mask id="mask0_16257_1541" style="mask-type:alpha" maskUnits="userSpaceOnUse" x="0" y="0" width="360" height="225">
<rect width="360" height="225" rx="16" fill="#16084C"/>
</mask>
<g mask="url(#mask0_16257_1541)">
<path d="M29.5234 -4.83803C45.5536 -6.65265 61.3824 -7.70431 77.5448 -7.58451C92.2974 -7.47516 109.333 -8.06446 122.821 -0.999999C132.707 4.17774 140.376 12.4162 144.247 22.8732C147.22 30.9034 148.154 39.6885 151.662 47.5563C154.624 54.1962 160.088 61.9486 165.281 67.1338C174.098 75.9377 188.328 81.1854 200.539 82.9085C213.484 84.7349 227.033 82.384 240.005 82.0282C255.168 81.6122 269.182 82.8395 282.429 90.7254C290.649 95.6189 295.819 103.777 303.142 109.88C311.685 116.999 323.713 121.232 334.051 124.951C350.552 130.886 367.388 133.957 384.889 135.303C395.984 136.156 407.402 135.706 418.4 134.035C425.082 133.02 430.873 131.283 436.368 127.415C441.546 123.771 447.128 120.053 448.561 113.683" stroke="url(#paint1_linear_16257_1541)" stroke-width="0.4" stroke-linecap="round"/>
<path d="M50.7031 -16.0255C66.7333 -17.8402 82.5621 -18.8918 98.7245 -18.772C113.477 -18.6627 130.513 -19.252 144.001 -12.1875C153.886 -7.00976 161.556 1.22868 165.427 11.6857C168.399 19.7159 169.333 28.501 172.842 36.3688C175.803 43.0087 181.268 50.7611 186.461 55.9463C195.278 64.7502 209.507 69.9979 221.719 71.721C234.664 73.5474 248.213 71.1965 261.184 70.8407C276.348 70.4247 290.362 71.652 303.609 79.5379C311.829 84.4314 316.998 92.5898 324.322 98.6928C332.864 105.812 344.893 110.045 355.231 113.763C371.732 119.699 388.568 122.769 406.069 124.115C417.164 124.969 428.582 124.519 439.58 122.848C446.261 121.832 452.053 120.096 457.548 116.228C462.725 112.584 468.307 108.866 469.741 102.496" stroke="url(#paint2_linear_16257_1541)" stroke-width="0.4" stroke-linecap="round"/>
<path d="M71.2422 -29.3302C87.2724 -31.1448 103.101 -32.1965 119.264 -32.0767C134.016 -31.9673 151.052 -32.5566 164.54 -25.4922C174.425 -20.3144 182.095 -12.076 185.966 -1.61895C188.938 6.4112 189.872 15.1964 193.381 23.0642C196.342 29.704 201.807 37.4564 207 42.6416C215.817 51.4455 230.046 56.6932 242.258 58.4163C255.203 60.2427 268.752 57.8919 281.723 57.536C296.887 57.12 310.901 58.3474 324.148 66.2332C332.368 71.1267 337.537 79.2851 344.861 85.3881C353.403 92.5071 365.432 96.7398 375.77 100.459C392.271 106.394 409.107 109.464 426.608 110.811C437.703 111.664 449.121 111.214 460.119 109.543C466.8 108.528 472.592 106.791 478.087 102.923C483.264 99.2792 488.846 95.561 490.28 89.1909" stroke="url(#paint3_linear_16257_1541)" stroke-width="0.4" stroke-linecap="round"/>
<path d="M85.3516 -42.6427C101.382 -44.4573 117.211 -45.509 133.373 -45.3892C148.126 -45.2798 165.161 -45.8691 178.649 -38.8047C188.535 -33.6269 196.205 -25.3885 200.075 -14.9314C203.048 -6.9013 203.982 1.88386 207.491 9.75165C210.452 16.3915 215.916 24.1439 221.109 29.3291C229.926 38.133 244.156 43.3807 256.368 45.1038C269.312 46.9302 282.862 44.5794 295.833 44.2235C310.996 43.8075 325.011 45.0349 338.257 52.9207C346.477 57.8142 351.647 65.9726 358.97 72.0756C367.513 79.1946 379.541 83.4273 389.879 87.146C406.381 93.0817 423.217 96.1518 440.717 97.4981C451.812 98.3517 463.23 97.9017 474.229 96.2305C480.91 95.2153 486.702 93.4784 492.196 89.6108C497.374 85.9667 502.956 82.2485 504.389 75.8784" stroke="url(#paint4_linear_16257_1541)" stroke-width="0.4" stroke-linecap="round"/>
<path d="M96.2656 -52.3693C112.296 -54.1839 128.125 -55.2356 144.287 -55.1158C159.04 -55.0064 176.076 -55.5957 189.563 -48.5312C199.449 -43.3535 207.119 -35.1151 210.989 -24.658C213.962 -16.6279 214.896 -7.84271 218.405 0.0250918C221.366 6.66493 226.83 14.4174 232.023 19.6026C240.84 28.4065 255.07 33.6541 267.282 35.3772C280.226 37.2036 293.776 34.8528 306.747 34.4969C321.91 34.0809 335.925 35.3083 349.171 43.1941C357.391 48.0876 362.561 56.246 369.884 62.349C378.427 69.4681 390.455 73.7008 400.793 77.4195C417.295 83.3552 434.131 86.4253 451.631 87.7716C462.726 88.6251 474.144 88.1752 485.143 86.504C491.824 85.4887 497.616 83.7519 503.111 79.8842C508.288 76.2401 513.87 72.5219 515.303 66.1519" stroke="url(#paint5_linear_16257_1541)" stroke-width="0.4" stroke-linecap="round"/>
<path d="M117.43 -63.549C133.46 -65.3636 149.289 -66.4152 165.451 -66.2954C180.204 -66.1861 197.24 -66.7754 210.727 -59.7109C220.613 -54.5332 228.283 -46.2948 232.153 -35.8377C235.126 -27.8076 236.06 -19.0224 239.569 -11.1546C242.53 -4.51476 247.994 3.23767 253.187 8.42287C262.004 17.2268 276.234 22.4744 288.446 24.1975C301.39 26.0239 314.94 23.6731 327.911 23.3172C343.074 22.9012 357.089 24.1286 370.335 32.0144C378.555 36.908 383.725 45.0664 391.048 51.1693C399.591 58.2884 411.619 62.5211 421.957 66.2398C438.459 72.1755 455.295 75.2456 472.795 76.5919C483.89 77.4454 495.308 76.9955 506.307 75.3243C512.988 74.309 518.78 72.5722 524.275 68.7046C529.452 65.0604 535.034 61.3422 536.467 54.9722" stroke="url(#paint6_linear_16257_1541)" stroke-width="0.4" stroke-linecap="round"/>
<path d="M137.977 -76.8693C154.007 -78.6839 169.836 -79.7356 185.998 -79.6158C200.751 -79.5064 217.786 -80.0957 231.274 -73.0312C241.16 -67.8535 248.83 -59.6151 252.7 -49.158C255.673 -41.1279 256.607 -32.3427 260.116 -24.4749C263.077 -17.8351 268.541 -10.0826 273.734 -4.89745C282.551 3.90646 296.781 9.15414 308.993 10.8772C321.937 12.7036 335.487 10.3528 348.458 9.99692C363.621 9.5809 377.636 10.8083 390.882 18.6941C399.102 23.5876 404.272 31.746 411.595 37.849C420.138 44.9681 432.166 49.2008 442.504 52.9195C459.006 58.8552 475.842 61.9253 493.342 63.2716C504.437 64.1251 515.855 63.6752 526.854 62.004C533.535 60.9887 539.327 59.2519 544.821 55.3842C549.999 51.7401 555.581 48.0219 557.014 41.6519" stroke="url(#paint7_linear_16257_1541)" stroke-width="0.4" stroke-linecap="round"/>
<path d="M152.102 -90.174C168.132 -91.9886 183.961 -93.0402 200.123 -92.9204C214.876 -92.8111 231.911 -93.4004 245.399 -86.3359C255.285 -81.1582 262.955 -72.9198 266.825 -62.4627C269.798 -54.4326 270.732 -45.6474 274.241 -37.7796C277.202 -31.1398 282.666 -23.3873 287.859 -18.2021C296.676 -9.39823 310.906 -4.15055 323.118 -2.42749C336.062 -0.601054 349.612 -2.95189 362.583 -3.30777C377.746 -3.72378 391.761 -2.4964 405.007 5.38942C413.227 10.283 418.397 18.4414 425.72 24.5443C434.263 31.6634 446.291 35.8961 456.629 39.6148C473.131 45.5505 489.967 48.6206 507.467 49.9669C518.562 50.8204 529.98 50.3705 540.979 48.6993C547.66 47.684 553.452 45.9472 558.946 42.0796C564.124 38.4354 569.706 34.7172 571.139 28.3472" stroke="url(#paint8_linear_16257_1541)" stroke-width="0.4" stroke-linecap="round"/>
</g>
<defs>
<linearGradient id="paint0_linear_16257_1541" x1="1.70173e-06" y1="97.3977" x2="359.984" y2="112.879" gradientUnits="userSpaceOnUse">
<stop offset="0.00638632" stop-color="white" stop-opacity="0.32"/>
<stop offset="1" stop-color="#FBFBFB" stop-opacity="0.37"/>
</linearGradient>
<linearGradient id="paint1_linear_16257_1541" x1="239.041" y1="96.3499" x2="232.522" y2="48.9434" gradientUnits="userSpaceOnUse">
<stop stop-color="#FDD36F"/>
<stop offset="0.5" stop-color="#C0982C"/>
<stop offset="1" stop-color="#F8CF50"/>
</linearGradient>
<linearGradient id="paint2_linear_16257_1541" x1="260.221" y1="85.1624" x2="253.702" y2="37.7559" gradientUnits="userSpaceOnUse">
<stop stop-color="#FDD36F"/>
<stop offset="0.5" stop-color="#C0982C"/>
<stop offset="1" stop-color="#F8CF50"/>
</linearGradient>
<linearGradient id="paint3_linear_16257_1541" x1="280.76" y1="71.8577" x2="274.241" y2="24.4512" gradientUnits="userSpaceOnUse">
<stop stop-color="#FDD36F"/>
<stop offset="0.5" stop-color="#C0982C"/>
<stop offset="1" stop-color="#F8CF50"/>
</linearGradient>
<linearGradient id="paint4_linear_16257_1541" x1="294.869" y1="58.5452" x2="288.35" y2="11.1387" gradientUnits="userSpaceOnUse">
<stop stop-color="#FDD36F"/>
<stop offset="0.5" stop-color="#C0982C"/>
<stop offset="1" stop-color="#F8CF50"/>
</linearGradient>
<linearGradient id="paint5_linear_16257_1541" x1="305.783" y1="48.8187" x2="299.264" y2="1.41216" gradientUnits="userSpaceOnUse">
<stop stop-color="#FDD36F"/>
<stop offset="0.5" stop-color="#C0982C"/>
<stop offset="1" stop-color="#F8CF50"/>
</linearGradient>
<linearGradient id="paint6_linear_16257_1541" x1="326.947" y1="37.639" x2="320.428" y2="-9.76753" gradientUnits="userSpaceOnUse">
<stop stop-color="#FDD36F"/>
<stop offset="0.5" stop-color="#C0982C"/>
<stop offset="1" stop-color="#F8CF50"/>
</linearGradient>
<linearGradient id="paint7_linear_16257_1541" x1="347.494" y1="24.3187" x2="340.975" y2="-23.0878" gradientUnits="userSpaceOnUse">
<stop stop-color="#FDD36F"/>
<stop offset="0.5" stop-color="#C0982C"/>
<stop offset="1" stop-color="#F8CF50"/>
</linearGradient>
<linearGradient id="paint8_linear_16257_1541" x1="361.619" y1="11.014" x2="355.1" y2="-36.3925" gradientUnits="userSpaceOnUse">
<stop stop-color="#FDD36F"/>
<stop offset="0.5" stop-color="#C0982C"/>
<stop offset="1" stop-color="#F8CF50"/>
</linearGradient>
</defs>
</svg>
