<?xml version="1.0" encoding="utf-8"?>
<!-- Generator: Adobe Illustrator 23.0.1, SVG Export Plug-In . SVG Version: 6.00 Build 0)  -->
<svg version="1.1" id="Layer_1" xmlns="http://www.w3.org/2000/svg" xmlns:xlink="http://www.w3.org/1999/xlink" x="0px" y="0px"
	 viewBox="0 0 30 20" style="enable-background:new 0 0 30 20;" xml:space="preserve">
<style type="text/css">
	.st0{fill:#2E4593;}
	.st1{fill:#FCF5FF;}
	.st2{fill:#F42525;}
	.st3{fill:#FFFFFF;}
	.st4{fill:#CD002A;}
</style>
<g>
	<g>
		<g>
			<polygon class="st0" points="30,0 30,20 30,20 0,20 0,0 			"/>
		</g>
	</g>
	<g>
		<g>
			<g>
				<polygon class="st1" points="30,17.9 30,20 30,20 26.9,20 17.7,13.9 16.7,13.3 15.7,12.5 15.3,12.3 14.2,11.6 13.8,11.3 
					13.4,11 12.7,10.6 12.5,10.4 12.2,10.2 8.9,8 7.4,7.1 0,2.1 0,0 0.1,0 0.1,0 3.1,0 12.5,6.3 13.4,6.9 13.7,7.1 15.2,8 15.3,8.1 
					15.9,8.5 16.7,9.1 16.9,9.2 17.7,9.7 18.4,10.2 20.4,11.6 21.9,12.5 				"/>
			</g>
		</g>
		<g>
			<g>
				<polygon class="st2" points="30,19.9 30,20 28,20 17.7,13.1 16.8,12.5 16.7,12.5 15.9,11.9 15.3,11.6 14.3,10.9 13.4,10.3 
					13.3,10.2 12.7,9.8 12.5,9.7 10,8 8.6,7.1 0,1.4 0,0 0.1,0 0.1,0 10.6,7.1 12.1,8 12.5,8.3 13.4,8.9 13.8,9.1 14.3,9.5 
					15.4,10.2 16.7,11.1 16.9,11.2 17.4,11.6 17.7,11.7 18.9,12.5 				"/>
			</g>
		</g>
	</g>
	<g>
		<g>
			<g>
				<polygon class="st1" points="30,0.4 30,2.5 23.2,7.1 21.7,8 18.4,10.2 17.7,10.7 16.9,11.2 16.7,11.3 16.4,11.6 15.9,11.9 
					15.3,12.3 14.9,12.5 13.4,13.5 12.5,14.1 3.7,20 0,20 0,18.3 8.7,12.5 10.2,11.6 12.2,10.2 12.5,10 12.7,9.8 13.4,9.4 13.8,9.1 
					15.3,8.1 15.4,8 16.7,7.2 16.9,7.1 17.7,6.6 27.5,0 29.7,0 				"/>
			</g>
		</g>
		<g>
			<g>
				<polygon class="st2" points="29.9,0.5 20.1,7.1 18.6,8 17.7,8.7 16.9,9.2 16.7,9.3 15.4,10.2 14.3,10.9 13.8,11.3 13.4,11.5 
					13.4,11.6 12.5,12.1 11.9,12.5 0.7,20 0,20 0,19.1 9.8,12.5 11.3,11.6 12.5,10.7 12.7,10.6 13.3,10.2 13.4,10.1 14.3,9.5 
					15.9,8.5 16.6,8 16.7,7.9 17.7,7.3 18,7.1 28.6,0 29.6,0 30,0 30,0.5 				"/>
			</g>
		</g>
	</g>
	<g>
		<g>
			<rect y="7.1" class="st3" width="30" height="5.5"/>
		</g>
	</g>
	<g>
		<g>
			<rect y="8" class="st2" width="30" height="3.5"/>
		</g>
	</g>
	<g>
		<g>
			<rect x="13.4" y="0" class="st4" width="3.3" height="19.9"/>
		</g>
	</g>
	<g>
		<g>
			<g>
				<polygon class="st3" points="16.7,12.5 17.7,12.5 17.7,20 12.5,20 12.5,12.5 13.4,12.5 13.4,7.1 12.5,7.1 12.5,0 17.7,0 
					17.7,7.1 16.7,7.1 				"/>
			</g>
		</g>
		<g>
			<g>
				<rect x="13.4" y="0" class="st2" width="3.3" height="19.9"/>
			</g>
		</g>
	</g>
</g>
</svg>
