<svg width="60" height="60" viewBox="0 0 60 60" fill="none" xmlns="http://www.w3.org/2000/svg">
<g clip-path="url(#clip0_546_655)">
<path d="M59.0761 0.923828H15.4764V59.0759H59.0761V0.923828Z" fill="white"/>
<path d="M55.3224 4.67773H19.23V55.3226H55.3224V4.67773Z" fill="#D8E7F2"/>
<path d="M16.5159 5.08203C17.5553 5.08203 18.537 5.19753 19.5765 5.37077C20.5582 5.54401 21.5399 5.8905 22.5216 6.23699C23.4456 6.64122 24.3696 7.10321 25.2358 7.68068C26.102 8.25816 26.8527 8.89339 27.6034 9.64411C28.3542 10.3948 28.9894 11.1456 29.5669 12.0118C30.1444 12.878 30.6063 13.7442 31.0106 14.7259C31.4148 15.7076 31.7035 16.6316 31.8768 17.6711C32.05 18.6528 32.1655 19.6922 32.1655 20.7317C32.1655 21.7712 31.9345 22.6951 31.7613 23.6768C31.588 24.6585 31.2416 25.6403 30.8951 26.622C30.4908 27.5459 30.0289 28.4699 29.4514 29.3361C28.8739 30.2023 28.2387 30.9531 27.488 31.7038C26.7372 32.4545 25.9865 33.0897 25.1203 33.6672C24.2541 34.2447 23.3879 34.7067 22.4061 35.1109C21.4244 35.5151 20.5005 35.8039 19.461 35.9771C18.4793 36.1504 17.4398 36.2659 16.4004 36.2659C15.3609 36.2659 14.3792 36.1504 13.3397 35.9771C12.358 35.8039 11.3763 35.4574 10.3946 35.1109C9.47063 34.7067 8.54666 34.2447 7.68045 33.6672C6.81423 33.0897 6.06351 32.4545 5.31279 31.7038C4.56206 30.9531 3.92684 30.2023 3.34936 29.3361C2.77188 28.4699 2.3099 27.6037 1.90566 26.622C1.50143 25.6403 1.44368 24.6585 1.21269 23.6768C1.03945 22.6951 0.92395 21.6557 0.92395 20.6162C0.92395 19.5767 1.03945 18.595 1.21269 17.5556C1.38593 16.5738 1.73242 15.5921 2.07891 14.6104C2.42539 13.6287 2.94512 12.7625 3.5226 11.8963C4.10008 11.0301 4.73531 10.2793 5.48603 9.52861C6.23675 8.77789 6.98747 8.14267 7.85369 7.56519C8.71991 6.98771 9.58612 6.52573 10.5678 6.12149C11.4918 5.71726 12.4735 5.42852 13.513 5.25527C14.4369 5.19753 15.4764 5.08203 16.5159 5.08203Z" fill="white"/>
<path d="M16.5159 32.4543C15.1877 32.4543 13.8595 32.2811 12.589 31.8191C6.46773 29.6247 3.17611 22.8682 5.31277 16.6892C6.98746 12.0116 11.434 8.83545 16.4581 8.83545C17.7863 8.83545 19.1145 9.00869 20.385 9.47068C26.564 11.6073 29.7979 18.3638 27.6612 24.6006C25.9865 29.2782 21.4822 32.4543 16.5159 32.4543Z" fill="#78B9EB"/>
<path d="M3.46485 57.4016C1.79016 56.7664 0.808451 54.8607 1.38593 53.186L5.42828 41.6364C6.0635 39.9617 7.96918 38.98 9.64387 39.5575C11.3186 40.1927 12.3003 42.0984 11.7228 43.7731L7.68044 55.3804C7.10296 57.1128 5.25503 58.0368 3.46485 57.4016Z" fill="white"/>
<path d="M22.0019 5.08181C20.2117 4.44658 16.4581 4.15784 16.4004 4.15784V1.84793H58.1521V58.1521H16.4004V37.1319H16.5159C23.4456 37.1319 29.7401 32.743 32.1078 26.1598C35.0529 17.3243 30.3754 8.14244 22.0019 5.08181ZM11.6073 34.4177C4.04234 31.7036 -6.65691e-06 23.3301 2.71414 15.7652C4.79306 9.93263 10.3369 6.00577 16.5159 6.00577C18.1906 6.00577 19.8075 6.29451 21.3667 6.87199C28.2964 9.4129 32.974 17.2666 30.2599 25.5245C27.0837 34.4177 17.2666 36.6699 11.6073 34.4177ZM10.8566 43.5996L6.81424 55.0337C6.35226 56.2464 5.02406 56.8816 3.69585 56.5351C3.11838 56.3619 1.73243 55.3224 2.30991 53.4167L6.35225 41.8672C7.21847 39.7883 9.1819 40.3657 9.47064 40.3657C10.3946 40.7122 11.4341 42.3292 10.8566 43.5996ZM10.9721 39.2108L11.896 36.4966C12.7623 36.7854 13.5707 36.9586 14.5524 37.0741V60.0577H60.0577V0H14.5524V4.21559C8.37343 4.96631 3.00288 9.18191 0.981706 15.1299C-1.90569 23.3879 2.19441 32.4543 10.1636 35.8614L9.23965 38.5756C7.27622 38.2868 5.31279 39.615 4.73532 41.4052L0.577472 52.9548C-0.17325 54.5717 0.692967 57.5746 3.23387 58.3831C5.65928 59.1338 7.7382 57.9211 8.66217 55.7267L12.7045 44.1771C13.3975 42.0982 12.4735 40.2502 10.9721 39.2108Z" fill="#5887F9"/>
<path d="M44.5813 26.1597C44.3503 25.871 44.2925 25.5245 44.3503 25.178C44.4658 24.4273 45.1588 23.9076 45.9095 24.0808L47.0067 24.2541C47.7574 24.3695 48.2771 25.0625 48.1039 25.8132C47.9884 26.564 47.2954 27.0837 46.5447 26.9105L45.4475 26.7372C45.101 26.6217 44.7545 26.4485 44.5813 26.1597Z" fill="#5887F9"/>
<path d="M41.232 12.1848C40.77 11.6074 40.9432 10.7411 41.5207 10.2792L42.7912 9.35519C43.3686 8.89321 44.2348 9.06645 44.6968 9.64393C45.1588 10.2214 44.9856 11.0876 44.4081 11.5496L43.1376 12.4736C42.5024 12.9356 41.6362 12.8201 41.232 12.1848Z" fill="#5887F9"/>
<path d="M37.9981 39.6148L37.0741 38.3444C36.6121 37.7669 36.7854 36.9007 37.3629 36.4387C37.9403 35.9767 38.8066 36.1499 39.2685 36.7274L40.1925 37.9979C40.6545 38.5754 40.4812 39.4416 39.9038 39.9036C39.2685 40.3655 38.4601 40.25 37.9981 39.6148Z" fill="#5887F9"/>
</g>
<defs>
<clipPath id="clip0_546_655">
<rect width="60" height="60" fill="white"/>
</clipPath>
</defs>
</svg>
