<svg width="126" height="120" viewBox="0 0 126 120" fill="none" xmlns="http://www.w3.org/2000/svg">
    <g clip-path="url(#clip0_14125_5682)">
    <path d="M118.664 54.7776C112.385 72.7312 124.552 96.5767 95.0707 102.556C84.3676 104.727 76.6207 99.5309 66.2659 105.657C47.9417 116.498 36.9786 115.576 29.0758 107.237C23.1553 100.991 23.2271 92.6047 17.2437 89.1698C4.28308 81.7299 0.855233 70.5951 3.73317 57.2289C5.24621 50.2016 11.3918 45.4514 15.175 40.7C19.606 35.1355 21.1152 28.4623 23.2437 22.8005C32.7236 -2.41442 58.6149 13.9181 73.9887 8.82271C87.5228 4.33702 94.559 9.41267 98.695 17.1094C107.13 32.8055 128.37 27.023 118.664 54.7769V54.7776ZM125.838 64.7083C125.818 62.7229 124.192 61.1298 122.207 61.1501C120.221 61.1705 118.628 62.796 118.649 64.7814C118.669 66.7668 120.295 68.3599 122.28 68.3396C124.265 68.3192 125.858 66.693 125.838 64.7083ZM80.587 108.971C78.0491 106.485 73.976 106.526 71.4897 109.065C69.0034 111.603 69.0447 115.676 71.5831 118.162C74.121 120.649 78.1941 120.607 80.6804 118.069C83.1667 115.531 83.1254 111.458 80.587 108.971ZM0.920077 32.1152C1.93851 33.1336 3.5895 33.1336 4.60793 32.1152C5.62637 31.0967 5.62637 29.4457 4.60793 28.4273C3.5895 27.4089 1.93851 27.4089 0.920077 28.4273C-0.098359 29.4457 -0.098359 31.0967 0.920077 32.1152ZM101.973 15.3249C101.643 17.5869 103.209 19.6892 105.471 20.0198C107.734 20.3504 109.836 18.7846 110.166 16.522C110.497 14.2601 108.931 12.1577 106.668 11.8272C104.406 11.4966 102.304 13.0624 101.973 15.3249ZM63.2259 2.96702C62.9487 4.86213 64.2608 6.62309 66.1559 6.90027C68.051 7.17745 69.812 5.8653 70.0892 3.9702C70.3664 2.0751 69.0542 0.314129 67.1591 0.0369513C65.264 -0.240226 63.503 1.07192 63.2259 2.96702ZM8.22586 31.0503C8.62446 33.782 11.1623 35.6733 13.894 35.2747C16.6257 34.8761 18.517 32.3383 18.1184 29.6066C17.7198 26.8748 15.182 24.9836 12.4503 25.3822C9.71855 25.7808 7.82726 28.3186 8.22586 31.0503ZM110.577 11.564C110.456 12.3923 111.029 13.1616 111.857 13.2823C112.686 13.4031 113.455 12.8303 113.576 12.002C113.696 11.1736 113.124 10.4044 112.295 10.2836C111.467 10.1628 110.698 10.7356 110.577 11.564ZM19.812 108.938C19.9627 109.971 20.922 110.686 21.955 110.535C22.9881 110.385 23.7033 109.425 23.5526 108.392C23.402 107.359 22.4426 106.644 21.4096 106.795C20.3765 106.945 19.6613 107.905 19.812 108.938ZM21.6817 100.197C21.6543 97.5519 19.4884 95.4298 16.8432 95.4565C14.1979 95.4839 12.0758 97.6498 12.1025 100.295C12.1299 102.94 14.2958 105.062 16.9411 105.036C19.5863 105.008 21.7084 102.842 21.6817 100.197Z" fill="#CCEDDF"/>
    <rect x="64" y="62" width="18" height="28" fill="white"/>
    <path d="M71.4225 32.3636V38.2816C71.4225 38.9313 70.8961 39.4577 70.2464 39.4577C69.5967 39.4577 69.0703 38.9313 69.0703 38.2816V32.3636C69.0703 31.7139 69.5967 31.1875 70.2464 31.1875C70.8961 31.1875 71.4225 31.7139 71.4225 32.3636Z" fill="#01A45F"/>
    <path d="M74.235 32.3636V38.2816C74.235 38.9313 73.7086 39.4577 73.0589 39.4577C72.4092 39.4577 71.8828 38.9313 71.8828 38.2816V32.3636C71.8828 31.7139 72.4092 31.1875 73.0589 31.1875C73.7086 31.1875 74.235 31.7139 74.235 32.3636Z" fill="#01A45F"/>
    <path d="M73.9361 31.8828H67.6094V38.7576H73.9361V31.8828Z" fill="#01A45F"/>
    <path d="M33.5445 73.5397V73.6083C33.5445 79.0025 37.9177 83.3763 43.3125 83.3763H48.8433C48.4237 85.2562 48.7028 87.2364 49.6869 89.0019C49.7454 89.1068 49.8058 89.2104 49.8688 89.3115H43.3131C34.6399 89.3115 27.6094 82.2803 27.6094 73.6077V73.5397C27.6094 64.8665 34.6399 57.8359 43.3125 57.8359H64.1078L60.439 63.7711H43.3131C37.9183 63.7711 33.5445 68.1449 33.5445 73.5397Z" fill="#01A45F"/>
    <path d="M93.9056 48.5477C93.7282 54.5058 90.1548 59.5617 85.1097 62.0741C85.0537 62.1021 84.9971 62.1301 84.9412 62.1568L81.8388 57.1396C81.8973 57.1167 81.9558 57.0926 82.0143 57.0671C85.6233 55.5337 88.1294 51.8904 87.9698 47.6946C87.7702 42.4085 83.2584 38.3023 77.9679 38.3023H62.8516V32.3672H78.2069C87.0245 32.3672 94.1694 39.6717 93.905 48.5471L93.9056 48.5477Z" fill="#01A45F"/>
    <path d="M38.2419 43.366H48.2051V39.1016H38.2419C37.7289 39.1016 37.3125 39.5173 37.3125 40.031V42.4372C37.3125 42.9503 37.7283 43.3667 38.2419 43.3667V43.366Z" fill="#01A45F"/>
    <path d="M38.2419 31.5535H48.2051V27.2891H38.2419C37.7289 27.2891 37.3125 27.7048 37.3125 28.2185V30.6247C37.3125 31.1378 37.7283 31.5542 38.2419 31.5542V31.5535Z" fill="#01A45F"/>
    <path d="M67.2745 29.9645H67.1848C65.4537 29.9645 63.8034 29.2334 62.6419 27.9499C60.6311 25.7261 57.7258 24.3275 54.4919 24.3281H52.3438V46.3218H54.4919C57.7258 46.3218 60.6311 44.9232 62.6419 42.6994C63.8034 41.4152 65.4537 40.6848 67.1848 40.6848H67.2745C67.9782 40.6848 68.5485 40.1145 68.5485 39.4108V31.2398C68.5485 30.536 67.9776 29.9651 67.2738 29.9651L67.2745 29.9645Z" fill="#01A45F"/>
    <path d="M51.8658 23.25H48.6452C48.1983 23.25 47.8359 23.6123 47.8359 24.0593V46.5863C47.8359 47.0333 48.1983 47.3956 48.6452 47.3956H51.8658C52.3128 47.3956 52.6751 47.0333 52.6751 46.5863V24.0593C52.6751 23.6123 52.3128 23.25 51.8658 23.25Z" fill="#01A45F"/>
    <path d="M95.093 81.7485L78.6066 55.0816C77.4388 53.1909 75.4147 52.0625 73.1922 52.0625C70.9697 52.0625 68.9461 53.1909 67.7777 55.0816L51.292 81.7485C50.0606 83.7396 50.0059 86.1496 51.1464 88.1947C52.2862 90.2399 54.3651 91.4611 56.7058 91.4611H89.6779C92.0192 91.4611 94.0981 90.2399 95.2379 88.1947C96.3784 86.1502 96.3244 83.7402 95.093 81.7485ZM69.3733 89.3187L71.7332 76.3409L65.2729 76.6143L69.0536 62.5571H76.4051L73.4801 71.2558L81.1114 71.0472L69.3733 89.3187Z" fill="#00BF5F"/>
    </g>
    <defs>
    <clipPath id="clip0_14125_5682">
    <rect width="125.682" height="120" fill="white" transform="translate(0.15625)"/>
    </clipPath>
    </defs>
    </svg>
    