<svg width="21" height="21" viewBox="0 0 21 21" fill="none" xmlns="http://www.w3.org/2000/svg">
    <path fill-rule="evenodd" clip-rule="evenodd" d="M4.80766 10.5081C4.80766 9.85859 4.91547 9.23578 5.10813 8.65172L1.73781 6.07812C1.08094 7.41172 0.710938 8.91453 0.710938 10.5081C0.710938 12.1005 1.08063 13.6022 1.73641 14.935L5.10484 12.3564C4.91406 11.775 4.80766 11.1545 4.80766 10.5081Z" fill="#FBBC05"/>
    <path fill-rule="evenodd" clip-rule="evenodd" d="M10.7295 4.59875C12.1406 4.59875 13.4152 5.09875 14.4166 5.91688L17.3297 3.00781C15.5545 1.46234 13.2786 0.507812 10.7295 0.507812C6.77203 0.507812 3.37078 2.77094 1.74219 6.07781L5.11234 8.65141C5.88891 6.29422 8.1025 4.59875 10.7295 4.59875Z" fill="#EA4335"/>
    <path fill-rule="evenodd" clip-rule="evenodd" d="M10.7295 16.4198C8.10266 16.4198 5.88906 14.7244 5.1125 12.3672L1.74219 14.9403C3.37078 18.2477 6.77203 20.5108 10.7295 20.5108C13.172 20.5108 15.5041 19.6434 17.2542 18.0184L14.0552 15.5453C13.1525 16.1139 12.0158 16.4198 10.7295 16.4198Z" fill="#34A853"/>
    <path fill-rule="evenodd" clip-rule="evenodd" d="M20.2855 10.5056C20.2855 9.91469 20.1944 9.27828 20.0578 8.6875H10.7266V12.5511H16.0978C15.8292 13.8684 15.0983 14.8811 14.0522 15.5402L17.2512 18.0133C19.0897 16.307 20.2855 13.7652 20.2855 10.5056Z" fill="#4285F4"/>
    </svg>
    