<svg width="34" height="33" viewBox="0 0 34 33" fill="none" xmlns="http://www.w3.org/2000/svg">
    <path fill-rule="evenodd" clip-rule="evenodd" d="M4.32819 8.14465C8.88097 3.59187 16.2699 3.59187 20.8254 8.14465C22.2615 9.58631 23.2476 11.3058 23.7754 13.1252C23.2226 11.9891 22.4726 10.928 21.5282 9.98354C16.9449 5.4002 9.5143 5.4002 4.93097 9.98354C2.00597 12.9085 0.947634 16.9891 1.75319 20.7474C0.0643006 16.5419 0.925412 11.5558 4.33097 8.14465M13.756 8.0002C15.7865 8.0002 17.6976 8.52242 19.3615 9.43631C18.1671 9.02242 16.8865 8.8002 15.5532 8.8002C9.07263 8.8002 3.8143 14.0558 3.8143 20.5391C3.8143 24.6724 5.94763 28.3058 9.17819 30.403C5.00875 28.6196 2.0893 24.4863 2.0893 19.6669C2.0893 13.2196 7.30874 8.0002 13.756 8.0002ZM8.65041 12.8974C10.0865 11.4613 11.8032 10.4752 13.631 9.94742C12.4949 10.5058 11.4337 11.2502 10.4893 12.1946C5.90041 16.778 5.90041 24.2085 10.4893 28.8002C13.4087 31.7196 17.4865 32.778 21.2532 31.9724C17.0476 33.6669 12.056 32.8085 8.65041 29.3946C4.09763 24.8419 4.09763 17.4585 8.65041 12.8974ZM9.93652 14.3641C9.52819 15.5585 9.30597 16.8446 9.30597 18.178C9.30597 24.6585 14.5615 29.9169 21.0449 29.9169C25.1782 29.9169 28.8115 27.778 30.9032 24.5474C29.1254 28.7169 24.9865 31.6419 20.1671 31.6419C13.7282 31.6419 8.50041 26.4169 8.50041 19.9752C8.50041 17.9391 9.02263 16.028 9.93652 14.3641ZM12.7004 23.2419C17.2837 27.8252 24.7143 27.8252 29.2976 23.2419C32.2171 20.3169 33.281 16.2363 32.4754 12.478C34.1643 16.6835 33.3032 21.6696 29.8976 25.0808C25.3449 29.6335 17.956 29.6335 13.4004 25.0808C11.9587 23.6391 10.981 21.9196 10.4449 20.1002C11.0032 21.2363 11.7532 22.3002 12.6976 23.2419M14.9199 23.8058C14.9365 23.8169 14.956 23.8252 14.9726 23.8308C14.9976 23.8363 15.0143 23.8419 15.0337 23.8502C15.0504 23.8558 15.0699 23.8613 15.0865 23.8669C15.1032 23.8724 15.1226 23.878 15.1476 23.8863C15.1671 23.8919 15.1837 23.8974 15.2004 23.9058C15.2199 23.9113 15.2365 23.9169 15.2615 23.9224C15.281 23.928 15.2976 23.928 15.3143 23.9335C15.3337 23.9391 15.3504 23.9446 15.3754 23.953C15.3921 23.9585 15.4115 23.9641 15.4282 23.9724C15.4449 23.978 15.4643 23.9835 15.4893 23.9919C15.5087 23.9974 15.5254 24.003 15.5421 24.003C15.5615 24.0085 15.5782 24.0141 15.6032 24.0224C15.6199 24.028 15.6393 24.0335 15.656 24.0419C15.6726 24.0419 15.6976 24.0474 15.7171 24.053C15.7365 24.0585 15.7532 24.0641 15.7782 24.0724C15.7976 24.0724 15.8143 24.078 15.831 24.0835C15.8504 24.0891 15.8726 24.0946 15.8921 24.0946C15.9115 24.1002 15.9282 24.1058 15.9532 24.1141C15.9726 24.1141 15.9893 24.1196 16.006 24.1252C16.031 24.1308 16.0476 24.1308 16.0671 24.1363C16.0837 24.1419 16.1087 24.1474 16.1282 24.1474C16.1476 24.153 16.1643 24.1585 16.1893 24.1669C16.206 24.1669 16.2254 24.1724 16.2421 24.178C16.2671 24.178 16.2837 24.1835 16.3032 24.1891C16.3226 24.1891 16.3449 24.1946 16.3643 24.2002C16.3837 24.2002 16.406 24.2058 16.4254 24.2113C16.4449 24.2113 16.4615 24.2169 16.4865 24.2224C16.506 24.2224 16.5226 24.228 16.5476 24.228C16.5643 24.2335 16.5837 24.2391 16.6004 24.2391C16.6254 24.2446 16.6421 24.2446 16.6615 24.2502C16.6865 24.2502 16.7032 24.2558 16.7226 24.2613C16.7476 24.2613 16.7643 24.2669 16.7837 24.2669C16.8087 24.2724 16.8254 24.2724 16.8449 24.278C16.8643 24.278 16.8865 24.2835 16.906 24.2835C16.9226 24.2891 16.9476 24.2891 16.9671 24.2946C16.9865 24.2946 17.0087 24.3002 17.0282 24.3002C17.0449 24.3058 17.0699 24.3058 17.0893 24.3113C17.1143 24.3113 17.131 24.3169 17.1504 24.3169C17.1754 24.3169 17.1921 24.3224 17.2115 24.3224C17.2365 24.328 17.2532 24.328 17.2726 24.3335C17.2976 24.3335 17.3143 24.3335 17.3337 24.3391C17.3587 24.3391 17.3754 24.3446 17.4004 24.3446C17.4171 24.3446 17.4365 24.3502 17.4615 24.3502C17.4782 24.3502 17.4976 24.3558 17.5226 24.3558C17.5393 24.3558 17.5643 24.3613 17.5837 24.3613C17.6032 24.3613 17.6254 24.3669 17.6449 24.3669C17.6699 24.3669 17.6865 24.3724 17.706 24.3724C17.731 24.3724 17.7476 24.3724 17.7671 24.378H17.8337C17.8532 24.3835 17.8754 24.3835 17.8949 24.3835C17.9143 24.3835 17.9365 24.3891 17.956 24.3891H18.0171C18.0421 24.3946 18.0587 24.3946 18.0837 24.3946C18.1032 24.3946 18.1254 24.3946 18.1449 24.4002H18.2699C18.2893 24.4002 18.306 24.4058 18.331 24.4058H18.5171C18.5337 24.4058 18.5587 24.4113 18.5782 24.4113H18.7032C25.1865 24.4113 30.4421 19.1558 30.4421 12.6724V12.4752C30.4421 12.4141 30.4365 12.3502 30.4365 12.2835C30.4365 12.2224 30.431 12.1585 30.431 12.0919C30.4254 12.0308 30.4254 11.9669 30.4199 11.9058C30.4143 11.8391 30.4143 11.7808 30.4087 11.7141C30.4032 11.6474 30.3976 11.5891 30.3893 11.5224C30.3837 11.4613 30.3782 11.403 30.3726 11.3363C30.3615 11.2752 30.3532 11.2113 30.3476 11.1502C30.3365 11.0891 30.331 11.0224 30.3171 10.9641C30.3115 10.8974 30.3004 10.8391 30.2921 10.778C30.281 10.7169 30.2671 10.6502 30.256 10.5919C30.2504 10.5308 30.2365 10.4724 30.2254 10.4113C30.2143 10.3446 30.2004 10.2863 30.1893 10.2252C30.1699 10.1641 30.1587 10.1058 30.1476 10.0446C30.1365 9.98354 30.1171 9.9252 30.106 9.86409C30.0865 9.80298 30.0754 9.74465 30.0587 9.68354C30.0476 9.62242 30.0282 9.56409 30.0115 9.50298C29.9921 9.44187 29.9754 9.38354 29.9643 9.32798C29.9449 9.26687 29.9282 9.20854 29.9087 9.14742C29.8893 9.09187 29.8671 9.03354 29.8476 8.97243C29.8282 8.91687 29.8115 8.85854 29.7865 8.79743C29.7699 8.74187 29.7504 8.68354 29.7254 8.62798C29.706 8.56687 29.6837 8.51409 29.6587 8.45298C29.6393 8.39743 29.6171 8.33909 29.5921 8.28354C29.5671 8.22243 29.5504 8.16965 29.5254 8.11687C29.5004 8.05576 29.4782 8.00298 29.4532 7.94743C29.4282 7.89465 29.4004 7.83354 29.3754 7.77798C29.3504 7.7252 29.3282 7.66965 29.2976 7.61687C29.2726 7.56409 29.2504 7.50854 29.2199 7.45576C29.1949 7.40298 29.1643 7.34742 29.1421 7.29465C29.1115 7.24187 29.081 7.18631 29.0532 7.13354C29.0282 7.08076 29.0004 7.0252 28.9699 6.97798C28.9393 6.9252 28.9087 6.86965 28.881 6.81687C28.8504 6.76965 28.8199 6.71409 28.7921 6.66131C28.7615 6.61409 28.731 6.55854 28.6949 6.51131C28.6643 6.45576 28.6337 6.40854 28.5976 6.35576C28.5671 6.30854 28.5365 6.25854 28.5004 6.20576C28.4643 6.15854 28.4337 6.10854 28.3976 6.05576C28.3671 6.00854 28.331 5.95854 28.2949 5.91131C28.2587 5.85854 28.2282 5.80854 28.1921 5.76131C28.156 5.71409 28.1199 5.66409 28.0837 5.61687C28.0476 5.56965 28.0115 5.51965 27.9754 5.47243C27.9393 5.43076 27.8976 5.38354 27.8615 5.33354C27.8254 5.28631 27.7893 5.23631 27.7476 5.19465C27.7115 5.14743 27.6699 5.09743 27.6337 5.05576C27.5921 5.00854 27.556 4.96687 27.5143 4.91687C27.4782 4.8752 27.4365 4.82798 27.3949 4.78354C27.3587 4.74187 27.3171 4.69465 27.2754 4.6502C27.2337 4.60854 27.1921 4.56687 27.156 4.51687C27.1143 4.4752 27.0726 4.43354 27.031 4.38909C26.9893 4.34743 26.9476 4.30576 26.9004 4.26409L26.7726 4.13909C26.731 4.09743 26.6837 4.06132 26.6393 4.01965C26.5976 3.97798 26.5504 3.93631 26.5087 3.9002C26.4615 3.85854 26.4199 3.82243 26.3699 3.78076C26.3282 3.74465 26.281 3.70298 26.2393 3.66687C26.1921 3.6252 26.1421 3.58909 26.0949 3.55298C26.0532 3.51131 26.0032 3.4752 25.956 3.43909C25.9087 3.40298 25.8587 3.36687 25.8115 3.33076L25.6671 3.22243C25.6199 3.18631 25.5699 3.1502 25.5226 3.11409C25.4754 3.07798 25.4254 3.04743 25.3782 3.01131C25.3254 2.9752 25.2754 2.94465 25.2282 2.90854C25.181 2.87243 25.1254 2.84187 25.0782 2.80576C25.1449 2.83631 25.2032 2.86687 25.2699 2.89465C25.3365 2.91965 25.4004 2.9502 25.4615 2.97798C25.5282 3.00854 25.5865 3.03909 25.6532 3.0752C25.7143 3.10576 25.7782 3.13632 25.8393 3.17243C25.906 3.20298 25.9643 3.23354 26.0254 3.26965C26.0921 3.30576 26.1504 3.33631 26.2115 3.37243C26.2726 3.40854 26.3365 3.43909 26.3976 3.4752C26.4587 3.51131 26.5171 3.54743 26.5782 3.58354C26.6393 3.61965 26.6976 3.66131 26.7532 3.69743C26.8143 3.73354 26.8726 3.7752 26.9337 3.81132C26.9865 3.84743 27.0476 3.88909 27.1087 3.93076C27.1643 3.96687 27.2226 4.00854 27.2782 4.0502C27.3393 4.08632 27.3921 4.12798 27.4532 4.16965C27.5087 4.21131 27.5615 4.25298 27.6143 4.29465C27.6754 4.33631 27.7282 4.38354 27.7837 4.42798C27.8365 4.46965 27.8921 4.51132 27.9449 4.56132C27.9976 4.60298 28.0532 4.6502 28.106 4.69465C28.1532 4.74187 28.2087 4.79187 28.2615 4.83354C28.3087 4.88076 28.3643 4.93076 28.4171 4.97798C28.4643 5.0252 28.5199 5.0752 28.5671 5.12243C28.6143 5.16965 28.6699 5.21965 28.7171 5.26687C28.7643 5.31409 28.8143 5.36409 28.8615 5.41687C28.9171 5.46409 28.9643 5.51409 29.006 5.56687C29.0532 5.61409 29.1032 5.66965 29.1504 5.71687C29.1976 5.76965 29.2476 5.8252 29.2893 5.87798C29.3365 5.9252 29.3782 5.98076 29.4282 6.03354C29.4699 6.08631 29.5171 6.14187 29.5615 6.19465C29.6087 6.24743 29.6504 6.30298 29.6949 6.35576C29.7365 6.40854 29.7782 6.46965 29.8199 6.5252C29.8615 6.57798 29.9032 6.63354 29.9449 6.69187C29.9865 6.74743 30.0282 6.80576 30.0643 6.86131C30.106 6.92243 30.1476 6.9752 30.1837 7.03631C30.2254 7.09743 30.2615 7.15576 30.2976 7.21131C30.3393 7.27243 30.3754 7.33076 30.4115 7.39187C30.4476 7.45298 30.4837 7.51131 30.5199 7.57242C30.556 7.63354 30.5921 7.69187 30.6282 7.75298C30.6643 7.81409 30.7004 7.87243 30.731 7.93909C30.7671 8.0002 30.7976 8.05854 30.8337 8.1252C30.8643 8.18631 30.9004 8.24465 30.931 8.31132C30.9615 8.37243 30.9921 8.43631 31.0199 8.49743C31.056 8.56409 31.0865 8.63076 31.1087 8.68909C31.1393 8.75576 31.1699 8.82243 31.1976 8.88631C31.2282 8.94743 31.2532 9.01131 31.281 9.07798C31.306 9.14465 31.3337 9.21132 31.3587 9.2752C31.3837 9.34187 31.4143 9.40576 31.4365 9.47243C31.4615 9.53909 31.4837 9.60576 31.5087 9.67798C31.5337 9.74465 31.5504 9.81131 31.5754 9.8752C31.6004 9.94742 31.6226 10.0141 31.6421 10.0808C31.6671 10.153 31.6837 10.2196 31.7032 10.2919C31.7282 10.3585 31.7449 10.4252 31.7643 10.4974C31.7837 10.5696 31.8004 10.6363 31.8199 10.7085C31.8365 10.7752 31.856 10.8474 31.8671 10.9196C31.8865 10.9919 31.9032 11.0585 31.9143 11.1308C31.931 11.203 31.9449 11.2752 31.956 11.3474C31.9754 11.4141 31.9865 11.4863 31.9976 11.5585C32.0087 11.6308 32.0226 11.703 32.0337 11.7752C32.0449 11.8474 32.0532 11.9196 32.0643 11.9919C32.0699 12.0696 32.0837 12.1419 32.0893 12.2141C32.1004 12.2863 32.1087 12.3585 32.1143 12.4308C32.1199 12.5085 32.1254 12.5808 32.1337 12.653C32.1393 12.7252 32.1449 12.803 32.1532 12.8752C32.1532 12.953 32.1587 13.0252 32.1643 13.0974C32.1643 13.1752 32.1643 13.2474 32.1699 13.3252V13.5474C32.1699 13.6502 32.1699 13.753 32.1643 13.8474C32.1643 13.9502 32.1587 14.053 32.1532 14.1474C32.1532 14.2502 32.1476 14.3446 32.1337 14.4474C32.1282 14.5446 32.1226 14.6391 32.1087 14.7419C32.0976 14.8391 32.0837 14.9335 32.0726 15.0308C32.0615 15.1335 32.0476 15.228 32.0365 15.3252C32.0171 15.4224 32.0004 15.5169 31.9893 15.6141C31.9699 15.7113 31.9532 15.8058 31.9282 15.903C31.9087 15.9919 31.8921 16.0891 31.8671 16.1863C31.8504 16.2752 31.8254 16.3724 31.8004 16.4641C31.7754 16.5613 31.7532 16.6502 31.7226 16.7474C31.6976 16.8363 31.6699 16.928 31.6449 17.0224C31.6143 17.1113 31.5837 17.203 31.556 17.2919C31.5254 17.3808 31.4949 17.4724 31.4587 17.5613C31.4282 17.6502 31.3921 17.7363 31.356 17.8252C31.3199 17.9141 31.2837 18.0002 31.2476 18.0891C31.2115 18.178 31.1754 18.2641 31.1337 18.3474C31.0976 18.4363 31.056 18.5224 31.0143 18.6058C30.9782 18.6891 30.9365 18.7724 30.8865 18.8585C30.8449 18.9419 30.8032 19.028 30.7615 19.1113C30.7143 19.1946 30.6643 19.2724 30.6226 19.3585C30.5754 19.4363 30.5254 19.5196 30.4782 19.5974C30.431 19.6752 30.3754 19.7585 30.3282 19.8391C30.281 19.9169 30.2254 19.9946 30.1726 20.0724C30.1254 20.1502 30.0699 20.228 30.0171 20.3002C29.9643 20.378 29.9032 20.4558 29.8476 20.528C29.7949 20.6002 29.7337 20.678 29.6782 20.7502C29.6171 20.8224 29.5587 20.8946 29.5032 20.9669C29.4421 21.0391 29.3837 21.1113 29.3171 21.1835C29.256 21.2558 29.1976 21.3224 29.131 21.3946C29.0699 21.4613 29.006 21.5335 28.9449 21.6002C28.8782 21.6669 28.8115 21.7335 28.7476 21.7974C28.681 21.8641 28.6143 21.9308 28.5504 21.9946C28.4837 22.0613 28.4115 22.1196 28.3449 22.1863C28.2726 22.2474 28.206 22.3058 28.1337 22.3669C28.0615 22.4335 27.9893 22.4919 27.9171 22.553C27.8449 22.6085 27.7726 22.6669 27.7004 22.728C27.6282 22.7808 27.5504 22.8419 27.4782 22.8946C27.4004 22.9558 27.3282 23.0085 27.2504 23.0641C27.1782 23.1169 27.1004 23.1724 27.0226 23.2196C26.9449 23.2752 26.8671 23.328 26.7893 23.3752C26.7115 23.428 26.6282 23.478 26.5504 23.5252C26.4726 23.5724 26.3893 23.6224 26.3115 23.6696C26.2282 23.7169 26.1421 23.7585 26.0643 23.8085C25.981 23.8502 25.8949 23.8919 25.8115 23.9419L25.5587 24.0669C25.4754 24.103 25.3893 24.1446 25.3004 24.1808C25.2171 24.2224 25.1254 24.2585 25.0421 24.2946C24.9532 24.3363 24.8671 24.3724 24.7782 24.403C24.6893 24.4391 24.6032 24.4752 24.5143 24.5058C24.4254 24.5419 24.3337 24.5724 24.2449 24.603C24.156 24.6335 24.0643 24.6641 23.9754 24.6919C23.8782 24.7169 23.7893 24.7474 23.7004 24.7696C23.6032 24.8002 23.5143 24.8224 23.4171 24.8474C23.3282 24.8724 23.231 24.8946 23.1421 24.9141C23.0449 24.9391 22.9504 24.9558 22.8532 24.9808C22.7643 25.0002 22.6671 25.0169 22.5699 25.0363C22.4726 25.0558 22.3782 25.0669 22.281 25.0835C22.1837 25.0946 22.0893 25.1085 21.9865 25.1196C21.8893 25.1308 21.7949 25.1446 21.6976 25.1558C21.5949 25.1669 21.5004 25.1752 21.3976 25.1808C21.3004 25.1919 21.206 25.2002 21.1032 25.2002C21.0004 25.2058 20.906 25.2113 20.8032 25.2113C20.706 25.2169 20.606 25.2169 20.5032 25.2169H20.3115C20.281 25.2169 20.2504 25.2169 20.2226 25.2113H20.1254C20.0949 25.2113 20.0587 25.2113 20.0282 25.2058H19.931C19.9004 25.2058 19.8699 25.2002 19.8421 25.2002C19.8143 25.2002 19.7754 25.1946 19.7449 25.1946C19.7143 25.1946 19.6837 25.1891 19.656 25.1891C19.6199 25.1891 19.5893 25.1835 19.5587 25.1835C19.5282 25.178 19.4976 25.178 19.4699 25.1724C19.4337 25.1724 19.4032 25.1724 19.3726 25.1669C19.3421 25.1669 19.3115 25.1613 19.2837 25.1558C19.2476 25.1558 19.2171 25.1502 19.1865 25.1502C19.156 25.1446 19.1254 25.1446 19.0976 25.1391C19.0671 25.1335 19.0365 25.1335 19.0004 25.128C18.9699 25.1224 18.9393 25.1224 18.9087 25.1169C18.8782 25.1113 18.8476 25.1113 18.8199 25.1058C18.7893 25.1002 18.7587 25.0946 18.731 25.0946C18.7004 25.0891 18.6699 25.0835 18.6337 25.0752C18.6032 25.0696 18.5726 25.0696 18.5421 25.0641L18.4532 25.0446C18.4226 25.0391 18.3921 25.0335 18.3643 25.0252C18.3337 25.0252 18.3032 25.0196 18.2754 25.0141L18.1865 24.9946C18.156 24.9891 18.1254 24.9835 18.0976 24.9752C18.0671 24.9696 18.0365 24.9585 18.0087 24.9502C17.9782 24.9446 17.9476 24.9391 17.9199 24.9308C17.8893 24.9252 17.8671 24.9196 17.8365 24.9141C17.806 24.903 17.7754 24.8946 17.7476 24.8891C17.7171 24.8835 17.6865 24.878 17.6587 24.8641C17.6282 24.8585 17.5976 24.853 17.5699 24.8446C17.5449 24.8335 17.5171 24.8252 17.4865 24.8196C17.456 24.8141 17.4254 24.8002 17.3976 24.7946C17.3671 24.7891 17.3365 24.778 17.3143 24.7696C17.2837 24.7585 17.2532 24.7502 17.2254 24.7446C17.1949 24.7335 17.1643 24.7252 17.1421 24.7141C17.1115 24.7085 17.081 24.6946 17.0532 24.6891C17.0226 24.678 17.0004 24.6724 16.9699 24.6585C16.9393 24.653 16.9087 24.6391 16.8865 24.6335C16.856 24.6224 16.8254 24.6141 16.7976 24.603C16.7726 24.5919 16.7449 24.5835 16.7143 24.5724C16.6837 24.5613 16.6615 24.553 16.631 24.5419C16.6004 24.5308 16.5782 24.5224 16.5476 24.5113C16.5171 24.5002 16.4865 24.4919 16.4643 24.4808C16.4337 24.4696 16.4032 24.4558 16.381 24.4502C16.3504 24.4391 16.3199 24.4252 16.2976 24.4141C16.2671 24.403 16.2365 24.3946 16.2143 24.3835C16.1837 24.3724 16.1615 24.3585 16.131 24.3474C16.1004 24.3363 16.0782 24.3224 16.0476 24.3169C16.0226 24.3058 15.9949 24.2919 15.9643 24.2808C15.9393 24.2696 15.9115 24.2558 15.8865 24.2446C15.856 24.2335 15.8337 24.2196 15.8032 24.2085C15.7782 24.1974 15.7504 24.1835 15.7254 24.1724C15.6949 24.1613 15.6643 24.1474 15.6421 24.1363C15.6115 24.1196 15.5893 24.1058 15.5587 24.0946C15.5337 24.0835 15.5115 24.0696 15.481 24.0585C15.456 24.0474 15.4282 24.0335 15.4032 24.0169C15.3726 24.0058 15.3504 23.9919 15.3199 23.9808C15.2949 23.9696 15.2726 23.9502 15.2421 23.9391C15.2171 23.928 15.1893 23.9141 15.1643 23.8974C15.1393 23.8863 15.1115 23.8724 15.0865 23.8558C15.056 23.8446 15.0337 23.8308 15.0087 23.8141C14.9782 23.803 14.956 23.7891 14.931 23.7724C14.9504 23.778 14.9671 23.7835 14.9837 23.7919M13.0365 1.24187C17.2421 -0.452574 22.2337 0.405759 25.6393 3.81965C30.1921 8.37243 30.1921 15.7558 25.6393 20.3169C24.2032 21.753 22.4865 22.7391 20.6587 23.2669C21.7949 22.7141 22.8587 21.9641 23.8004 21.0196C28.3837 16.4363 28.3837 9.00576 23.8004 4.42243C20.881 1.49743 16.7949 0.439092 13.0365 1.24465M14.1226 1.5752C20.5615 1.5752 25.7837 6.80298 25.7837 13.2419C25.7837 15.278 25.2671 17.1891 24.3532 18.853C24.7615 17.6585 24.9837 16.3724 24.9837 15.0391C24.9837 8.55576 19.7282 3.3002 13.2449 3.3002C9.11152 3.3002 5.47819 5.43909 3.38652 8.66965C5.1643 4.5002 9.29763 1.5752 14.1226 1.5752Z" fill="#00A45F"/>
    </svg>
    