<svg width="205" height="187" viewBox="0 0 205 187" fill="none" xmlns="http://www.w3.org/2000/svg">
    <g clip-path="url(#clip0_14043_10885)">
    <path d="M185.791 134.437C163.487 155.011 162.708 197.747 116.75 184.017C100.065 179.032 93.0674 165.891 73.9043 166.74C39.993 168.241 25.6962 158.578 20.4034 141.018C18.814 135.745 23.1558 116.01 17.3162 106.675C4.66762 86.4523 8.20225 68.1913 22.2793 51.5246C29.6808 42.7615 41.8898 40.6877 50.7774 36.8387C61.1864 32.3294 67.3622 25.8538 74.6042 19.4777C106.861 -8.9207 140.863 -1.71008 161.615 12.4151C179.123 24.3328 183.681 44.7738 183.724 58.726C183.811 87.1755 220.268 102.636 185.789 134.44L185.791 134.437ZM188.431 153.819C189.892 151.006 188.799 147.541 185.992 146.077C183.184 144.614 179.723 145.708 178.262 148.519C176.801 151.331 177.893 154.797 180.701 156.261C183.509 157.724 186.969 156.63 188.431 153.819ZM37.1674 14.0304C37.8359 16.23 40.1578 17.4706 42.3542 16.8012C44.5506 16.1317 45.7894 13.8064 45.121 11.6068C44.4525 9.40716 42.1305 8.16652 39.9341 8.83597C37.7378 9.50541 36.4989 11.8308 37.1674 14.0304ZM192.215 57.6557C190.053 60.5942 190.678 64.7314 193.612 66.8982C196.546 69.0638 200.678 68.4375 202.841 65.4991C205.004 62.5606 204.378 58.4234 201.444 56.2565C198.51 54.091 194.379 54.7172 192.215 57.6557ZM47.0361 17.5859C45.3067 22.4017 47.804 27.7088 52.6128 29.4394C57.4215 31.1713 62.7209 28.6704 64.4489 23.8546C66.1783 19.0388 63.6811 13.7317 58.8723 12.0011C54.0635 10.2705 48.7642 12.7701 47.0361 17.5859ZM190.603 45.8926C189.471 47.4319 189.798 49.6001 191.336 50.7346C192.873 51.8691 195.038 51.5416 196.171 50.0023C197.304 48.4629 196.977 46.2948 195.44 45.1602C193.903 44.0257 191.738 44.3532 190.605 45.8939L190.603 45.8926ZM6.09743 136.451C5.53492 138.019 6.34729 139.749 7.91315 140.312C9.47901 140.875 11.2058 140.062 11.7683 138.493C12.3308 136.925 11.5184 135.196 9.95256 134.633C8.3867 134.069 6.65993 134.883 6.09743 136.451ZM15.2872 125.543C17.2337 121.797 15.7791 117.179 12.0378 115.229C8.29643 113.28 3.68519 114.737 1.73866 118.483C-0.207876 122.23 1.24679 126.848 4.98811 128.798C8.72943 130.747 13.3407 129.29 15.2872 125.543Z" fill="#CCEDDF"/>
    <path d="M162.325 67.2109H50.2847C46.3089 67.2109 43.0859 70.4387 43.0859 74.4202V127.834C43.0859 131.816 46.3089 135.044 50.2847 135.044H162.325C166.301 135.044 169.524 131.816 169.524 127.834V74.4202C169.524 70.4387 166.301 67.2109 162.325 67.2109Z" fill="#01A45F"/>
    <path d="M157.177 34.7899V95.3426H57.4062V32.572C57.4062 24.4142 64.053 17.7734 72.1989 17.7734H142.273C150.433 17.7734 157.057 24.4142 157.057 32.572V32.9532C157.139 33.5506 157.177 34.1703 157.177 34.7912V34.7899Z" fill="white"/>
    <path d="M144.039 72.5312H70.4375V76.9698H144.039V72.5312Z" fill="#BACEE2"/>
    <path d="M144.039 60.2422H70.4375V64.6807H144.039V60.2422Z" fill="#BACEE2"/>
    <path d="M144.039 47.9531H70.4375V52.3916H144.039V47.9531Z" fill="#BACEE2"/>
    <path d="M144.039 35.6641H70.4375V40.1026H144.039V35.6641Z" fill="#BACEE2"/>
    <path d="M157.18 83.6172H57.4219V95.3462H157.18V83.6172Z" fill="#EBF1F7"/>
    <path d="M162.325 87.5H50.2847C46.3089 87.5 43.0859 90.7277 43.0859 94.7093V148.123C43.0859 152.105 46.3089 155.333 50.2847 155.333H162.325C166.301 155.333 169.524 152.105 169.524 148.123V94.7093C169.524 90.7277 166.301 87.5 162.325 87.5Z" fill="#00BF5F"/>
    <path d="M128.883 128.261L112.051 100.996C109.411 96.72 103.202 96.72 100.563 100.996L83.7305 128.261C80.9494 132.768 84.1858 138.581 89.4746 138.581H123.137C128.426 138.581 131.663 132.767 128.881 128.261H128.883ZM106.307 134.058C104.127 134.058 102.616 132.486 102.616 130.564C102.616 128.642 104.126 127.128 106.307 127.128C108.487 127.128 109.997 128.615 109.997 130.564C109.997 132.514 108.487 134.058 106.307 134.058ZM110.154 110.457L109.304 121.391C109.182 122.957 107.876 124.166 106.308 124.166C105.523 124.166 104.805 123.863 104.267 123.366C103.73 122.868 103.372 122.173 103.312 121.391L102.461 110.457C102.285 108.212 104.058 106.293 106.308 106.293C108.558 106.293 110.329 108.212 110.154 110.457Z" fill="white"/>
    <path d="M169.526 142.602V148.122C169.526 152.103 166.302 155.332 162.327 155.332H50.2834C46.3079 155.332 43.0859 152.105 43.0859 148.122V142.602C61.489 144.357 83.1351 145.374 106.305 145.374C129.475 145.374 151.12 144.358 169.524 142.602H169.526Z" fill="#01A45F"/>
    </g>
    <defs>
    <clipPath id="clip0_14043_10885">
    <rect width="203.254" height="186.685" fill="white" transform="translate(0.875)"/>
    </clipPath>
    </defs>
    </svg>
    