<svg width="141" height="137" viewBox="0 0 141 137" fill="none" xmlns="http://www.w3.org/2000/svg">
    <g clip-path="url(#clip0_14043_10935)">
    <path d="M130.228 90.8529C115.355 105.86 116.308 135.451 83.6958 127.551C71.8555 124.683 66.5026 115.836 53.1344 117.089C29.4779 119.307 19.1585 113.114 14.8288 101.156C12.9733 96.0309 15.8769 82.9785 11.4673 76.7233C1.91571 63.1737 3.74649 51.1999 13.0051 39.1797C17.8726 32.86 26.3365 31.0017 32.4148 28.0291C39.5341 24.5474 43.6253 19.8532 48.4651 15.1905C70.0212 -5.57564 94.0471 -1.77064 109.051 7.27902C121.71 14.915 125.612 28.8972 126.131 38.5472C127.189 58.225 153.22 67.6519 130.228 90.8529ZM134.589 106.43C135.813 103.783 134.64 100.652 131.968 99.439C129.296 98.2258 126.136 99.3885 124.912 102.036C123.688 104.684 124.862 107.815 127.533 109.028C130.206 110.241 133.365 109.078 134.589 106.43ZM66.0207 127.15C64.6393 123.467 60.5064 121.59 56.7896 122.958C53.0729 124.327 51.1791 128.422 52.5598 132.105C53.9412 135.788 58.0741 137.665 61.7908 136.297C65.5083 134.928 67.4014 130.833 66.0207 127.15ZM22.0989 12.7256C22.6431 14.2242 24.3104 15.0019 25.8227 14.4619C27.3351 13.9227 28.1199 12.2705 27.5757 10.772C27.0315 9.27338 25.3642 8.49569 23.8518 9.03566C22.3395 9.57492 21.5547 11.2271 22.0996 12.7256H22.0989ZM132.029 37.5135C130.62 39.6215 131.202 42.4622 133.329 43.8584C135.457 45.2546 138.323 44.6775 139.732 42.5695C141.141 40.4616 140.559 37.6208 138.432 36.2246C136.304 34.8284 133.438 35.4055 132.029 37.5135ZM29.9825 15.1008C29.0866 18.0215 30.7503 21.1098 33.6986 21.9969C36.6468 22.8847 39.7627 21.236 40.6579 18.3146C41.5539 15.3939 39.8901 12.3063 36.9419 11.4185C33.9944 10.5307 30.8784 12.1794 29.9825 15.1008ZM130.49 29.4323C129.752 30.5367 130.057 32.0248 131.172 32.7562C132.286 33.4876 133.788 33.1854 134.526 32.0809C135.264 30.9764 134.959 29.4884 133.845 28.7563C132.73 28.0249 131.228 28.3271 130.489 29.4316L130.49 29.4323ZM4.66506 98.4944C4.32608 99.5989 4.95521 100.766 6.06982 101.102C7.18442 101.438 8.36272 100.815 8.7017 99.7104C9.04068 98.6059 8.41155 97.4383 7.29694 97.1024C6.18234 96.7665 5.00404 97.3899 4.66506 98.4944ZM10.7073 90.6292C11.9372 87.9693 10.7582 84.8256 8.07398 83.6068C5.38973 82.388 2.21718 83.5563 0.987222 86.2162C-0.242735 88.876 0.936269 92.0197 3.62052 93.2385C6.30477 94.4573 9.47732 93.289 10.7073 90.6292Z" fill="#CCEDDF"/>
    <path d="M99.3527 23.6235V27.9523H45.5V23.6235C45.5 22.9867 45.626 22.3752 45.8517 21.8114C45.8864 21.7294 45.9211 21.6481 45.9557 21.5709C46.2119 21.0155 46.5679 20.512 47.0024 20.0779C48.0576 19.0148 49.5862 18.3438 51.2931 18.3438H93.5384C96.7478 18.3438 99.3527 20.7147 99.3527 23.6235Z" fill="#00BF5F"/>
    <path d="M99.3527 103.406V107.735C99.3527 110.644 96.747 113.015 93.5384 113.015H51.2931C49.5862 113.015 48.0576 112.344 47.0024 111.281C46.5679 110.846 46.2119 110.342 45.9557 109.788C45.9211 109.71 45.8864 109.628 45.8517 109.546C45.626 108.983 45.5 108.372 45.5 107.735V103.406H99.3527Z" fill="#00BF5F"/>
    <path d="M72.4367 18.3438V27.953H45.5078V23.6242C45.5078 22.9874 45.6295 22.3759 45.8553 21.8121C45.89 21.7301 45.9246 21.6488 45.9593 21.5716C46.2155 21.0204 46.5715 20.5127 47.006 20.0786C48.0611 19.0155 49.5897 18.3444 51.2967 18.3444H72.4367V18.3438Z" fill="#01A45F"/>
    <path d="M45.5078 103.406H72.4367V113.016H51.2967C49.5897 113.016 48.0611 112.344 47.006 111.281C46.5715 110.847 46.2155 110.339 45.9593 109.788C45.9246 109.711 45.89 109.629 45.8553 109.547C45.6295 108.983 45.5078 108.373 45.5078 107.736V103.407V103.406Z" fill="#01A45F"/>
    <path d="M99.3536 25.7188H96.75V105.293H99.3536V25.7188Z" fill="#00BF5F"/>
    <path d="M48.1114 25.7188H45.5078V105.293H48.1114V25.7188Z" fill="#323548"/>
    <path d="M48.1114 25.7188H45.5078V105.293H48.1114V25.7188Z" fill="#01A45F"/>
    <path d="M94.7444 23.1484H50.1135C48.8945 23.1484 47.9062 24.1277 47.9062 25.3356V106.021C47.9062 107.229 48.8945 108.208 50.1135 108.208H94.7444C95.9635 108.208 96.9517 107.229 96.9517 106.021V25.3356C96.9517 24.1277 95.9635 23.1484 94.7444 23.1484Z" fill="#BACEE2"/>
    <path d="M101.392 33.5859H43.4628C42.1113 33.5859 41.0156 34.6716 41.0156 36.0109V87.4225C41.0156 88.7617 42.1113 89.8474 43.4628 89.8474H101.392C102.743 89.8474 103.839 88.7617 103.839 87.4225V36.0109C103.839 34.6716 102.743 33.5859 101.392 33.5859Z" fill="white"/>
    <path d="M69.5859 100.649V87.0625H88.1223L69.5859 100.649Z" fill="white"/>
    <path d="M64.6617 62.2104C64.6617 64.1275 64.2965 65.7583 63.5654 67.1034C62.8351 68.4486 61.8414 69.4742 60.5857 70.1809C59.3294 70.8877 57.9192 71.2411 56.3539 71.2411C54.7886 71.2411 53.3621 70.8863 52.1093 70.1767C50.8558 69.4671 49.8656 68.4401 49.1381 67.095C48.4106 65.7506 48.0469 64.1219 48.0469 62.2104C48.0469 60.2989 48.4106 58.6624 49.1381 57.3173C49.8656 55.9729 50.8565 54.9466 52.1093 54.2398C53.3621 53.5331 54.7772 53.1797 56.3539 53.1797C57.9306 53.1797 59.3294 53.5331 60.5857 54.2398C61.8421 54.9466 62.8351 55.9722 63.5654 57.3173C64.2958 58.6624 64.6617 60.2932 64.6617 62.2104ZM60.8584 62.2104C60.8584 60.969 60.6719 59.9215 60.2996 59.0687C59.9273 58.2159 59.4027 57.5698 58.7271 57.129C58.0516 56.6881 57.2601 56.4681 56.3532 56.4681C55.4463 56.4681 54.6555 56.6881 53.9792 57.129C53.3037 57.5698 52.7798 58.2166 52.4068 59.0687C52.0345 59.9215 51.848 60.969 51.848 62.2104C51.848 63.4518 52.0345 64.4993 52.4068 65.352C52.7791 66.2048 53.3037 66.8516 53.9792 67.2918C54.6548 67.7326 55.4463 67.9527 56.3532 67.9527C57.2601 67.9527 58.0509 67.7326 58.7271 67.2918C59.4027 66.8509 59.9266 66.2048 60.2996 65.352C60.6719 64.4993 60.8584 63.4518 60.8584 62.2104Z" fill="#00BF5F"/>
    <path d="M66.7578 56.4866V53.4219H81.3289V56.4866H75.8977V71.0022H72.1898V56.4866H66.7578Z" fill="#00BF5F"/>
    <path d="M83.7344 71.0022V53.4219H90.7338C92.0791 53.4219 93.2259 53.6751 94.1726 54.1815C95.1201 54.688 95.8433 55.3891 96.343 56.2849C96.8427 57.1807 97.0925 58.212 97.0925 59.3793C97.0925 60.5467 96.8384 61.5765 96.3302 62.4695C95.8219 63.3625 95.0873 64.0573 94.1256 64.5552C93.164 65.0532 92.0015 65.3022 90.6391 65.3022H86.1781V62.3235H90.0333C90.7551 62.3235 91.3516 62.1993 91.8222 61.9503C92.2927 61.7014 92.645 61.355 92.8792 60.9114C93.1134 60.4677 93.2302 59.957 93.2302 59.3793C93.2302 58.8016 93.1134 58.2846 92.8792 57.8473C92.645 57.4093 92.2913 57.0693 91.8179 56.8259C91.3445 56.5826 90.7437 56.4613 90.0163 56.4613H87.4864V71.0029H83.7351L83.7344 71.0022Z" fill="#00BF5F"/>
    </g>
    <defs>
    <clipPath id="clip0_14043_10935">
    <rect width="140" height="136.744" fill="white" transform="translate(0.5)"/>
    </clipPath>
    </defs>
    </svg>
    