<svg width="58" height="56" viewBox="0 0 58 56" fill="none"
    xmlns="http://www.w3.org/2000/svg">
    <path fill-rule="evenodd" clip-rule="evenodd" d="M23.282 7.4647C22.7036 7.94894 22.4144 8.19107 22.1055 8.39445C21.3975 8.86066 20.6024 9.18423 19.7662 9.34642C19.4015 9.41717 19.0227 9.44686 18.2652 9.50625C16.3619 9.65547 15.4103 9.73008 14.6163 10.0056C12.78 10.6428 11.3355 12.0619 10.6869 13.866C10.4065 14.6461 10.3305 15.581 10.1787 17.4509C10.1182 18.1951 10.088 18.5673 10.016 18.9256C9.85088 19.7471 9.52154 20.5283 9.047 21.2239C8.83999 21.5273 8.59354 21.8114 8.10065 22.3797C6.86223 23.8074 6.243 24.5213 5.87989 25.2676C5.04004 26.9939 5.04004 29.0008 5.87989 30.7271C6.243 31.4735 6.86222 32.1874 8.10065 33.6151C8.59349 34.1833 8.84 34.4675 9.047 34.7709C9.52154 35.4665 9.85088 36.2477 10.016 37.0692C10.088 37.4275 10.1182 37.7996 10.1787 38.5439C10.3305 40.4138 10.4065 41.3487 10.6869 42.1287C11.3355 43.9329 12.78 45.352 14.6163 45.9892C15.4103 46.2647 16.3619 46.3393 18.2652 46.4885C19.0227 46.5479 19.4015 46.5776 19.7662 46.6484C20.6024 46.8106 21.3975 47.1341 22.1055 47.6003C22.4144 47.8037 22.7036 48.0458 23.282 48.5301C24.7352 49.7468 25.4618 50.3551 26.2215 50.7119C27.9786 51.537 30.0214 51.537 31.7785 50.7119C32.5382 50.3551 33.2648 49.7468 34.718 48.5301C35.2964 48.0458 35.5856 47.8037 35.8945 47.6003C36.6025 47.1341 37.3976 46.8106 38.2338 46.6484C38.5985 46.5776 38.9773 46.5479 39.7348 46.4885C41.6381 46.3393 42.5897 46.2647 43.3837 45.9892C45.22 45.352 46.6645 43.9329 47.3131 42.1287C47.5935 41.3487 47.6695 40.4138 47.8213 38.5439C47.8818 37.7996 47.912 37.4275 47.984 37.0692C48.1491 36.2477 48.4785 35.4665 48.953 34.7709C49.16 34.4675 49.4065 34.1834 49.8994 33.6151C51.1378 32.1874 51.757 31.4735 52.1201 30.7271C52.96 29.0008 52.96 26.994 52.1201 25.2676C51.757 24.5213 51.1378 23.8074 49.8994 22.3797C49.4065 21.8114 49.16 21.5273 48.953 21.2239C48.4785 20.5283 48.1491 19.7471 47.984 18.9256C47.912 18.5673 47.8818 18.1951 47.8213 17.4509C47.6695 15.581 47.5935 14.6461 47.3131 13.866C46.6645 12.0619 45.22 10.6428 43.3837 10.0056C42.5897 9.73008 41.6381 9.65547 39.7348 9.50625C38.9773 9.44686 38.5985 9.41717 38.2338 9.34642C37.3976 9.18423 36.6025 8.86066 35.8945 8.39445C35.5856 8.19107 35.2964 7.94895 34.718 7.4647C33.2648 6.24799 32.5382 5.63964 31.7785 5.2829C30.0214 4.45778 27.9786 4.45778 26.2215 5.2829C25.4618 5.63964 24.7352 6.24801 23.282 7.4647ZM39.387 23.0114C40.1419 22.2698 40.1419 21.0674 39.387 20.3258C38.6322 19.5842 37.4083 19.5842 36.6535 20.3258L25.1341 31.643L21.3465 27.9218C20.5916 27.1802 19.3678 27.1802 18.6129 27.9218C17.8581 28.6634 17.8581 29.8658 18.6129 30.6074L23.7674 35.6714C24.5222 36.413 25.7461 36.413 26.5009 35.6714L39.387 23.0114Z" fill="#11AB78"/>
</svg>
    