<svg width="17" height="17" viewBox="0 0 17 17" fill="none"
    xmlns="http://www.w3.org/2000/svg">
    <path d="M1.77344 8.66036C1.77344 6.10253 1.77344 4.82361 2.56805 4.02899C3.36267 3.23438 4.64159 3.23438 7.19942 3.23438H8.2168C10.7746 3.23438 12.0535 3.23438 12.8482 4.02899C13.6428 4.82361 13.6428 6.10253 13.6428 8.66036C13.6428 11.2182 13.6428 12.4971 12.8482 13.2917C12.0535 14.0863 10.7746 14.0863 8.2168 14.0863H7.19942C4.64159 14.0863 3.36267 14.0863 2.56805 13.2917C2.12504 12.8487 1.92901 12.2552 1.84227 11.3734" stroke="currentColor" stroke-width="1.5" stroke-linecap="round"/>
    <path d="M15.3359 10.0156L15.3359 7.30263" stroke="currentColor" stroke-width="1.5" stroke-linecap="round"/>
    <path d="M5.16406 6.625C5.16406 6.625 5.50319 7.23542 5.50319 8.65975C5.50319 10.0841 5.16406 10.6945 5.16406 10.6945" stroke="currentColor" stroke-width="1.5" stroke-linecap="round"/>
    <path d="M7.53906 6.625C7.53906 6.625 7.87819 7.23542 7.87819 8.65975C7.87819 10.0841 7.53906 10.6945 7.53906 10.6945" stroke="currentColor" stroke-width="1.5" stroke-linecap="round"/>
    <path d="M9.90625 6.625C9.90625 6.625 10.2454 7.23542 10.2454 8.65975C10.2454 10.0841 9.90625 10.6945 9.90625 10.6945" stroke="currentColor" stroke-width="1.5" stroke-linecap="round"/>
</svg>
