<svg width="16" height="16" viewBox="0 0 16 16" fill="none" xmlns="http://www.w3.org/2000/svg">
<path fill-rule="evenodd" clip-rule="evenodd" d="M1.75 8C1.75 5.64298 1.75 4.46447 2.48223 3.73223C3.21447 3 4.39298 3 6.75 3H7.6875C10.0445 3 11.223 3 11.9553 3.73223C12.6875 4.46447 12.6875 5.64298 12.6875 8C12.6875 10.357 12.6875 11.5355 11.9553 12.2678C11.223 13 10.0445 13 7.6875 13H6.75C4.39298 13 3.21447 13 2.48223 12.2678C1.75 11.5355 1.75 10.357 1.75 8ZM7.98759 5.7649C8.18647 5.93063 8.21334 6.22621 8.0476 6.42509L7.1258 7.53125H8.3125C8.49438 7.53125 8.65985 7.63647 8.73699 7.80118C8.81414 7.96589 8.78904 8.16036 8.6726 8.30009L7.1101 10.1751C6.94437 10.374 6.64879 10.4008 6.44991 10.2351C6.25103 10.0694 6.22416 9.77379 6.3899 9.57491L7.3117 8.46875H6.125C5.94312 8.46875 5.77765 8.36353 5.7005 8.19882C5.62336 8.03411 5.64846 7.83964 5.7649 7.69991L7.3274 5.82491C7.49313 5.62603 7.78871 5.59916 7.98759 5.7649Z" fill="white"/>
<path d="M13.7812 9.25C13.7812 9.50888 13.9911 9.71875 14.25 9.71875C14.5089 9.71875 14.7188 9.50888 14.7188 9.25V6.75C14.7187 6.49112 14.5089 6.28125 14.25 6.28125C13.9911 6.28125 13.7812 6.49112 13.7812 6.75V9.25Z" fill="white"/>
</svg>
