<svg width="16" height="16" viewBox="0 0 16 16" xmlns="http://www.w3.org/2000/svg">
    <path
        d="M5.56786 13.4972C6.12859 14.2099 7.00946 14.6693 8 14.6693C8.99055 14.6693 9.87142 14.2099 10.4321 13.4972C8.81762 13.7159 7.18238 13.7159 5.56786 13.4972Z"
    />
    <path
        d="M12.4994 6.0026V6.472C12.4994 7.03533 12.6602 7.58605 12.9615 8.05477L13.6998 9.20337C14.3741 10.2525 13.8593 11.6785 12.6864 12.0103C9.61817 12.8782 6.38183 12.8782 3.31357 12.0103C2.1407 11.6785 1.62588 10.2525 2.30024 9.20337L3.03853 8.05477C3.33981 7.58605 3.50058 7.03533 3.50058 6.472V6.0026C3.50058 3.42527 5.51504 1.33594 8 1.33594C10.485 1.33594 12.4994 3.42528 12.4994 6.0026Z"
    />
</svg>
    