<svg width="24" height="24" viewBox="0 0 24 24" fill="none" xmlns="http://www.w3.org/2000/svg">
    <rect width="24" height="24" rx="12" fill="#00A45F" fill-opacity="0.07"/>
    <path fill-rule="evenodd" clip-rule="evenodd" d="M8.83001 5.33594H15.17C15.9426 5.33594 16.3289 5.33594 16.6404 5.44434C17.2312 5.64991 17.695 6.1274 17.8947 6.73558C18 7.0563 18 7.45397 18 8.24931V17.5854C18 18.1576 17.3433 18.4611 16.9279 18.081C16.6839 17.8577 16.3161 17.8577 16.0721 18.081L15.75 18.3757C15.3223 18.7671 14.6777 18.7671 14.25 18.3757C13.8223 17.9843 13.1777 17.9843 12.75 18.3757C12.3223 18.7671 11.6777 18.7671 11.25 18.3757C10.8223 17.9843 10.1777 17.9843 9.75 18.3757C9.32228 18.7671 8.67772 18.7671 8.25 18.3757L7.92794 18.081C7.68388 17.8577 7.31612 17.8577 7.07206 18.081C6.65666 18.4611 6 18.1576 6 17.5854V8.24931C6 7.45397 6 7.0563 6.1053 6.73558C6.30499 6.1274 6.76881 5.64991 7.35959 5.44434C7.67114 5.33594 8.05743 5.33594 8.83001 5.33594ZM14.0396 9.66895C14.2236 9.46297 14.2057 9.14689 13.9997 8.96297C13.7937 8.77906 13.4776 8.79695 13.2937 9.00293L11.2857 11.2519L10.7063 10.6029C10.5224 10.3969 10.2063 10.3791 10.0003 10.563C9.79434 10.7469 9.77645 11.063 9.96036 11.269L10.9127 12.3356C11.0076 12.4419 11.1433 12.5026 11.2857 12.5026C11.4281 12.5026 11.5638 12.4419 11.6587 12.3356L14.0396 9.66895ZM9 13.8359C8.72386 13.8359 8.5 14.0598 8.5 14.3359C8.5 14.6121 8.72386 14.8359 9 14.8359H15C15.2761 14.8359 15.5 14.6121 15.5 14.3359C15.5 14.0598 15.2761 13.8359 15 13.8359H9Z" fill="#65D090"/>
    </svg>
    