<svg width="24" height="24" viewBox="0 0 24 24" fill="none" xmlns="http://www.w3.org/2000/svg">
    <rect width="24" height="24" rx="12" fill="#00A45F" fill-opacity="0.07"/>
    <path d="M5.33594 14.7591V7.32861C5.33594 6.5965 5.9268 6.00176 6.65754 6.04667C7.30845 6.08668 8.07826 6.16575 8.66927 6.32171C9.36874 6.50628 10.2 6.89942 10.8574 7.24705C11.0621 7.35529 11.2798 7.43037 11.5026 7.4727L11.5026 17.5918C11.3006 17.5473 11.1036 17.4754 10.9175 17.3762C10.2512 17.0211 9.39024 16.6092 8.66927 16.419C8.0848 16.2648 7.32546 16.1857 6.67918 16.1453C5.93997 16.0991 5.33594 15.4998 5.33594 14.7591Z" fill="#65D090"/>
    <path d="M12.5026 17.5918C12.7046 17.5473 12.9016 17.4754 13.0877 17.3762C13.754 17.0211 14.615 16.6092 15.3359 16.419C15.9204 16.2648 16.6798 16.1857 17.326 16.1453C18.0652 16.0991 18.6693 15.4998 18.6693 14.7591V7.28554C18.6693 6.57058 18.1051 5.98369 17.3906 6.00858C16.6382 6.03478 15.7005 6.11276 15.0026 6.32171C14.3975 6.50285 13.6928 6.8662 13.1185 7.19858C12.9242 7.31104 12.7165 7.39365 12.5026 7.44602L12.5026 17.5918Z" fill="#65D090"/>
    </svg>
    