<svg width="24" height="25" viewBox="0 0 24 25" xmlns="http://www.w3.org/2000/svg">
    <path
        d="M16.5562 13.2734L16.1007 13.7262C16.1007 13.7262 15.0181 14.8027 12.0631 11.8644C9.10812 8.9262 10.1907 7.84976 10.1907 7.84976L10.4775 7.56457C11.1841 6.86203 11.2507 5.7341 10.6342 4.91067L9.37326 3.22627C8.61028 2.2071 7.13596 2.07247 6.26145 2.94202L4.69185 4.50271C4.25823 4.93386 3.96765 5.49278 4.00289 6.11279C4.09304 7.69901 4.81071 11.1118 8.81536 15.0938C13.0621 19.3164 17.0468 19.4842 18.6763 19.3323C19.1917 19.2843 19.6399 19.0218 20.0011 18.6626L21.4217 17.2502C22.3806 16.2967 22.1102 14.6621 20.8833 13.9952L18.9728 12.9566C18.1672 12.5187 17.1858 12.6473 16.5562 13.2734Z"
    />
</svg>
    