<svg width="21" height="20" viewBox="0 0 21 20" fill="none"
    xmlns="http://www.w3.org/2000/svg">
    <g clip-path="url(#clip0_14023_1270)">
        <path d="M19.6693 15.8333C19.6693 16.2754 19.4937 16.6993 19.1811 17.0118C18.8686 17.3244 18.4446 17.5 18.0026 17.5H3.0026C2.56058 17.5 2.13665 17.3244 1.82409 17.0118C1.51153 16.6993 1.33594 16.2754 1.33594 15.8333V6.66667C1.33594 6.22464 1.51153 5.80072 1.82409 5.48816C2.13665 5.17559 2.56058 5 3.0026 5H6.33594L8.0026 2.5H13.0026L14.6693 5H18.0026C18.4446 5 18.8686 5.17559 19.1811 5.48816C19.4937 5.80072 19.6693 6.22464 19.6693 6.66667V15.8333Z" stroke="#ffffff" stroke-width="1.5" stroke-linecap="round" stroke-linejoin="round"/>
        <path d="M10.5026 14.1667C12.3436 14.1667 13.8359 12.6743 13.8359 10.8333C13.8359 8.99238 12.3436 7.5 10.5026 7.5C8.66165 7.5 7.16927 8.99238 7.16927 10.8333C7.16927 12.6743 8.66165 14.1667 10.5026 14.1667Z" stroke="#ffffff" stroke-width="1.5" stroke-linecap="round" stroke-linejoin="round"/>
    </g>
    <defs>
        <clipPath id="clip0_14023_1270">
            <rect width="20" height="20" fill="white" transform="translate(0.5)"/>
        </clipPath>
    </defs>
</svg>
    