<svg width="26" height="27" viewBox="0 0 26 27" fill="none" xmlns="http://www.w3.org/2000/svg">
    <circle cx="12.8867" cy="13.6602" r="12.8867" fill="#12AB77" fill-opacity="0.1"/>
    <g clip-path="url(#clip0_14155_4329)">
    <path d="M6.77344 13.6604C6.77344 11.1025 6.77344 9.82361 7.56805 9.02899C8.36267 8.23438 9.64159 8.23438 12.1994 8.23438H13.2168C15.7746 8.23438 17.0535 8.23438 17.8482 9.02899C18.6428 9.82361 18.6428 11.1025 18.6428 13.6604C18.6428 16.2182 18.6428 17.4971 17.8482 18.2917C17.0535 19.0863 15.7746 19.0863 13.2168 19.0863H12.1994C9.64159 19.0863 8.36267 19.0863 7.56805 18.2917C7.12504 17.8487 6.92901 17.2552 6.84227 16.3734" stroke="#32B768" stroke-width="1.5" stroke-linecap="round"/>
    <path d="M20.3359 15.0156L20.3359 12.3026" stroke="#32B768" stroke-width="1.5" stroke-linecap="round"/>
    <path d="M10.1641 11.625C10.1641 11.625 10.5032 12.2354 10.5032 13.6597C10.5032 15.0841 10.1641 15.6945 10.1641 15.6945" stroke="#32B768" stroke-width="1.5" stroke-linecap="round"/>
    <path d="M12.5391 11.625C12.5391 11.625 12.8782 12.2354 12.8782 13.6597C12.8782 15.0841 12.5391 15.6945 12.5391 15.6945" stroke="#32B768" stroke-width="1.5" stroke-linecap="round"/>
    <path d="M14.9062 11.625C14.9062 11.625 15.2454 12.2354 15.2454 13.6597C15.2454 15.0841 14.9062 15.6945 14.9062 15.6945" stroke="#32B768" stroke-width="1.5" stroke-linecap="round"/>
    </g>
    <defs>
    <clipPath id="clip0_14155_4329">
    <rect width="16.278" height="16.278" fill="white" transform="translate(5.41406 5.52344)"/>
    </clipPath>
    </defs>
    </svg>
    