<svg width="26" height="27" viewBox="0 0 26 27" fill="none" xmlns="http://www.w3.org/2000/svg">
<circle cx="12.8867" cy="13.3867" r="12.8867" fill="#12AB77" fill-opacity="0.1"/>
<g clip-path="url(#clip0_13882_34453)">
<path d="M15.7677 17.6164C14.4252 19.4328 13.7539 20.341 13.1277 20.1491C12.5014 19.9572 12.5014 18.8433 12.5014 16.6154L12.5014 16.4055C12.5014 15.602 12.5015 15.2002 12.2447 14.9482L12.2311 14.9351C11.9688 14.6884 11.5507 14.6884 10.7144 14.6884C9.20944 14.6884 8.45697 14.6884 8.20266 14.232C8.19845 14.2245 8.19435 14.2169 8.19038 14.2092C7.95031 13.7457 8.38599 13.1562 9.25735 11.9773L11.3342 9.16727C12.6767 7.35089 13.348 6.44269 13.9743 6.63461C14.6005 6.82654 14.6005 7.94043 14.6005 10.1682V10.3783C14.6005 11.1818 14.6005 11.5836 14.8573 11.8356L14.8709 11.8486C15.1331 12.0953 15.5513 12.0953 16.3876 12.0953C17.8925 12.0953 18.645 12.0953 18.8993 12.5517C18.9035 12.5593 18.9076 12.5669 18.9116 12.5746C19.1517 13.0381 18.716 13.6275 17.8446 14.8065" stroke="#32B768" stroke-width="1.5" stroke-linecap="round"/>
</g>
<defs>
<clipPath id="clip0_13882_34453">
<rect width="16.278" height="16.278" fill="white" transform="translate(5.41406 5.25)"/>
</clipPath>
</defs>
</svg>
