<svg width="25" height="25" viewBox="0 0 25 25" 
    xmlns="http://www.w3.org/2000/svg">
    <path fill-rule="evenodd" clip-rule="evenodd" d="M10.5 2.89062H9.5C6.67157 2.89062 5.25736 2.89062 4.37868 3.7693C3.5 4.64798 3.5 6.0622 3.5 8.89062V22.1406H2.5C2.08579 22.1406 1.75 22.4764 1.75 22.8906C1.75 23.3048 2.08579 23.6406 2.5 23.6406H17.75C18.1642 23.6406 18.5 23.3048 18.5 22.8906C18.5 22.4764 18.1642 22.1406 17.75 22.1406H16.5V18.6407H18.0714C18.4462 18.6407 18.75 18.9445 18.75 19.3192V19.3907C18.75 20.6333 19.7574 21.6407 21 21.6407C22.2426 21.6407 23.25 20.6333 23.25 19.3907V8.4924C23.25 8.33573 23.25 8.22765 23.2441 8.12223C23.1884 7.13126 22.7422 6.20277 22.0031 5.54025C21.9245 5.46977 21.8401 5.40226 21.7178 5.3044L20.4685 4.305C20.1451 4.04624 19.6731 4.09868 19.4143 4.42213C19.1556 4.74558 19.208 5.21755 19.5315 5.4763L20.7646 6.46277C20.9091 6.57836 20.9585 6.61831 21.0019 6.65716C21.4453 7.05467 21.7131 7.61177 21.7465 8.20635C21.7497 8.26446 21.75 8.32806 21.75 8.5131V8.89062H21C20.1716 8.89062 19.5 9.5622 19.5 10.3906V12.8095C19.5 13.4551 19.9131 14.0283 20.5257 14.2325L21.75 14.6406V19.3907C21.75 19.8049 21.4142 20.1407 21 20.1407C20.5858 20.1407 20.25 19.8049 20.25 19.3907V19.3192C20.25 18.116 19.2746 17.1407 18.0714 17.1407H16.5V8.89062C16.5 6.0622 16.5 4.64798 15.6213 3.7693C14.7426 2.89062 13.3284 2.89062 10.5 2.89062ZM10.3859 10.2475C10.7411 10.4606 10.8562 10.9213 10.6431 11.2765L9.82464 12.6406H11.5C11.7702 12.6406 12.0195 12.786 12.1527 13.0211C12.2858 13.2562 12.2821 13.5448 12.1431 13.7765L10.6431 16.2765C10.43 16.6317 9.96931 16.7469 9.61413 16.5337C9.25894 16.3206 9.14377 15.8599 9.35688 15.5048L10.1754 14.1406H8.5C8.2298 14.1406 7.98048 13.9953 7.84735 13.7601C7.71422 13.525 7.71786 13.2365 7.85688 13.0048L9.35688 10.5048C9.56999 10.1496 10.0307 10.0344 10.3859 10.2475Z" />
</svg>
    