<svg width="26" height="26" viewBox="0 0 26 26" fill="none" xmlns="http://www.w3.org/2000/svg">
    <circle cx="12.8867" cy="12.8867" r="12.8867" fill="#12AB77" fill-opacity="0.1"/>
    <g clip-path="url(#clip0_14155_4317)">
    <path d="M9.48438 10.1797H12.1974" stroke="#32B768" stroke-width="1.5" stroke-linecap="round" stroke-linejoin="round"/>
    <path d="M19.5424 10.8516H17.7772C16.567 10.8516 15.5859 11.7625 15.5859 12.8863C15.5859 14.0101 16.567 14.9211 17.7772 14.9211H19.5424C19.5989 14.9211 19.6272 14.9211 19.651 14.9196C20.0168 14.8973 20.3081 14.6268 20.3321 14.2872C20.3337 14.265 20.3337 14.2388 20.3337 14.1863V11.5863C20.3337 11.5338 20.3337 11.5076 20.3321 11.4855C20.3081 11.1458 20.0168 10.8753 19.651 10.853C19.6272 10.8516 19.5989 10.8516 19.5424 10.8516Z" stroke="#32B768" stroke-width="1.5"/>
    <mask id="path-4-inside-1_14155_4317" fill="white">
    <ellipse cx="17.6236" cy="12.8892" rx="0.678248" ry="0.678248"/>
    </mask>
    <ellipse cx="17.6236" cy="12.8892" rx="0.678248" ry="0.678248" fill="#32B768"/>
    <path d="M17.3018 12.8892C17.3018 12.7115 17.4459 12.5674 17.6236 12.5674V14.5674C18.5504 14.5674 19.3018 13.8161 19.3018 12.8892H17.3018ZM17.6236 12.5674C17.8013 12.5674 17.9453 12.7115 17.9453 12.8892H15.9453C15.9453 13.8161 16.6967 14.5674 17.6236 14.5674V12.5674ZM17.9453 12.8892C17.9453 13.0669 17.8013 13.2109 17.6236 13.2109V11.2109C16.6967 11.2109 15.9453 11.9623 15.9453 12.8892H17.9453ZM17.6236 13.2109C17.4459 13.2109 17.3018 13.0669 17.3018 12.8892H19.3018C19.3018 11.9623 18.5504 11.2109 17.6236 11.2109V13.2109Z" fill="#32B768" mask="url(#path-4-inside-1_14155_4317)"/>
    <path d="M19.6364 10.8522C19.5837 9.58229 19.4137 8.8037 18.8655 8.25555C18.0709 7.46094 16.792 7.46094 14.2342 7.46094L12.1994 7.46094C9.64159 7.46094 8.36267 7.46094 7.56805 8.25556C6.77344 9.05017 6.77344 10.3291 6.77344 12.8869C6.77344 15.4448 6.77344 16.7237 7.56805 17.5183C8.36267 18.3129 9.64159 18.3129 12.1994 18.3129H14.2342C16.792 18.3129 18.0709 18.3129 18.8655 17.5183C19.4137 16.9702 19.5837 16.1916 19.6364 14.9217" stroke="#32B768" stroke-width="1.5"/>
    </g>
    <defs>
    <clipPath id="clip0_14155_4317">
    <rect width="16.278" height="16.278" fill="white" transform="translate(5.41406 4.75)"/>
    </clipPath>
    </defs>
    </svg>
    