<svg width="17" height="18" viewBox="0 0 17 18" fill="none"
    xmlns="http://www.w3.org/2000/svg">
    <path d="M4.48438 6.17969H7.19737" stroke="currentColor" stroke-width="1.5" stroke-linecap="round" stroke-linejoin="round"/>
    <path d="M14.5424 6.85156H12.7772C11.567 6.85156 10.5859 7.76255 10.5859 8.88631C10.5859 10.0101 11.567 10.9211 12.7772 10.9211H14.5424C14.5989 10.9211 14.6272 10.9211 14.651 10.9196C15.0168 10.8973 15.3081 10.6268 15.3321 10.2872C15.3337 10.265 15.3337 10.2388 15.3337 10.1863V7.58633C15.3337 7.53385 15.3337 7.50761 15.3321 7.48545C15.3081 7.14581 15.0168 6.87528 14.651 6.85301C14.6272 6.85156 14.5989 6.85156 14.5424 6.85156Z" stroke="currentColor" stroke-width="1.5"/>
    <ellipse cx="12.6236" cy="8.88919" rx="0.678248" ry="0.678248" fill="currentColor"/>
    <path d="M12.3018 8.88919C12.3018 8.71149 12.4459 8.56743 12.6236 8.56743V10.5674C13.5504 10.5674 14.3018 9.81606 14.3018 8.88919H12.3018ZM12.6236 8.56743C12.8013 8.56743 12.9453 8.71149 12.9453 8.88919H10.9453C10.9453 9.81606 11.6967 10.5674 12.6236 10.5674V8.56743ZM12.9453 8.88919C12.9453 9.06688 12.8013 9.21094 12.6236 9.21094V7.21094C11.6967 7.21094 10.9453 7.96232 10.9453 8.88919H12.9453ZM12.6236 9.21094C12.4459 9.21094 12.3018 9.06688 12.3018 8.88919H14.3018C14.3018 7.96232 13.5504 7.21094 12.6236 7.21094V9.21094Z" fill="currentColor" mask="url(#path-3-inside-1_14532_5386)"/>
    <path d="M14.6364 6.85218C14.5837 5.58229 14.4137 4.8037 13.8655 4.25555C13.0709 3.46094 11.792 3.46094 9.23417 3.46094L7.19942 3.46094C4.64159 3.46094 3.36267 3.46094 2.56805 4.25556C1.77344 5.05017 1.77344 6.32909 1.77344 8.88692C1.77344 11.4448 1.77344 12.7237 2.56805 13.5183C3.36267 14.3129 4.64159 14.3129 7.19942 14.3129H9.23417C11.792 14.3129 13.0709 14.3129 13.8655 13.5183C14.4137 12.9702 14.5837 12.1916 14.6364 10.9217" stroke="currentColor" stroke-width="1.5"/>
</svg>
