<svg width="16" height="16" viewBox="0 0 16 16"  xmlns="http://www.w3.org/2000/svg">
<path d="M13.5625 4.35375L12.3538 3.14625C12.2599 3.05243 12.1327 2.99972 12 2.99972C11.8673 2.99972 11.7401 3.05243 11.6462 3.14625C11.5524 3.24007 11.4997 3.36732 11.4997 3.5C11.4997 3.63268 11.5524 3.75993 11.6462 3.85375L12.8538 5.0625C12.947 5.15589 12.9996 5.28238 13 5.41437V10.5C13 10.6326 12.9473 10.7598 12.8536 10.8536C12.7598 10.9473 12.6326 11 12.5 11C12.3674 11 12.2402 10.9473 12.1464 10.8536C12.0527 10.7598 12 10.6326 12 10.5V8C12 7.60218 11.842 7.22064 11.5607 6.93934C11.2794 6.65804 10.8978 6.5 10.5 6.5H9.5V3.5C9.5 3.10218 9.34196 2.72064 9.06066 2.43934C8.77936 2.15804 8.39782 2 8 2H3C2.60218 2 2.22064 2.15804 1.93934 2.43934C1.65804 2.72064 1.5 3.10218 1.5 3.5V13H0.5C0.367392 13 0.240215 13.0527 0.146447 13.1464C0.0526784 13.2402 0 13.3674 0 13.5C0 13.6326 0.0526784 13.7598 0.146447 13.8536C0.240215 13.9473 0.367392 14 0.5 14H10.5C10.6326 14 10.7598 13.9473 10.8536 13.8536C10.9473 13.7598 11 13.6326 11 13.5C11 13.3674 10.9473 13.2402 10.8536 13.1464C10.7598 13.0527 10.6326 13 10.5 13H9.5V7.5H10.5C10.6326 7.5 10.7598 7.55268 10.8536 7.64645C10.9473 7.74021 11 7.86739 11 8V10.5C11 10.8978 11.158 11.2794 11.4393 11.5607C11.7206 11.842 12.1022 12 12.5 12C12.8978 12 13.2794 11.842 13.5607 11.5607C13.842 11.2794 14 10.8978 14 10.5V5.41437C14.0008 5.21745 13.9625 5.02233 13.8874 4.84028C13.8123 4.65824 13.7019 4.49288 13.5625 4.35375ZM7.5 7.5H3.5C3.36739 7.5 3.24021 7.44732 3.14645 7.35355C3.05268 7.25979 3 7.13261 3 7C3 6.86739 3.05268 6.74021 3.14645 6.64645C3.24021 6.55268 3.36739 6.5 3.5 6.5H7.5C7.63261 6.5 7.75979 6.55268 7.85355 6.64645C7.94732 6.74021 8 6.86739 8 7C8 7.13261 7.94732 7.25979 7.85355 7.35355C7.75979 7.44732 7.63261 7.5 7.5 7.5Z" />
</svg>
