<svg width="26" height="26" viewBox="0 0 26 26" fill="none" xmlns="http://www.w3.org/2000/svg">
    <circle cx="12.8867" cy="12.8867" r="12.8867" fill="#12AB77" fill-opacity="0.1"/>
    <path d="M15.7677 17.1164C14.4252 18.9328 13.7539 19.841 13.1277 19.6491C12.5014 19.4572 12.5014 18.3433 12.5014 16.1154L12.5014 15.9055C12.5014 15.102 12.5015 14.7002 12.2447 14.4482L12.2311 14.4351C11.9688 14.1884 11.5507 14.1884 10.7144 14.1884C9.20944 14.1884 8.45697 14.1884 8.20266 13.732C8.19845 13.7245 8.19435 13.7169 8.19038 13.7092C7.95031 13.2457 8.38599 12.6562 9.25735 11.4773L11.3342 8.66727C12.6767 6.85089 13.348 5.94269 13.9743 6.13461C14.6005 6.32654 14.6005 7.44043 14.6005 9.66822V9.87828C14.6005 10.6818 14.6005 11.0836 14.8573 11.3356L14.8709 11.3486C15.1331 11.5953 15.5513 11.5953 16.3876 11.5953C17.8925 11.5953 18.645 11.5953 18.8993 12.0517C18.9035 12.0593 18.9076 12.0669 18.9116 12.0746C19.1517 12.5381 18.716 13.1275 17.8446 14.3065" stroke="#32B768" stroke-width="1.5" stroke-linecap="round"/>
    </svg>
    