<svg width="16" height="17" viewBox="0 0 16 17"
    xmlns="http://www.w3.org/2000/svg">
    <g clip-path="url(#clip0_14023_3677)">
        <path d="M3.37066 5.94033L5.09062 6.37033V1.3873L3.59806 1.01417C3.30259 0.940393 3.01563 1.16396 3.01563 1.46892V5.48558C3.01559 5.70067 3.16197 5.88817 3.37066 5.94033Z" />
        <path d="M9.62619 1.76919L6.96875 1.10484V0.96875C6.96875 0.709875 6.75887 0.5 6.5 0.5C6.24112 0.5 6.03125 0.709875 6.03125 0.96875V7.49584C6.03125 7.75472 6.24112 7.96459 6.5 7.96459C6.72603 7.96459 6.91466 7.80456 6.95887 7.59166L9.39881 8.20162C9.781 8.29728 10.0479 8.63912 10.0479 9.03297V11.0104C10.0479 11.2693 10.2578 11.4792 10.5167 11.4792H12.525C12.7839 11.4792 12.9937 11.2693 12.9937 11.0104V6.08222C12.9937 4.03863 11.609 2.26503 9.62619 1.76919ZM10.1828 5.19503L9.68075 6.19919C9.56481 6.43106 9.28309 6.52444 9.05184 6.40881C8.82028 6.29303 8.72644 6.01147 8.84222 5.77991L9.00509 5.45412H8.75937C8.59691 5.45412 8.44603 5.37 8.36062 5.23181C8.27522 5.09363 8.26747 4.92106 8.34009 4.77575L8.84219 3.77159C8.958 3.54006 9.2395 3.44622 9.47109 3.56197C9.70266 3.67775 9.7965 3.95931 9.68072 4.19088L9.51781 4.51666H9.76353C9.926 4.51666 10.0769 4.60078 10.1623 4.73897C10.2477 4.87716 10.2555 5.04972 10.1828 5.19503Z" />
        <rect x="10.9766" y="11.4766" width="1.07812" height="4.77344" ≈/>
</g>
<defs>
<clipPath id="clip0_14023_3677">
            <rect width="16" height="16" fill="white" transform="translate(0 0.5)"/>
        </clipPath>
    </defs>
</svg>
    