<svg width="25" height="25" viewBox="0 0 25 25" xmlns="http://www.w3.org/2000/svg">
    <path fill-rule="evenodd" clip-rule="evenodd"
        d="M2.57812 12.3906C2.57812 8.61939 2.57812 6.73377 3.7497 5.5622C4.92127 4.39062 6.80689 4.39062 10.5781 4.39062H12.0781C15.8494 4.39062 17.735 4.39062 18.9066 5.5622C20.0781 6.73377 20.0781 8.61939 20.0781 12.3906C20.0781 16.1619 20.0781 18.0475 18.9066 19.2191C17.735 20.3906 15.8494 20.3906 12.0781 20.3906H10.5781C6.80689 20.3906 4.92127 20.3906 3.7497 19.2191C2.57812 18.0475 2.57812 16.1619 2.57812 12.3906ZM12.5583 8.81446C12.8765 9.07963 12.9195 9.55256 12.6543 9.87076L11.1794 11.6406H13.0781C13.3691 11.6406 13.6339 11.809 13.7573 12.0725C13.8808 12.336 13.8406 12.6472 13.6543 12.8708L11.1543 15.8708C10.8891 16.189 10.4162 16.232 10.098 15.9668C9.77978 15.7016 9.73679 15.2287 10.002 14.9105L11.4768 13.1406H9.57812C9.28711 13.1406 9.02237 12.9723 8.89893 12.7087C8.7755 12.4452 8.81566 12.134 9.00196 11.9105L11.502 8.91049C11.7671 8.59228 12.2401 8.54929 12.5583 8.81446Z"
    />
    <path
        d="M21.8281 14.3906C21.8281 14.8048 22.1639 15.1406 22.5781 15.1406C22.9923 15.1406 23.3281 14.8048 23.3281 14.3906V10.3906C23.3281 9.97641 22.9923 9.64062 22.5781 9.64062C22.1639 9.64062 21.8281 9.97641 21.8281 10.3906V14.3906Z"
    />
</svg>