<svg width="24" height="24" viewBox="0 0 24 24" fill="none" xmlns="http://www.w3.org/2000/svg">
    <rect width="24" height="24" rx="12" fill="#00A45F" fill-opacity="0.07"/>
    <path fill-rule="evenodd" clip-rule="evenodd" d="M12.727 18.2611L13.0884 17.6505C13.3688 17.1769 13.5089 16.9401 13.734 16.8092C13.9592 16.6782 14.2426 16.6733 14.8095 16.6636C15.6464 16.6492 16.1713 16.5979 16.6115 16.4155C17.4283 16.0772 18.0772 15.4283 18.4155 14.6115C18.6693 13.999 18.6693 13.2224 18.6693 11.6693V11.0026C18.6693 8.82032 18.6693 7.72917 18.1781 6.92761C17.9032 6.47909 17.5261 6.10199 17.0776 5.82714C16.276 5.33594 15.1849 5.33594 13.0026 5.33594H11.0026C8.82032 5.33594 7.72917 5.33594 6.92761 5.82714C6.47909 6.10199 6.10199 6.47909 5.82714 6.92761C5.33594 7.72917 5.33594 8.82032 5.33594 11.0026V11.6693C5.33594 13.2224 5.33594 13.999 5.58967 14.6115C5.92799 15.4283 6.5769 16.0772 7.39366 16.4155C7.83386 16.5979 8.35875 16.6492 9.19566 16.6636C9.76255 16.6733 10.046 16.6782 10.2711 16.8092C10.4963 16.9401 10.6364 17.1769 10.9167 17.6505L11.2781 18.2611C11.6003 18.8053 12.4049 18.8053 12.727 18.2611ZM14.6693 12.0026C15.0375 12.0026 15.3359 11.7041 15.3359 11.3359C15.3359 10.9677 15.0375 10.6693 14.6693 10.6693C14.3011 10.6693 14.0026 10.9677 14.0026 11.3359C14.0026 11.7041 14.3011 12.0026 14.6693 12.0026ZM12.6693 11.3359C12.6693 11.7041 12.3708 12.0026 12.0026 12.0026C11.6344 12.0026 11.3359 11.7041 11.3359 11.3359C11.3359 10.9677 11.6344 10.6693 12.0026 10.6693C12.3708 10.6693 12.6693 10.9677 12.6693 11.3359ZM9.33594 12.0026C9.70413 12.0026 10.0026 11.7041 10.0026 11.3359C10.0026 10.9677 9.70413 10.6693 9.33594 10.6693C8.96775 10.6693 8.66927 10.9677 8.66927 11.3359C8.66927 11.7041 8.96775 12.0026 9.33594 12.0026Z" fill="#65D090"/>
    </svg>
    