<svg width="29" height="24" viewBox="0 0 29 24" fill="none"
    xmlns="http://www.w3.org/2000/svg">
    <path d="M14.7383 0.213019C17.8987 0.213019 21.0603 0.230109 24.2206 0.203254C25.2536 0.194709 25.9663 0.61096 26.5184 1.48008C32.0261 10.1628 26.5644 21.8446 16.4019 23.0958C7.99474 24.1322 0.616904 17.4758 0.703886 8.91279C0.732881 6.18457 1.49881 3.66754 2.96061 1.36656C3.46317 0.576781 4.14333 0.203254 5.07477 0.208137C8.29555 0.222785 11.5175 0.21424 14.7383 0.21424V0.213019ZM6.64409 12.454C8.38616 12.4491 9.77305 11.027 9.76338 9.25335C9.75372 7.52976 8.3475 6.11133 6.64046 6.10401C4.92014 6.09668 3.47405 7.55295 3.48009 9.28875C3.48613 11.0477 4.89718 12.4601 6.64288 12.4552L6.64409 12.454ZM22.7347 12.454C24.4901 12.4625 25.9059 11.0673 25.9216 9.31073C25.9374 7.57004 24.5118 6.11377 22.7842 6.10401C21.0567 6.09546 19.6359 7.53342 19.6383 9.28998C19.6408 11.0282 21.0264 12.4442 22.7347 12.4527V12.454ZM14.7214 12.4527C16.4635 12.4454 17.854 11.0172 17.8395 9.24969C17.8262 7.52732 16.4188 6.11255 14.7105 6.10523C12.9854 6.0979 11.561 7.5383 11.561 9.29119C11.561 11.049 12.9721 12.4601 14.7214 12.4527ZM10.6803 19.695C12.4212 19.6901 13.8347 18.2485 13.8117 16.5005C13.7888 14.772 12.3849 13.3597 10.6815 13.3512C8.9443 13.3438 7.53083 14.7708 7.53445 16.531C7.53687 18.3059 8.92376 19.6999 10.6815 19.695H10.6803ZM21.8697 16.5457C21.8757 14.783 20.4695 13.3487 18.7371 13.3512C17.0095 13.3536 15.584 14.8001 15.59 16.5457C15.5961 18.2717 16.989 19.6804 18.7069 19.695C20.4623 19.7109 21.8637 18.3144 21.8697 16.5457ZM10.5873 5.82569C11.4789 5.83302 12.246 5.06155 12.246 4.15947C12.246 3.27204 11.5248 2.53109 10.6429 2.51155C9.72231 2.4908 8.97933 3.20856 8.96363 4.13383C8.94792 5.04934 9.68727 5.81959 10.5861 5.82691L10.5873 5.82569ZM17.1593 4.15092C17.1569 5.06033 17.9096 5.82569 18.8072 5.82691C19.7024 5.82691 20.4538 5.05422 20.4417 4.14238C20.4296 3.2403 19.7217 2.52498 18.8289 2.51278C17.912 2.50057 17.1618 3.23542 17.1593 4.15092Z" fill="currentColor"/>
    <path d="M8.18243 9.28216C8.18485 10.1366 7.5059 10.8422 6.66748 10.8568C5.80007 10.8727 5.07763 10.1672 5.07038 9.29559C5.06193 8.43989 5.80611 7.6965 6.6542 7.71115C7.4914 7.7258 8.18002 8.43379 8.18243 9.28216Z" fill="currentColor"/>
    <path d="M22.769 10.8554C21.9257 10.8579 21.2335 10.1706 21.219 9.31858C21.2045 8.44458 21.9148 7.70729 22.7702 7.71095C23.6001 7.71339 24.3165 8.42505 24.3286 9.25755C24.3419 10.1279 23.6327 10.8542 22.769 10.8566V10.8554Z" fill="currentColor"/>
    <path d="M16.2515 9.30744C16.2383 10.1851 15.5158 10.8821 14.6484 10.8565C13.8112 10.8321 13.1322 10.1167 13.1407 9.2696C13.1492 8.40658 13.8994 7.67906 14.7463 7.71202C15.5835 7.74497 16.266 8.46639 16.2528 9.30744H16.2515Z" fill="currentColor"/>
    <path d="M12.285 16.5576C12.2705 17.4792 11.5191 18.203 10.6069 18.175C9.72986 18.1481 9.01346 17.3889 9.03159 16.5063C9.05092 15.5884 9.80598 14.8645 10.7169 14.8913C11.5988 14.917 12.2995 15.6616 12.285 16.5576Z" fill="currentColor"/>
    <path d="M20.3664 16.54C20.3652 17.425 19.6403 18.1623 18.7572 18.1757C17.8512 18.1891 17.1058 17.4433 17.1094 16.5241C17.113 15.6074 17.8572 14.8762 18.7717 14.8908C19.6464 14.9043 20.3664 15.6501 20.3652 16.54H20.3664Z" fill="currentColor"/>
</svg>