<svg width="18" height="17" viewBox="0 0 18 17"
    xmlns="http://www.w3.org/2000/svg">
    <path d="M9.83073 5.9974C9.83073 6.91406 10.5807 7.66406 11.4974 7.66406C12.4141 7.66406 13.1641 6.91406 13.1641 5.9974C13.1641 5.08073 12.4141 4.33073 11.4974 4.33073C10.5807 4.33073 9.83073 5.08073 9.83073 5.9974ZM4.83073 5.9974C4.83073 6.91406 5.58073 7.66406 6.4974 7.66406C7.41406 7.66406 8.16406 6.91406 8.16406 5.9974C8.16406 5.08073 7.41406 4.33073 6.4974 4.33073C5.58073 4.33073 4.83073 5.08073 4.83073 5.9974ZM6.4974 9.4974C6.4974 8.9974 5.9974 8.4974 5.4974 8.4974C4.9974 8.4974 4.4974 8.9974 4.4974 9.4974C4.4974 9.9974 4.9974 10.4974 5.4974 10.4974C5.9974 10.4974 6.4974 10.0807 6.4974 9.4974ZM10.6641 11.8307C10.6641 10.9141 9.91406 10.1641 8.9974 10.1641C8.08073 10.1641 7.33073 10.9141 7.33073 11.8307C7.33073 12.7474 8.08073 13.4974 8.9974 13.4974C9.91406 13.4974 10.6641 12.7474 10.6641 11.8307ZM8.9974 1.83073C12.6641 1.83073 15.6641 4.83073 15.6641 8.4974C15.6641 12.1641 12.6641 15.1641 8.9974 15.1641C5.33073 15.1641 2.33073 12.1641 2.33073 8.4974C2.33073 4.83073 5.33073 1.83073 8.9974 1.83073ZM8.9974 0.164062C4.41406 0.164062 0.664062 3.91406 0.664062 8.4974C0.664062 13.0807 4.41406 16.8307 8.9974 16.8307C13.5807 16.8307 17.3307 13.0807 17.3307 8.4974C17.3307 3.91406 13.5807 0.164062 8.9974 0.164062ZM13.5807 9.4974C13.5807 8.91406 13.0807 8.4974 12.5807 8.4974C11.9974 8.4974 11.5807 8.9974 11.5807 9.4974C11.5807 9.9974 12.0807 10.4974 12.5807 10.4974C13.0807 10.5807 13.5807 10.0807 13.5807 9.4974Z" />
</svg>
