<svg width="20" height="20" viewBox="0 0 20 20"  xmlns="http://www.w3.org/2000/svg">
<path fill-rule="evenodd" clip-rule="evenodd" d="M4.142 4.142C6.904 1.381 8.284 0 10 0C11.716 0 13.096 1.38 15.858 4.142C18.619 6.904 20 8.284 20 10C20 11.716 18.62 13.096 15.858 15.858C13.096 18.619 11.716 20 10 20C8.284 20 6.904 18.62 4.142 15.858C1.381 13.096 0 11.716 0 10C0 8.284 1.38 6.904 4.142 4.142ZM11.846 6.452C11.7741 6.38463 11.6896 6.33209 11.5974 6.29736C11.5052 6.26263 11.4071 6.24641 11.3086 6.24961C11.2101 6.25282 11.1132 6.27539 11.0235 6.31603C10.9337 6.35668 10.8529 6.4146 10.7855 6.4865C10.7181 6.5584 10.6656 6.64286 10.6309 6.73507C10.5961 6.82728 10.5799 6.92542 10.5831 7.0239C10.5863 7.12237 10.6089 7.21925 10.6495 7.30901C10.6902 7.39876 10.7481 7.47963 10.82 7.547L12.103 8.75H8.667C8.112 8.75 7.289 8.9 6.58 9.378C5.832 9.883 5.25 10.735 5.25 12C5.25 12.1989 5.32902 12.3897 5.46967 12.5303C5.61032 12.671 5.80109 12.75 6 12.75C6.19891 12.75 6.38968 12.671 6.53033 12.5303C6.67098 12.3897 6.75 12.1989 6.75 12C6.75 11.265 7.057 10.867 7.42 10.622C7.79288 10.3842 8.22479 10.2554 8.667 10.25H12.103L10.82 11.453C10.6783 11.5899 10.5962 11.777 10.5913 11.9739C10.5864 12.1709 10.6592 12.3618 10.794 12.5055C10.9288 12.6492 11.1146 12.7341 11.3115 12.7419C11.5083 12.7496 11.7003 12.6796 11.846 12.547L14.513 10.047C14.5878 9.97686 14.6474 9.89213 14.6881 9.79804C14.7289 9.70396 14.7499 9.60253 14.7499 9.5C14.7499 9.39747 14.7289 9.29604 14.6881 9.20196C14.6474 9.10787 14.5878 9.02314 14.513 8.953L11.846 6.453V6.452Z" />
</svg>
