<svg width="25" height="25" viewBox="0 0 25 25" fill="none"
    xmlns="http://www.w3.org/2000/svg">
    <path d="M11.5 4.56663H4.5C3.96957 4.56663 3.46086 4.77735 3.08579 5.15242C2.71071 5.52749 2.5 6.0362 2.5 6.56663V20.5666C2.5 21.0971 2.71071 21.6058 3.08579 21.9808C3.46086 22.3559 3.96957 22.5666 4.5 22.5666H18.5C19.0304 22.5666 19.5391 22.3559 19.9142 21.9808C20.2893 21.6058 20.5 21.0971 20.5 20.5666V13.5666M19 3.06663C19.3978 2.66881 19.9374 2.44531 20.5 2.44531C21.0626 2.44531 21.6022 2.66881 22 3.06663C22.3978 3.46446 22.6213 4.00402 22.6213 4.56663C22.6213 5.12924 22.3978 5.66881 22 6.06663L12.5 15.5666L8.5 16.5666L9.5 12.5666L19 3.06663Z" stroke="#667085" stroke-width="2" stroke-linecap="round" stroke-linejoin="round"/>
</svg>
    