<svg width="15" height="15" viewBox="0 0 15 15" fill="none" xmlns="http://www.w3.org/2000/svg">
    <g clip-path="url(#clip0_24_1928)">
    <path d="M14.349 5.8337C14.3173 5.68596 14.172 5.59166 14.0241 5.6233C13.8763 5.65494 13.782 5.8003 13.8137 5.94817C14.4096 8.73481 13.1362 11.5405 10.6447 12.9297C9.13965 13.7689 7.39776 13.9717 5.7402 13.501C4.29292 13.0901 3.0611 12.2084 2.21315 10.9896L2.97613 11.1697C3.12325 11.2044 3.27062 11.1134 3.30529 10.9663C3.33996 10.8191 3.24894 10.6718 3.10182 10.6371L1.69186 10.3043C1.69022 10.3039 1.68871 10.3038 1.68707 10.3034C1.68102 10.3022 1.67484 10.301 1.66866 10.3001C1.66563 10.2998 1.66274 10.2993 1.65971 10.299C1.65341 10.2982 1.64698 10.2979 1.64055 10.2976C1.63777 10.2976 1.63513 10.2974 1.63235 10.2974C1.62567 10.2974 1.61886 10.2975 1.61218 10.298C1.60979 10.2981 1.60739 10.2982 1.60487 10.2984C1.59794 10.299 1.591 10.3 1.58407 10.3011C1.5818 10.3015 1.57966 10.3018 1.57739 10.3022C1.5707 10.3034 1.56402 10.3052 1.55734 10.3069C1.55495 10.3076 1.55242 10.3081 1.55003 10.3088C1.5441 10.3106 1.53818 10.3129 1.53238 10.315C1.52935 10.3161 1.52633 10.3172 1.5233 10.3184C1.51839 10.3204 1.5136 10.323 1.50868 10.3254C1.5049 10.3271 1.50124 10.3289 1.49758 10.3309C1.49695 10.3313 1.49632 10.3315 1.49569 10.3318C1.49166 10.334 1.488 10.3366 1.48422 10.339C1.48107 10.3409 1.47792 10.3426 1.47489 10.3446C1.47439 10.3449 1.47401 10.3453 1.47363 10.3456C1.46846 10.3492 1.46367 10.3531 1.45888 10.3569C1.45649 10.3588 1.45384 10.3605 1.45157 10.3625C1.44539 10.3678 1.43947 10.3734 1.43392 10.3792C1.43316 10.3799 1.43228 10.3807 1.4314 10.3816C1.42497 10.3884 1.41879 10.3954 1.41312 10.4028C1.41274 10.4033 1.41236 10.4039 1.41198 10.4044C1.40694 10.4111 1.40202 10.4179 1.39761 10.4249C1.39534 10.4285 1.39358 10.4321 1.39143 10.4358C1.38904 10.4399 1.38652 10.4441 1.38437 10.4484C1.3821 10.4529 1.38021 10.4576 1.3782 10.4621C1.37668 10.4658 1.37492 10.4693 1.37353 10.473C1.37164 10.4779 1.37013 10.4829 1.36849 10.4881C1.36735 10.4916 1.36622 10.4952 1.36521 10.4988C1.36382 10.5039 1.36269 10.509 1.36168 10.5142C1.36092 10.518 1.36004 10.5218 1.35941 10.5255C1.35903 10.5276 1.35853 10.5296 1.35815 10.5317L1.15127 11.9656C1.12971 12.1152 1.23347 12.2539 1.38311 12.2756C1.39635 12.2774 1.40946 12.2785 1.42257 12.2785C1.55646 12.2785 1.67345 12.1801 1.69312 12.0439L1.79397 11.3448C2.18756 11.9017 2.6573 12.3946 3.1975 12.8155C3.91131 13.3717 4.71651 13.7796 5.5908 14.028C6.21875 14.2063 6.85957 14.2959 7.50428 14.2959C7.75718 14.2959 8.0107 14.2821 8.2641 14.2544C9.19563 14.1529 10.0863 13.8681 10.9114 13.4081C12.2455 12.6642 13.2778 11.5353 13.8965 10.1433C14.1942 9.47379 14.3846 8.76506 14.4628 8.03679C14.5421 7.29856 14.5038 6.55743 14.3491 5.83395L14.349 5.8337Z" fill="currentColor"/>
    <path d="M1.18909 8.84731C0.593163 6.06055 1.86659 3.25487 4.3581 1.86578C5.86311 1.02657 7.60489 0.823736 9.26257 1.29446C10.7098 1.70543 11.9417 2.58711 12.7896 3.8059L12.0266 3.62575C11.8795 3.59109 11.7321 3.6821 11.6975 3.82922C11.6628 3.97634 11.7538 4.1237 11.901 4.15837L13.3109 4.49118C13.3123 4.49156 13.3136 4.49156 13.3149 4.49194C13.3225 4.49358 13.3302 4.49496 13.3379 4.49597C13.3402 4.49622 13.3423 4.4966 13.3446 4.49685C13.3539 4.49786 13.3634 4.49849 13.3728 4.49849C13.3731 4.49849 13.3734 4.49849 13.3737 4.49849C13.3737 4.49849 13.3738 4.49849 13.3739 4.49849C13.3781 4.49849 13.3823 4.49824 13.3866 4.49799C13.3902 4.49786 13.3937 4.49761 13.3974 4.49736C13.4017 4.49698 13.406 4.49647 13.4101 4.49597C13.4138 4.49547 13.4174 4.49484 13.4211 4.49421C13.4251 4.49345 13.4293 4.49282 13.4333 4.49194C13.4403 4.49042 13.4473 4.48853 13.4541 4.48652C13.457 4.48563 13.4598 4.4845 13.4627 4.48349C13.4677 4.48173 13.4728 4.47996 13.4777 4.47794C13.4805 4.47681 13.4832 4.47555 13.486 4.47429C13.4917 4.47177 13.4972 4.46899 13.5028 4.46597C13.5042 4.46521 13.5056 4.46471 13.5069 4.46395C13.5075 4.4637 13.5078 4.46332 13.5083 4.46307C13.515 4.45929 13.5214 4.45538 13.5278 4.45109C13.5281 4.45084 13.5286 4.45046 13.529 4.45008C13.5343 4.44643 13.5393 4.44239 13.5443 4.43849C13.5465 4.43672 13.5489 4.43508 13.5511 4.43319C13.5575 4.42764 13.5637 4.42184 13.5696 4.41579C13.5701 4.41529 13.5707 4.41479 13.5714 4.41416C13.5779 4.40735 13.584 4.40029 13.5898 4.39285C13.5898 4.39285 13.5898 4.39272 13.5899 4.3926C13.5955 4.38554 13.6005 4.37823 13.6053 4.37066C13.6074 4.36726 13.6092 4.36373 13.6112 4.3602C13.6136 4.35591 13.6163 4.35163 13.6184 4.34722C13.6207 4.3428 13.6226 4.33814 13.6244 4.3336C13.626 4.32994 13.6277 4.32629 13.6291 4.32263C13.631 4.31772 13.6325 4.31267 13.6342 4.30763C13.6353 4.3041 13.6364 4.30057 13.6374 4.29692C13.6388 4.29187 13.64 4.2867 13.641 4.28154C13.6417 4.27775 13.6426 4.27397 13.6432 4.27019C13.6436 4.26817 13.6441 4.26616 13.6445 4.26401L13.8514 2.83017C13.8729 2.68053 13.7692 2.54186 13.6195 2.52017C13.4699 2.49862 13.3312 2.60237 13.3095 2.75201L13.2087 3.45103C12.8151 2.89421 12.3453 2.4013 11.8051 1.98037C11.0913 1.42418 10.2861 1.01624 9.41184 0.76789C8.5378 0.519671 7.63842 0.443402 6.73879 0.541354C5.80726 0.642835 4.91658 0.927613 4.09146 1.38762C2.75739 2.13152 1.72514 3.26042 1.10639 4.65242C0.808741 5.32194 0.61825 6.03067 0.540087 6.75894C0.460916 7.49717 0.499115 8.2383 0.653802 8.96178C0.681285 9.09023 0.794874 9.17823 0.921195 9.17823C0.940105 9.17823 0.959394 9.17621 0.978683 9.17218C1.12644 9.14053 1.22074 8.99518 1.18909 8.84731Z" fill="currentColor"/>
    <path d="M7.50039 2.17969C4.61795 2.17969 2.28125 4.51628 2.28125 7.3986C2.28125 10.2809 4.61795 12.6174 7.50039 12.6174C10.3828 12.6174 12.7195 10.2808 12.7195 7.3986C12.7195 4.5164 10.3828 2.17969 7.50039 2.17969ZM9.51397 3.71035L8.85602 4.74231L8.28417 5.63913L7.62924 6.66629L7.65949 6.66213L7.96962 6.61965L9.05079 6.47152L9.12039 6.46194L9.38828 6.42526L9.23801 6.63364L9.01247 6.94628L8.71621 7.35712L8.32602 7.89806L8.07615 8.24448L7.6213 8.87505L7.41177 9.16563L7.03331 9.69043L6.8993 9.87625L6.57 10.3329L6.34194 10.649L6.19722 10.8497L6.04165 11.0654L5.98819 11.1397L6.01782 11.0587L6.10191 10.8285L6.57832 9.52416L6.65195 9.32245L7.0826 8.14363L7.16656 7.91369L7.2069 7.80326L7.02146 7.8286L6.69658 7.87297L5.45328 8.04303L5.46891 8.00774L5.58691 7.7425L5.75849 7.357L5.95201 6.92208L6.04165 6.72075L6.33867 6.0535L6.4399 5.82595L6.74511 5.14017L6.89072 4.81303L7.40521 3.65715H9.54776L9.51397 3.71023V3.71035Z" fill="currentColor"/>
    </g>
    <defs>
    <clipPath id="clip0_24_1928">
    <rect width="14" height="14" fill="currentColor" transform="translate(0.5 0.5)"/>
    </clipPath>
    </defs>
    </svg>
    