<svg width="17" height="18" viewBox="0 0 17 18" fill="none"
    xmlns="http://www.w3.org/2000/svg">
    <path d="M10.7677 13.1164C9.42518 14.9328 8.75392 15.841 8.12765 15.6491C7.50138 15.4572 7.5014 14.3433 7.50143 12.1154L7.50143 11.9055C7.50145 11.102 7.50145 10.7002 7.24471 10.4482L7.23112 10.4351C6.96884 10.1884 6.55069 10.1884 5.71438 10.1884C4.20944 10.1884 3.45697 10.1884 3.20266 9.73202C3.19845 9.72447 3.19435 9.71685 3.19038 9.70918C2.95031 9.24569 3.38599 8.65622 4.25735 7.47728L6.33424 4.66727C7.67674 2.85089 8.34799 1.94269 8.97426 2.13461C9.60053 2.32654 9.60053 3.44043 9.60053 5.66822V5.87828C9.60053 6.6818 9.60053 7.08355 9.85727 7.33556L9.87086 7.34861C10.1331 7.59529 10.5513 7.59529 11.3876 7.59529C12.8925 7.59529 13.645 7.59529 13.8993 8.05172C13.9035 8.05927 13.9076 8.06689 13.9116 8.07457C14.1517 8.53806 13.716 9.12753 12.8446 10.3065" stroke="currentColor" stroke-width="1.5" stroke-linecap="round"/>
</svg>
