<svg width="16" height="16" viewBox="0 0 16 16" fill="none" xmlns="http://www.w3.org/2000/svg">
<path d="M6.5974 2.82406C7.05628 2.71665 7.5261 2.66295 7.9974 2.66406C12.6641 2.66406 15.3307 7.9974 15.3307 7.9974C14.926 8.75447 14.4434 9.46722 13.8907 10.1241M9.41073 9.41073C9.22763 9.60723 9.00683 9.76483 8.7615 9.87414C8.51617 9.98346 8.25133 10.0422 7.98279 10.047C7.71425 10.0517 7.4475 10.0023 7.19847 9.90172C6.94943 9.80113 6.72321 9.65141 6.53329 9.4615C6.34338 9.27158 6.19366 9.04536 6.09307 8.79632C5.99248 8.54729 5.94308 8.28054 5.94782 8.012C5.95256 7.74346 6.01133 7.47863 6.12065 7.23329C6.22996 6.98796 6.38756 6.76716 6.58406 6.58406M0.664062 0.664062L15.3307 15.3307M11.9574 11.9574C10.8178 12.8261 9.43013 13.3073 7.9974 13.3307C3.33073 13.3307 0.664062 7.9974 0.664062 7.9974C1.49332 6.45199 2.64349 5.1018 4.0374 4.0374L11.9574 11.9574Z" stroke="currentColor" stroke-linecap="round" stroke-linejoin="round"/>
</svg>
