<svg width="15" height="15" viewBox="0 0 15 15"
    xmlns="http://www.w3.org/2000/svg">
    <g clip-path="url(#clip0_13278_3819)">
        <path d="M14.349 5.49776C14.3173 5.35002 14.172 5.25572 14.0241 5.28736C13.8763 5.31901 13.782 5.46436 13.8137 5.61223C14.4096 8.39887 13.1362 11.2045 10.6447 12.5938C9.13965 13.433 7.39776 13.6358 5.7402 13.1651C4.29292 12.7541 3.0611 11.8724 2.21315 10.6536L2.97613 10.8338C3.12325 10.8685 3.27062 10.7774 3.30529 10.6303C3.33996 10.4832 3.24894 10.3358 3.10182 10.3012L1.69186 9.96836C1.69022 9.96798 1.68871 9.96786 1.68707 9.96748C1.68102 9.96622 1.67484 9.96508 1.66866 9.9642C1.66563 9.96382 1.66273 9.96332 1.65971 9.96307C1.65341 9.96231 1.64698 9.96193 1.64055 9.96168C1.63777 9.96168 1.63513 9.96143 1.63235 9.96143C1.62567 9.96143 1.61886 9.96155 1.61218 9.96206C1.60979 9.96218 1.60739 9.96231 1.60487 9.96244C1.59794 9.96307 1.591 9.96407 1.58407 9.96521C1.5818 9.96559 1.57966 9.96584 1.57739 9.96622C1.5707 9.96748 1.56402 9.96924 1.55734 9.97101C1.55495 9.97164 1.55242 9.97214 1.55003 9.9729C1.5441 9.97466 1.53818 9.97693 1.53238 9.97908C1.52935 9.98021 1.52633 9.98122 1.5233 9.98248C1.51839 9.9845 1.5136 9.98702 1.50868 9.98941C1.5049 9.99118 1.50124 9.99294 1.49758 9.99496C1.49695 9.99534 1.49632 9.99559 1.49569 9.99584C1.49166 9.99811 1.488 10.0006 1.48422 10.003C1.48107 10.0049 1.47792 10.0067 1.47489 10.0087C1.47439 10.009 1.47401 10.0093 1.47363 10.0097C1.46846 10.0132 1.46367 10.0171 1.45888 10.0209C1.45649 10.0228 1.45384 10.0246 1.45157 10.0266C1.44539 10.0319 1.43947 10.0374 1.43392 10.0432C1.43316 10.044 1.43228 10.0448 1.4314 10.0456C1.42497 10.0524 1.41879 10.0595 1.41312 10.0668C1.41274 10.0673 1.41236 10.068 1.41198 10.0685C1.40694 10.0751 1.40202 10.0819 1.39761 10.089C1.39534 10.0925 1.39358 10.0962 1.39143 10.0998C1.38904 10.104 1.38652 10.1082 1.38437 10.1125C1.3821 10.117 1.38021 10.1217 1.3782 10.1262C1.37668 10.1298 1.37492 10.1334 1.37353 10.137C1.37164 10.142 1.37013 10.147 1.36849 10.1522C1.36735 10.1557 1.36622 10.1592 1.36521 10.1629C1.36382 10.1679 1.36269 10.1731 1.36168 10.1783C1.36093 10.182 1.36004 10.1858 1.35941 10.1896C1.35903 10.1916 1.35853 10.1936 1.35815 10.1958L1.15127 11.6296C1.12971 11.7793 1.23347 11.9179 1.38311 11.9396C1.39635 11.9415 1.40946 11.9425 1.42257 11.9425C1.55646 11.9425 1.67345 11.8442 1.69312 11.7079L1.79397 11.0089C2.18756 11.5657 2.6573 12.0586 3.1975 12.4795C3.91131 13.0357 4.71651 13.4437 5.5908 13.692C6.21875 13.8704 6.85957 13.9599 7.50428 13.9599C7.75718 13.9599 8.0107 13.9462 8.2641 13.9184C9.19563 13.817 10.0863 13.5322 10.9114 13.0722C12.2455 12.3283 13.2778 11.1994 13.8965 9.80738C14.1942 9.13785 14.3846 8.42912 14.4628 7.70085C14.5421 6.96262 14.5038 6.2215 14.3491 5.49802L14.349 5.49776Z" />
        <path d="M1.18909 8.51137C0.593163 5.72461 1.86659 2.91894 4.3581 1.52984C5.86311 0.690635 7.60489 0.487799 9.26257 0.958521C10.7098 1.36949 11.9417 2.25118 12.7896 3.46996L12.0266 3.28982C11.8795 3.25515 11.7321 3.34617 11.6975 3.49328C11.6628 3.6404 11.7538 3.78777 11.901 3.82243L13.3109 4.15524C13.3123 4.15562 13.3136 4.15562 13.3149 4.156C13.3225 4.15764 13.3302 4.15902 13.3379 4.16003C13.3402 4.16029 13.3423 4.16066 13.3446 4.16092C13.3539 4.16192 13.3634 4.16255 13.3728 4.16255C13.3731 4.16255 13.3734 4.16255 13.3737 4.16255C13.3737 4.16255 13.3738 4.16255 13.3739 4.16255C13.3781 4.16255 13.3823 4.1623 13.3866 4.16205C13.3902 4.16192 13.3937 4.16167 13.3974 4.16142C13.4017 4.16104 13.406 4.16054 13.4101 4.16003C13.4138 4.15953 13.4174 4.1589 13.4211 4.15827C13.4251 4.15751 13.4293 4.15688 13.4333 4.156C13.4403 4.15449 13.4473 4.1526 13.4541 4.15058C13.457 4.1497 13.4598 4.14856 13.4627 4.14755C13.4677 4.14579 13.4728 4.14402 13.4777 4.14201C13.4805 4.14087 13.4832 4.13961 13.486 4.13835C13.4917 4.13583 13.4972 4.13306 13.5028 4.13003C13.5042 4.12927 13.5056 4.12877 13.5069 4.12801C13.5075 4.12776 13.5078 4.12738 13.5083 4.12713C13.515 4.12335 13.5214 4.11944 13.5278 4.11515C13.5281 4.1149 13.5286 4.11452 13.529 4.11415C13.5343 4.11049 13.5393 4.10646 13.5443 4.10255C13.5465 4.10078 13.5489 4.09914 13.5511 4.09725C13.5575 4.09171 13.5637 4.08591 13.5696 4.07986C13.5701 4.07935 13.5707 4.07885 13.5714 4.07822C13.5779 4.07141 13.584 4.06435 13.5898 4.05691C13.5898 4.05691 13.5898 4.05679 13.5899 4.05666C13.5955 4.0496 13.6005 4.04229 13.6053 4.03473C13.6074 4.03132 13.6092 4.02779 13.6112 4.02426C13.6136 4.01998 13.6163 4.01569 13.6184 4.01128C13.6207 4.00687 13.6226 4.0022 13.6244 3.99766C13.626 3.99401 13.6277 3.99035 13.6291 3.9867C13.631 3.98178 13.6325 3.97674 13.6342 3.97169C13.6353 3.96816 13.6364 3.96463 13.6374 3.96098C13.6388 3.95594 13.64 3.95077 13.641 3.9456C13.6417 3.94182 13.6426 3.93804 13.6432 3.93425C13.6436 3.93224 13.6441 3.93022 13.6445 3.92808L13.8514 2.49423C13.8729 2.34459 13.7692 2.20592 13.6195 2.18424C13.4699 2.16268 13.3312 2.26643 13.3095 2.41607L13.2087 3.11509C12.8151 2.55827 12.3453 2.06536 11.8051 1.64443C11.0913 1.08824 10.2861 0.680298 9.41184 0.431953C8.5378 0.183733 7.63842 0.107465 6.73879 0.205416C5.80726 0.306898 4.91658 0.591675 4.09146 1.05168C2.7574 1.79558 1.72514 2.92448 1.10639 4.31648C0.808741 4.986 0.61825 5.69473 0.540087 6.423C0.460916 7.16123 0.499115 7.90236 0.653802 8.62584C0.681285 8.7543 0.794874 8.84229 0.921195 8.84229C0.940105 8.84229 0.959394 8.84027 0.978683 8.83624C1.12644 8.8046 1.22074 8.65925 1.18909 8.51137Z" />
        <path d="M7.50039 1.84375C4.61794 1.84375 2.28125 4.18034 2.28125 7.06266C2.28125 9.94498 4.61794 12.2814 7.50039 12.2814C10.3828 12.2814 12.7195 9.94485 12.7195 7.06266C12.7195 4.18047 10.3828 1.84375 7.50039 1.84375ZM9.51397 3.37441L8.85602 4.40637L8.28417 5.30319L7.62924 6.33036L7.65949 6.3262L7.96962 6.28371L9.05079 6.13559L9.12039 6.12601L9.38828 6.08932L9.23801 6.29771L9.01247 6.61034L8.71621 7.02118L8.32602 7.56212L8.07615 7.90855L7.62129 8.53912L7.41177 8.82969L7.03331 9.3545L6.8993 9.54031L6.57 9.99692L6.34194 10.3131L6.19722 10.5138L6.04165 10.7295L5.98819 10.8037L6.01782 10.7228L6.10191 10.4926L6.57832 9.18822L6.65195 8.98652L7.0826 7.8077L7.16656 7.57776L7.2069 7.46732L7.02146 7.49266L6.69658 7.53704L5.45328 7.7071L5.46891 7.6718L5.58691 7.40656L5.75849 7.02106L5.95201 6.58614L6.04165 6.38482L6.33867 5.71756L6.4399 5.49002L6.74511 4.80423L6.89072 4.47709L7.40521 3.32122H9.54776L9.51397 3.37429V3.37441Z" />
    </g>
    <defs>
        <clipPath id="clip0_13278_3819">
            <rect width="14" height="14" transform="translate(0.5 0.164062)"/>
        </clipPath>
    </defs>
</svg>
