<svg width="24" height="24" viewBox="0 0 24 24" fill="none"
    xmlns="http://www.w3.org/2000/svg">
    <rect width="24" height="24" rx="12" fill="#00A45F" fill-opacity="0.07"/>
    <path d="M15.3307 12.0026C17.1717 12.0026 18.6641 10.5102 18.6641 8.66927C18.6641 6.82832 17.1717 5.33594 15.3307 5.33594C13.4898 5.33594 11.9974 6.82832 11.9974 8.66927C11.9974 9.2025 12.1226 9.70648 12.3452 10.1534C12.4044 10.2722 12.4241 10.408 12.3898 10.5361L12.1912 11.2782C12.105 11.6003 12.3997 11.895 12.7218 11.8088L13.4639 11.6102C13.592 11.5759 13.7278 11.5956 13.8466 11.6548C14.2935 11.8774 14.7975 12.0026 15.3307 12.0026Z" fill="#65D090"/>
    <path d="M9.361 8.87745L9.79367 9.65273C10.1841 10.3524 10.0274 11.2702 9.41241 11.8852C9.41241 11.8852 9.41241 11.8852 9.41241 11.8852C9.4123 11.8853 8.66656 12.6313 10.0189 13.9837C11.3707 15.3354 12.1166 14.591 12.1174 14.5902C12.1174 14.5902 12.1174 14.5902 12.1174 14.5902C12.7324 13.9752 13.6502 13.8185 14.3499 14.2089L15.1252 14.6416C16.1816 15.2312 16.3064 16.7128 15.3778 17.6415C14.8198 18.1995 14.1362 18.6337 13.3805 18.6623C12.1085 18.7105 9.94812 18.3886 7.78107 16.2215C5.61402 14.0545 5.29208 11.8941 5.34031 10.6221C5.36895 9.8664 5.80314 9.18282 6.36114 8.62482C7.28977 7.69619 8.77139 7.82096 9.361 8.87745Z" fill="#65D090"/>
</svg>
    