<svg width="21" height="21" viewBox="0 0 21 21" xmlns="http://www.w3.org/2000/svg">
    <path fill-rule="evenodd" clip-rule="evenodd"
        d="M1.0192 6.71337C0.5 7.6619 0.5 8.80612 0.5 11.0945V12.6156C0.5 16.5165 0.5 18.4669 1.67157 19.6788C2.84315 20.8906 4.72876 20.8906 8.5 20.8906H12.5C16.2712 20.8906 18.1569 20.8906 19.3284 19.6788C20.5 18.4669 20.5 16.5165 20.5 12.6156V11.0945C20.5 8.80612 20.5 7.6619 19.9808 6.71337C19.4616 5.76483 18.5131 5.17614 16.616 3.99875L14.616 2.75749C12.6106 1.51291 11.6079 0.890625 10.5 0.890625C9.39206 0.890625 8.38939 1.51292 6.38403 2.7575L4.38403 3.99875C2.48695 5.17614 1.5384 5.76483 1.0192 6.71337ZM7.5 16.1406C7.08579 16.1406 6.75 16.4764 6.75 16.8906C6.75 17.3048 7.08579 17.6406 7.5 17.6406H13.5C13.9142 17.6406 14.25 17.3048 14.25 16.8906C14.25 16.4764 13.9142 16.1406 13.5 16.1406H7.5Z"
    />
</svg>
    