<svg width="20" height="20" viewBox="0 0 20 20" fill="none" xmlns="http://www.w3.org/2000/svg">
    <g id="Bold Duotone / Map &#38; Location / Map Point Wave">
    <path id="Vector" opacity="0.5" d="M16.4278 16.9713C17.6166 16.3231 18.3307 15.492 18.3307 14.5859C18.3307 13.6255 17.5284 12.7494 16.2088 12.0859C14.6829 11.3188 12.4655 10.8359 9.9974 10.8359C7.52934 10.8359 5.31188 11.3188 3.78599 12.0859C2.46643 12.7494 1.66406 13.6255 1.66406 14.5859C1.66406 15.5464 2.46643 16.4225 3.78599 17.0859C5.31188 17.8531 7.52934 18.3359 9.9974 18.3359C12.5862 18.3359 14.8993 17.8047 16.4278 16.9713Z" fill="currentColor"/>
    <g id="Vector_2">
    <path fill-rule="evenodd" clip-rule="evenodd" d="M4.16406 7.09293C4.16406 4.09465 6.77573 1.66406 9.9974 1.66406C13.2191 1.66406 15.8307 4.09465 15.8307 7.09293C15.8307 10.0677 13.9689 13.539 11.0641 14.7804C10.387 15.0697 9.60783 15.0697 8.93067 14.7804C6.02586 13.539 4.16406 10.0677 4.16406 7.09293ZM9.9974 9.16406C10.9179 9.16406 11.6641 8.41787 11.6641 7.4974C11.6641 6.57692 10.9179 5.83073 9.9974 5.83073C9.07692 5.83073 8.33073 6.57692 8.33073 7.4974C8.33073 8.41787 9.07692 9.16406 9.9974 9.16406Z" fill="currentColor"/>
    </g>
    </g>
    </svg>
    