<svg width="512" height="512" viewBox="0 0 512 512" fill="none" xmlns="http://www.w3.org/2000/svg">
<path d="M153.5 75C117.339 75 88 104.663 88 141.198C88 183.236 131.667 249.855 147.701 272.864C148.366 273.836 149.238 274.626 150.246 275.171C151.254 275.716 152.369 276 153.5 276C154.631 276 155.746 275.716 156.754 275.171C157.762 274.626 158.634 273.836 159.299 272.864C175.333 249.864 219 183.27 219 141.198C219 104.663 189.661 75 153.5 75Z" stroke="black" stroke-width="32" stroke-linecap="round" stroke-linejoin="round"/>
<path d="M153.5 167.774C165.558 167.774 175.333 157.39 175.333 144.58C175.333 131.771 165.558 121.387 153.5 121.387C141.442 121.387 131.667 131.771 131.667 144.58C131.667 157.39 141.442 167.774 153.5 167.774Z" stroke="black" stroke-width="32" stroke-linecap="round" stroke-linejoin="round"/>
<path d="M359.5 237C323.339 237 294 266.663 294 303.198C294 345.236 337.667 411.855 353.701 434.864C354.366 435.836 355.238 436.626 356.246 437.171C357.254 437.716 358.369 438 359.5 438C360.631 438 361.746 437.716 362.754 437.171C363.762 436.626 364.634 435.836 365.299 434.864C381.333 411.864 425 345.27 425 303.198C425 266.663 395.661 237 359.5 237Z" stroke="black" stroke-width="32" stroke-linecap="round" stroke-linejoin="round"/>
<path d="M359.5 329.774C371.558 329.774 381.333 319.39 381.333 306.58C381.333 293.771 371.558 283.387 359.5 283.387C347.442 283.387 337.667 293.771 337.667 306.58C337.667 319.39 347.442 329.774 359.5 329.774Z" stroke="black" stroke-width="32" stroke-linecap="round" stroke-linejoin="round"/>
</svg>
