<svg width="14" height="14" viewBox="0 0 14 14"  xmlns="http://www.w3.org/2000/svg">
<path fill-rule="evenodd" clip-rule="evenodd" d="M2.67188 5.71639C2.67188 3.2248 4.75398 1.21094 7.27249 1.21094C9.79811 1.21094 11.8802 3.2248 11.8802 5.71639C11.8802 6.97194 11.4236 8.13757 10.672 9.12554C9.84289 10.2153 8.82096 11.1649 7.67067 11.9102C7.4074 12.0824 7.16981 12.0954 6.88087 11.9102C5.72402 11.1649 4.70209 10.2153 3.88006 9.12554C3.12795 8.13757 2.67188 6.97194 2.67188 5.71639ZM5.75625 5.85668C5.75625 6.69136 6.43736 7.34784 7.27249 7.34784C8.10817 7.34784 8.79583 6.69136 8.79583 5.85668C8.79583 5.02849 8.10817 4.34005 7.27249 4.34005C6.43736 4.34005 5.75625 5.02849 5.75625 5.85668Z" />
</svg>
