<svg width="25" height="25" viewBox="0 0 25 25" xmlns="http://www.w3.org/2000/svg">
    <path
        d="M3.01439 5.54041C2.57812 6.037 2.57812 6.88843 2.57812 8.59128V17.9846C2.57812 19.1906 2.57812 19.7936 2.89272 20.2475C3.20732 20.7015 3.75733 20.8922 4.85737 21.2735L6.15155 21.7222C6.85249 21.9652 7.39183 22.1522 7.84445 22.2726C8.13973 22.3511 8.41146 22.1194 8.41146 21.8138V6.66365C8.41146 6.41474 8.22777 6.20466 7.98649 6.14346C7.59726 6.04473 7.12939 5.88253 6.48814 5.66022C4.93489 5.12173 4.15826 4.85248 3.56734 5.1259C3.35754 5.22298 3.16928 5.3641 3.01439 5.54041Z" />
    <path
        d="M13.1985 3.87451L11.6625 4.93951C11.1069 5.3248 10.6996 5.60716 10.3519 5.80847C10.1871 5.90387 10.0781 6.07647 10.0781 6.2669V21.3138C10.0781 21.6844 10.4621 21.9158 10.7743 21.7161C11.1094 21.5017 11.493 21.2357 11.9577 20.9135L13.4937 19.8485C14.0494 19.4632 14.4566 19.1809 14.8044 18.9795C14.9692 18.8841 15.0781 18.7115 15.0781 18.5211V3.47419C15.0781 3.1036 14.6941 2.87222 14.382 3.07192C14.0469 3.28626 13.6632 3.55229 13.1985 3.87451Z" />
    <path
        d="M20.2989 3.51449L19.0047 3.06581C18.3037 2.82278 17.7644 2.63583 17.3118 2.51543C17.0165 2.43688 16.7448 2.66865 16.7448 2.97419V18.1244C16.7448 18.3733 16.9285 18.5833 17.1698 18.6446C17.559 18.7433 18.0269 18.9055 18.6681 19.1278C20.2214 19.6663 20.998 19.9355 21.5889 19.6621C21.7987 19.565 21.987 19.4239 22.1419 19.2476C22.5781 18.751 22.5781 17.8996 22.5781 16.1967V6.80344C22.5781 5.59746 22.5781 4.99446 22.2635 4.5405C21.9489 4.08654 21.3989 3.89585 20.2989 3.51449Z" />
</svg>