<svg width="22" height="22" viewBox="0 0 22 22"
    xmlns="http://www.w3.org/2000/svg">
    <path d="M11 15.125C12.0935 15.1238 13.142 14.689 13.9153 13.9158C14.6886 13.1426 15.1237 12.0942 15.125 11.0007V5.5C15.125 4.40598 14.6904 3.35677 13.9168 2.58318C13.1432 1.8096 12.094 1.375 11 1.375C9.90598 1.375 8.85677 1.8096 8.08318 2.58318C7.3096 3.35677 6.875 4.40598 6.875 5.5V11C6.87619 12.0937 7.31117 13.1422 8.0845 13.9155C8.85783 14.6888 9.90635 15.1238 11 15.125Z" />
    <path d="M17.2267 11.0035C17.0457 10.9853 16.8649 11.0389 16.723 11.1526C16.5812 11.2663 16.4896 11.4312 16.468 11.6118C16.3171 12.956 15.6761 14.1975 14.6677 15.099C13.6592 16.0005 12.3539 16.4989 11.0013 16.4988C9.64857 16.4987 8.34335 16.0002 7.335 15.0986C6.32665 14.1969 5.68587 12.9553 5.53512 11.6111C5.51293 11.4308 5.42117 11.2664 5.27943 11.1529C5.13768 11.0394 4.95719 10.9858 4.77645 11.0035C4.59515 11.0236 4.42925 11.1149 4.31519 11.2573C4.20114 11.3997 4.14827 11.5815 4.16818 11.7628C4.34319 13.3229 5.04948 14.7754 6.16854 15.8764C7.28759 16.9774 8.75131 17.6601 10.3141 17.8097V19.9363C10.3141 20.1186 10.3865 20.2935 10.5154 20.4224C10.6443 20.5513 10.8192 20.6238 11.0016 20.6238C11.1839 20.6238 11.3588 20.5513 11.4877 20.4224C11.6166 20.2935 11.6891 20.1186 11.6891 19.9363V17.8098C13.252 17.6605 14.7161 16.9779 15.8352 15.8766C16.9543 14.7754 17.6604 13.3225 17.8349 11.7622C17.8548 11.5809 17.8019 11.3991 17.6879 11.2569C17.5738 11.1146 17.4079 11.0235 17.2267 11.0035Z" />
</svg>
