<svg width="11" height="16" viewBox="0 0 11 16" fill="none" xmlns="http://www.w3.org/2000/svg">
<path d="M0.335938 0.664063V15.3307H3.0026V9.9974H6.33594C6.94877 9.9974 7.55561 9.87669 8.12179 9.64217C8.68798 9.40765 9.20243 9.0639 9.63577 8.63056C10.0691 8.19722 10.4129 7.68277 10.6474 7.11659C10.8819 6.5504 11.0026 5.94357 11.0026 5.33073C11.0026 4.71789 10.8819 4.11106 10.6474 3.54487C10.4129 2.97869 10.0691 2.46424 9.63577 2.0309C9.20243 1.59756 8.68798 1.25381 8.12179 1.01929C7.55561 0.784769 6.94877 0.664062 6.33594 0.664063H0.335938ZM3.0026 7.33073V3.33073H6.33594C6.59858 3.33073 6.85865 3.38246 7.10131 3.48297C7.34396 3.58348 7.56444 3.7308 7.75015 3.91652C7.93587 4.10223 8.08319 4.32271 8.1837 4.56536C8.28421 4.80801 8.33594 5.06809 8.33594 5.33073C8.33594 5.59337 8.28421 5.85345 8.1837 6.0961C8.08319 6.33875 7.93587 6.55923 7.75015 6.74494C7.56444 6.93066 7.34396 7.07798 7.10131 7.17849C6.85865 7.279 6.59858 7.33073 6.33594 7.33073H3.0026Z" fill="url(#paint0_linear_13140_1016)"/>
<defs>
<linearGradient id="paint0_linear_13140_1016" x1="0.335938" y1="7.9974" x2="11.0026" y2="7.9974" gradientUnits="userSpaceOnUse">
<stop stop-color="#0DB8CD"/>
<stop offset="1" stop-color="#11AA72"/>
</linearGradient>
</defs>
</svg>
