<svg width="25" height="25" viewBox="0 0 25 25" xmlns="http://www.w3.org/2000/svg">
    <circle cx="12.5" cy="6.89062" r="4" />
    <path fill-rule="evenodd" clip-rule="evenodd"
        d="M21.9685 17.305C22.292 17.5638 22.3444 18.0357 22.0857 18.3592L20.0857 20.8592C19.9524 21.0258 19.7545 21.1277 19.5415 21.1395C19.3285 21.1513 19.1205 21.0718 18.9697 20.921L17.9697 19.921C17.6768 19.6281 17.6768 19.1532 17.9697 18.8603C18.2626 18.5674 18.7374 18.5674 19.0303 18.8603L19.4371 19.2671L20.9143 17.4221C21.1731 17.0987 21.6451 17.0462 21.9685 17.305Z"
    />
    <path
        d="M19.3272 17.0034L19.1433 17.233C18.3773 17.0052 17.5138 17.1937 16.909 17.7986C16.0303 18.6772 16.0303 20.1019 16.909 20.9805L16.9207 20.9922C15.7154 21.5538 14.1765 21.8906 12.5 21.8906C8.63401 21.8906 5.5 20.0998 5.5 17.8906C5.5 15.6815 8.63401 13.8906 12.5 13.8906C15.8324 13.8906 18.6209 15.2212 19.3272 17.0034Z"
    />
</svg>
    