<svg width="24" height="24" viewBox="0 0 24 24" fill="none" xmlns="http://www.w3.org/2000/svg">
    <rect width="24" height="24" rx="12" fill="#00A45F" fill-opacity="0.07"/>
    <ellipse cx="10.0026" cy="8.0026" rx="2.66667" ry="2.66667" fill="#65D090"/>
    <ellipse cx="10.0026" cy="15.3307" rx="4.66667" ry="2.66667" fill="#65D090"/>
    <path d="M17.9981 15.3331C17.9981 16.4377 16.6411 17.3331 14.9842 17.3331C15.4724 16.7996 15.808 16.1299 15.808 15.3341C15.808 14.5374 15.4716 13.867 14.9825 13.3332C16.6394 13.3332 17.9981 14.2286 17.9981 15.3331Z" fill="#65D090"/>
    <path d="M15.9981 8C15.9981 9.10457 15.1027 10 13.9981 10C13.7573 10 13.5264 9.95742 13.3125 9.87939C13.6279 9.32466 13.808 8.68299 13.808 7.99926C13.808 7.31602 13.6282 6.6748 13.3132 6.12036C13.5269 6.04248 13.7575 6 13.9981 6C15.1027 6 15.9981 6.89543 15.9981 8Z" fill="#65D090"/>
    </svg>
    