<svg width="24" height="24" viewBox="0 0 24 24" fill="none" xmlns="http://www.w3.org/2000/svg">
<rect width="24" height="24" rx="12" fill="#00A45F" fill-opacity="0.07"/>
<path d="M17.057 16.3499C18.0618 15.1827 18.6693 13.6636 18.6693 12.0026C18.6693 10.3416 18.0618 8.82252 17.057 7.65531L14.2085 10.5038C14.4993 10.9309 14.6693 11.4469 14.6693 12.0026C14.6693 12.5583 14.4993 13.0743 14.2085 13.5014L17.057 16.3499Z" fill="#65D090"/>
<path d="M16.3499 17.057C15.1827 18.0618 13.6636 18.6693 12.0026 18.6693C10.3416 18.6693 8.82252 18.0618 7.65531 17.057L10.5038 14.2085C10.9309 14.4993 11.4469 14.6693 12.0026 14.6693C12.5583 14.6693 13.0743 14.4993 13.5014 14.2085L16.3499 17.057Z" fill="#65D090"/>
<path d="M6.9482 16.3499L9.79669 13.5014C9.5059 13.0743 9.33594 12.5583 9.33594 12.0026C9.33594 11.4469 9.5059 10.9309 9.79669 10.5038L6.9482 7.65531C5.94337 8.82252 5.33594 10.3416 5.33594 12.0026C5.33594 13.6636 5.94337 15.1827 6.9482 16.3499Z" fill="#65D090"/>
<path d="M12.0026 9.33594C11.4469 9.33594 10.9309 9.5059 10.5038 9.79669L7.65531 6.9482C8.82252 5.94337 10.3416 5.33594 12.0026 5.33594C13.6636 5.33594 15.1827 5.94337 16.3499 6.9482L13.5014 9.79669C13.0743 9.5059 12.5583 9.33594 12.0026 9.33594Z" fill="#65D090"/>
</svg>
