<svg width="25" height="25" viewBox="0 0 25 25" fill="none" xmlns="http://www.w3.org/2000/svg">
<g clip-path="url(#clip0_13271_6138)">
<path d="M22.0267 16.125C21.5506 16.125 21.0744 16.4829 21.0744 17.0796V19.4659C21.0744 20.3011 20.36 20.8977 19.6458 20.8977H17.2649C16.7886 20.8977 16.3125 21.2557 16.3125 21.8523C16.3125 22.4488 16.6696 22.8068 17.2649 22.8068H19.6458C21.4315 22.8068 22.9791 21.375 22.9791 19.4659V17.0796C22.9791 16.6023 22.503 16.125 22.0267 16.125Z" fill="white"/>
<path d="M17.2649 3.71379H19.6458C20.4791 3.71379 21.0744 4.42969 21.0744 5.1456V7.53196C21.0744 8.00923 21.4316 8.4865 22.0268 8.4865C22.6221 8.4865 22.9792 8.12856 22.9792 7.53196V5.1456C22.9792 3.35583 21.5506 1.80469 19.6458 1.80469H17.2649C16.7887 1.80469 16.3125 2.16264 16.3125 2.75923C16.3125 3.35583 16.7887 3.71379 17.2649 3.71379Z" fill="white"/>
<path d="M7.73771 20.8977H5.35677C4.52343 20.8977 3.9282 20.1818 3.9282 19.4659V17.0796C3.9282 16.6023 3.57106 16.125 2.97581 16.125C2.38058 16.125 2.02344 16.6023 2.02344 17.0796V19.4659C2.02344 21.2556 3.45201 22.8068 5.35677 22.8068H7.73771C8.21391 22.8068 8.6901 22.4488 8.6901 21.8523C8.6901 21.2557 8.21391 20.8977 7.73771 20.8977Z" fill="white"/>
<path d="M2.97581 8.4865C3.45201 8.4865 3.9282 8.12856 3.9282 7.53196V5.1456C3.9282 4.31037 4.64249 3.71379 5.35677 3.71379H7.73772C8.21391 3.71379 8.6901 3.35583 8.6901 2.75923C8.6901 2.16264 8.21391 1.80469 7.73772 1.80469H5.35677C3.57106 1.80469 2.02344 3.35583 2.02344 5.1456V7.53196C2.02344 8.00923 2.49962 8.4865 2.97581 8.4865Z" fill="white"/>
<path d="M17.2641 19.4637C18.5737 19.4637 19.6451 18.3899 19.6451 17.0774V14.9297H5.35938V17.0774C5.35938 18.3899 6.43081 19.4637 7.74033 19.4637H17.2641Z" fill="white"/>
<path d="M23.2169 11.3529H19.6455V7.5348C19.6455 6.2223 18.5741 5.14844 17.2645 5.14844H7.7407C6.43118 5.14844 5.35975 6.2223 5.35975 7.5348V11.5916H1.78832C1.31212 11.5916 0.835938 11.9495 0.835938 12.5462C0.835938 13.1427 1.19308 13.5006 1.78832 13.5006H23.2169C23.693 13.5006 24.1693 13.1427 24.1693 12.5462C24.1693 11.9495 23.693 11.3529 23.2169 11.3529Z" fill="white"/>
</g>
<defs>
<clipPath id="clip0_13271_6138">
<rect width="24" height="24" fill="white" transform="translate(0.5 0.304688)"/>
</clipPath>
</defs>
</svg>
