<svg width="24" height="24" viewBox="0 0 24 24" fill="none" xmlns="http://www.w3.org/2000/svg">
    <rect width="24" height="24" rx="12" fill="#00A45F" fill-opacity="0.07"/>
    <path fill-rule="evenodd" clip-rule="evenodd" d="M13.5192 5.43743C13.2723 5.33594 12.9593 5.33594 12.3333 5.33594C11.7073 5.33594 11.3944 5.33594 11.1475 5.43743C10.8183 5.57276 10.5567 5.83232 10.4204 6.15903C10.3581 6.30816 10.3338 6.48161 10.3242 6.7346C10.3102 7.10639 10.1181 7.45053 9.79344 7.63656C9.46879 7.82258 9.07243 7.81563 8.74099 7.64178C8.51545 7.52347 8.35192 7.45769 8.19066 7.43662C7.83739 7.39046 7.48012 7.48547 7.19744 7.70074C6.98542 7.86219 6.82893 8.1312 6.51594 8.66923C6.20294 9.20725 6.04645 9.47626 6.01156 9.73921C5.96506 10.0898 6.06079 10.4444 6.2777 10.7249C6.3767 10.853 6.51585 10.9606 6.7318 11.0953C7.04928 11.2933 7.25355 11.6305 7.25353 12.0026C7.25351 12.3747 7.04924 12.7119 6.7318 12.9098C6.51581 13.0445 6.37665 13.1522 6.27763 13.2802C6.06072 13.5608 5.96499 13.9154 6.0115 14.266C6.04638 14.5289 6.20288 14.7979 6.51587 15.3359C6.82886 15.874 6.98536 16.143 7.19737 16.3044C7.48005 16.5197 7.83733 16.6147 8.19059 16.5685C8.35185 16.5475 8.51537 16.4817 8.74089 16.3634C9.07235 16.1895 9.46873 16.1826 9.79341 16.3686C10.1181 16.5547 10.3102 16.8988 10.3242 17.2706C10.3338 17.5236 10.3581 17.6971 10.4204 17.8462C10.5567 18.1729 10.8183 18.4325 11.1475 18.5678C11.3944 18.6693 11.7073 18.6693 12.3333 18.6693C12.9593 18.6693 13.2723 18.6693 13.5192 18.5678C13.8484 18.4325 14.1099 18.1729 14.2463 17.8462C14.3085 17.697 14.3329 17.5236 14.3424 17.2706C14.3564 16.8988 14.5485 16.5547 14.8732 16.3686C15.1979 16.1826 15.5943 16.1895 15.9257 16.3634C16.1512 16.4817 16.3148 16.5474 16.476 16.5685C16.8293 16.6147 17.1865 16.5197 17.4692 16.3044C17.6812 16.1429 17.8377 15.8739 18.1507 15.3359C18.4637 14.7979 18.6202 14.5289 18.6551 14.2659C18.7016 13.9153 18.6059 13.5607 18.389 13.2802C18.29 13.1521 18.1508 13.0445 17.9348 12.9098C17.6174 12.7119 17.4131 12.3746 17.4131 12.0025C17.4132 11.6305 17.6174 11.2933 17.9348 11.0954C18.1508 10.9607 18.29 10.853 18.389 10.725C18.6059 10.4444 18.7017 10.0899 18.6552 9.73925C18.6203 9.47631 18.4638 9.20729 18.1508 8.66927C17.8378 8.13125 17.6813 7.86224 17.4693 7.70078C17.1866 7.48551 16.8293 7.3905 16.4761 7.43666C16.3148 7.45773 16.1513 7.52351 15.9258 7.6418C15.5943 7.81567 15.1979 7.82262 14.8733 7.63658C14.5486 7.45054 14.3564 7.10638 14.3424 6.73456C14.3329 6.48159 14.3085 6.30816 14.2463 6.15903C14.1099 5.83232 13.8484 5.57276 13.5192 5.43743ZM12.3333 14.0026C13.4463 14.0026 14.3486 13.1072 14.3486 12.0026C14.3486 10.898 13.4463 10.0026 12.3333 10.0026C11.2204 10.0026 10.3181 10.898 10.3181 12.0026C10.3181 13.1072 11.2204 14.0026 12.3333 14.0026Z" fill="#65D090"/>
    </svg>
    