<svg width="16" height="16" viewBox="0 0 16 16" fill="none" xmlns="http://www.w3.org/2000/svg">
    <path d="M2.42748 5.99994C2.01548 5.99994 1.69548 5.62794 1.76815 5.22261C2.00748 3.88861 2.67215 2.64861 3.67148 1.71194C4.96148 0.50194 6.64615 -0.101393 8.42215 0.0139401C11.7695 0.22994 14.3841 3.14394 14.3348 6.62527C14.3082 8.50394 12.7421 10.0006 10.8628 10.0006H8.90815C8.66815 10.2313 8.34415 10.3746 7.98548 10.3746C7.24882 10.3746 6.65215 9.77794 6.65215 9.04127C6.65215 8.30461 7.24882 7.70794 7.98548 7.70794C8.59082 7.70794 9.09615 8.11394 9.25882 8.66727H10.8628C12.0202 8.66727 12.9888 7.74527 13.0015 6.58861C13.0322 3.82461 10.9715 1.51594 8.33615 1.34527C6.93682 1.25861 5.60215 1.73061 4.58282 2.68594C3.77682 3.44127 3.25748 4.40861 3.07548 5.47127C3.02215 5.78194 2.74215 6.00127 2.42748 6.00127V5.99994ZM8.00215 11.3333C5.53882 11.3333 3.40748 12.8613 2.69882 15.1346C2.63548 15.3373 2.67215 15.5579 2.79815 15.7286C2.92415 15.8993 3.12348 15.9999 3.33548 15.9999H12.6688C12.8808 15.9999 13.0801 15.8993 13.2061 15.7286C13.3321 15.5579 13.3688 15.3373 13.3055 15.1346C12.5968 12.8613 10.4655 11.3333 8.00215 11.3333ZM9.95815 7.33327H11.5275C11.6175 7.01527 11.6688 6.68061 11.6688 6.33327C11.6688 4.30794 10.0275 2.66661 8.00215 2.66661C5.97682 2.66661 4.33548 4.30794 4.33548 6.33327C4.33548 7.32727 4.73282 8.22727 5.37482 8.88794C5.45548 7.51061 6.58748 6.41527 7.98548 6.41527C8.77948 6.41527 9.47948 6.77594 9.95882 7.33327H9.95815Z" fill="curentColor"/>
    </svg>
    