<svg width="24" height="24" viewBox="0 0 24 24" fill="none" xmlns="http://www.w3.org/2000/svg">
    <rect width="24" height="24" rx="12" fill="#00A45F" fill-opacity="0.07"/>
    <g clip-path="url(#clip0_14242_4928)">
    <path d="M10 10.0026H5.104L6.38333 6.62727C6.52847 6.24843 6.78481 5.92236 7.11867 5.69189C7.45254 5.46142 7.84831 5.33734 8.254 5.33594H10V10.0026ZM11.3333 10.0026H17.2167L14.56 6.1926C14.3758 5.9282 14.1304 5.71222 13.8447 5.56306C13.5591 5.41391 13.2416 5.33599 12.9193 5.33594H11.3333V10.0026ZM20 13.3359C20 12.8055 19.7893 12.2968 19.4142 11.9217C19.0391 11.5467 18.5304 11.3359 18 11.3359H6C5.46957 11.3359 4.96086 11.5467 4.58579 11.9217C4.21071 12.2968 4 12.8055 4 13.3359V16.0026H20V13.3359ZM9.29467 17.3359C9.686 19.9719 5.64667 19.9706 6.03867 17.3359H9.29467ZM14.7053 17.3359C14.314 19.9719 18.3533 19.9706 17.9613 17.3359H14.7053Z" fill="#65D090"/>
    </g>
    <defs>
    <clipPath id="clip0_14242_4928">
    <rect width="16" height="16" fill="white" transform="translate(4 4)"/>
    </clipPath>
    </defs>
    </svg>
    